G04*
G04 #@! TF.GenerationSoftware,Altium Limited,Altium Designer,24.1.2 (44)*
G04*
G04 Layer_Color=255*
%FSLAX44Y44*%
%MOMM*%
G71*
G04*
G04 #@! TF.SameCoordinates,A828B434-B989-4348-A1B4-DAEA40B4C3D2*
G04*
G04*
G04 #@! TF.FilePolarity,Positive*
G04*
G01*
G75*
%ADD23R,0.8000X0.9000*%
%ADD24R,0.9000X0.8000*%
G04:AMPARAMS|DCode=25|XSize=1.06mm|YSize=0.5mm|CornerRadius=0.0625mm|HoleSize=0mm|Usage=FLASHONLY|Rotation=270.000|XOffset=0mm|YOffset=0mm|HoleType=Round|Shape=RoundedRectangle|*
%AMROUNDEDRECTD25*
21,1,1.0600,0.3750,0,0,270.0*
21,1,0.9350,0.5000,0,0,270.0*
1,1,0.1250,-0.1875,-0.4675*
1,1,0.1250,-0.1875,0.4675*
1,1,0.1250,0.1875,0.4675*
1,1,0.1250,0.1875,-0.4675*
%
%ADD25ROUNDEDRECTD25*%
%ADD26R,1.0000X0.8000*%
%ADD27R,1.0000X0.7000*%
%ADD28R,1.6000X4.6000*%
%ADD29R,2.0000X2.0000*%
%ADD30R,3.2000X2.4000*%
%ADD31O,1.8000X0.5880*%
%ADD32R,0.7000X1.0000*%
%ADD33R,0.7000X0.9000*%
%ADD34O,1.8650X0.6300*%
%ADD35R,1.0200X0.6400*%
%ADD36O,1.7315X0.3430*%
%ADD37R,2.0000X2.0000*%
%ADD38R,0.6000X1.0700*%
%ADD39R,0.8000X3.4000*%
%ADD40R,0.6000X1.5000*%
G04:AMPARAMS|DCode=41|XSize=0.6096mm|YSize=1.524mm|CornerRadius=0.1219mm|HoleSize=0mm|Usage=FLASHONLY|Rotation=180.000|XOffset=0mm|YOffset=0mm|HoleType=Round|Shape=RoundedRectangle|*
%AMROUNDEDRECTD41*
21,1,0.6096,1.2802,0,0,180.0*
21,1,0.3658,1.5240,0,0,180.0*
1,1,0.2438,-0.1829,0.6401*
1,1,0.2438,0.1829,0.6401*
1,1,0.2438,0.1829,-0.6401*
1,1,0.2438,-0.1829,-0.6401*
%
%ADD41ROUNDEDRECTD41*%
%ADD42R,1.2000X1.4000*%
%ADD43R,0.5400X0.5400*%
%ADD44R,0.8000X0.8000*%
%ADD45R,1.4000X1.1000*%
%ADD46R,0.4500X0.4500*%
%ADD47R,0.8000X0.4500*%
%ADD48R,0.5400X0.5400*%
%ADD94R,0.8065X0.8640*%
%ADD95R,0.8640X0.8065*%
%ADD96R,0.5400X0.5400*%
%ADD97R,0.2800X0.6500*%
%ADD98R,0.6500X0.2800*%
%ADD99R,3.8000X3.8000*%
%ADD105C,1.5240*%
%ADD106R,2.0000X2.0000*%
%ADD107R,4.5720X2.5400*%
%ADD108C,2.0000*%
%ADD109O,1.5000X1.8000*%
%ADD110C,1.5000*%
%ADD111R,1.5000X1.5240*%
%ADD112C,2.2000*%
%ADD113C,1.4000*%
%ADD114R,1.4000X1.4000*%
%ADD115C,1.7000*%
%ADD116R,1.7000X1.7000*%
D23*
X-420850Y-313570D02*
D03*
X-406850D02*
D03*
X-420850Y-327540D02*
D03*
X-406850D02*
D03*
X-123840Y-114300D02*
D03*
X-109840D02*
D03*
X-369690Y-470350D02*
D03*
X-355690D02*
D03*
X-46990Y-153670D02*
D03*
X-32989D02*
D03*
X-369690Y-455110D02*
D03*
X-355690D02*
D03*
X-78740Y-153670D02*
D03*
X-64739D02*
D03*
X-138461Y-36830D02*
D03*
X-124460D02*
D03*
X-406850Y-299600D02*
D03*
X-420850D02*
D03*
X-411600Y-225820D02*
D03*
X-425601D02*
D03*
X-411600Y-211850D02*
D03*
X-425601D02*
D03*
X-411600Y-197880D02*
D03*
X-425601D02*
D03*
X-411600Y-183910D02*
D03*
X-425601D02*
D03*
X-337170Y-194310D02*
D03*
X-351170D02*
D03*
X-411600Y-128720D02*
D03*
X-425601D02*
D03*
D24*
X-273127Y-100709D02*
D03*
Y-86708D02*
D03*
X-26670Y-195580D02*
D03*
Y-209580D02*
D03*
X-104140Y-152400D02*
D03*
Y-138399D02*
D03*
X-362070Y-316680D02*
D03*
Y-302680D02*
D03*
X-321430Y-316680D02*
D03*
Y-302680D02*
D03*
X-378071Y-252306D02*
D03*
Y-238306D02*
D03*
X-274440Y-146469D02*
D03*
Y-160470D02*
D03*
Y-132530D02*
D03*
Y-118530D02*
D03*
X-288290Y-100980D02*
D03*
Y-86980D02*
D03*
X-354450Y-91270D02*
D03*
Y-77270D02*
D03*
D25*
X-171599Y-279170D02*
D03*
Y-302770D02*
D03*
X-171450Y-248920D02*
D03*
Y-225320D02*
D03*
D26*
X-194570Y-389680D02*
D03*
X-171570Y-380180D02*
D03*
X-194570Y-370679D02*
D03*
X-269360Y-451300D02*
D03*
X-246360Y-441800D02*
D03*
X-269360Y-432299D02*
D03*
X-231330Y-451300D02*
D03*
X-208330Y-441800D02*
D03*
X-231330Y-432299D02*
D03*
X-193300Y-451300D02*
D03*
X-170300Y-441800D02*
D03*
X-193300Y-432299D02*
D03*
X-232670Y-389680D02*
D03*
X-209670Y-380180D02*
D03*
X-232670Y-370679D02*
D03*
X-269500Y-389680D02*
D03*
X-246500Y-380180D02*
D03*
X-269500Y-370679D02*
D03*
X-209095Y-84289D02*
D03*
X-186095Y-93790D02*
D03*
X-209095Y-103290D02*
D03*
D27*
X-246204Y-466350D02*
D03*
X-269656D02*
D03*
X-208104D02*
D03*
X-231556D02*
D03*
X-170004D02*
D03*
X-193456D02*
D03*
D28*
X-388740Y-563474D02*
D03*
Y-488986D02*
D03*
D29*
X-325689Y-430980D02*
D03*
X-369690D02*
D03*
D30*
X-318890Y-339232D02*
D03*
Y-399230D02*
D03*
D31*
X-369089Y-401770D02*
D03*
Y-389070D02*
D03*
Y-376370D02*
D03*
Y-363670D02*
D03*
X-421091Y-401770D02*
D03*
Y-389070D02*
D03*
Y-376370D02*
D03*
Y-363670D02*
D03*
X-151731Y-57150D02*
D03*
Y-69850D02*
D03*
Y-82550D02*
D03*
Y-95250D02*
D03*
X-99729Y-57150D02*
D03*
Y-69850D02*
D03*
Y-82550D02*
D03*
Y-95250D02*
D03*
D32*
X-186450Y-157481D02*
D03*
X-195950Y-131481D02*
D03*
X-176950D02*
D03*
X-198730Y-224190D02*
D03*
X-189230Y-250190D02*
D03*
X-208230D02*
D03*
X-199539Y-279170D02*
D03*
X-190039Y-305170D02*
D03*
X-209039D02*
D03*
D33*
X-192800Y-172721D02*
D03*
X-177800Y-172720D02*
D03*
Y-185420D02*
D03*
X-192800Y-185421D02*
D03*
X-189230Y-264160D02*
D03*
X-174230Y-264159D02*
D03*
X-214390Y-264161D02*
D03*
X-199390Y-264160D02*
D03*
X-189420Y-318531D02*
D03*
X-174420Y-318530D02*
D03*
X-199940Y-318529D02*
D03*
X-214940Y-318530D02*
D03*
D34*
X-46990Y-208280D02*
D03*
Y-195580D02*
D03*
Y-182880D02*
D03*
Y-170180D02*
D03*
X-100640Y-208280D02*
D03*
Y-195580D02*
D03*
Y-182880D02*
D03*
Y-170180D02*
D03*
D35*
X-11430Y-208381D02*
D03*
Y-195580D02*
D03*
D36*
X-236892Y-306410D02*
D03*
Y-299910D02*
D03*
Y-293410D02*
D03*
Y-286910D02*
D03*
Y-280410D02*
D03*
Y-273910D02*
D03*
Y-267410D02*
D03*
Y-260910D02*
D03*
X-294207Y-306410D02*
D03*
Y-299910D02*
D03*
Y-293410D02*
D03*
Y-286910D02*
D03*
Y-280410D02*
D03*
Y-273910D02*
D03*
Y-267410D02*
D03*
Y-260910D02*
D03*
D37*
X-416680Y-466091D02*
D03*
Y-422090D02*
D03*
D38*
X-233070Y-190850D02*
D03*
X-252070D02*
D03*
X-242570Y-215550D02*
D03*
D39*
X-138430Y-140910D02*
D03*
Y-196910D02*
D03*
D40*
X-425520Y-276040D02*
D03*
X-416020D02*
D03*
X-406520D02*
D03*
Y-246040D02*
D03*
X-425520D02*
D03*
D41*
X-360800Y-282390D02*
D03*
Y-227526D02*
D03*
X-348100Y-282390D02*
D03*
X-335400D02*
D03*
X-348100Y-227526D02*
D03*
X-335400D02*
D03*
X-322700Y-282390D02*
D03*
Y-227526D02*
D03*
D42*
X-251190Y-156850D02*
D03*
Y-134850D02*
D03*
X-234190D02*
D03*
Y-156850D02*
D03*
D43*
X-296420Y-132530D02*
D03*
X-288020D02*
D03*
D44*
X-411600Y-143960D02*
D03*
X-427589Y-144030D02*
D03*
D45*
X-9450Y-30480D02*
D03*
X-79450D02*
D03*
D46*
X-331750Y-56330D02*
D03*
D47*
X-352781D02*
D03*
D48*
X-331750Y-81340D02*
D03*
Y-89740D02*
D03*
D94*
X-194430Y-356050D02*
D03*
X-179363D02*
D03*
Y-342080D02*
D03*
X-194430D02*
D03*
X-269360Y-404310D02*
D03*
X-254293D02*
D03*
Y-418280D02*
D03*
X-269360D02*
D03*
X-216193D02*
D03*
X-231260D02*
D03*
Y-404310D02*
D03*
X-216193D02*
D03*
X-232530Y-356050D02*
D03*
X-217463D02*
D03*
Y-342080D02*
D03*
X-232530D02*
D03*
X-254293D02*
D03*
X-269360D02*
D03*
Y-356050D02*
D03*
X-254293D02*
D03*
X-178093Y-418280D02*
D03*
X-193160D02*
D03*
Y-404310D02*
D03*
X-178093D02*
D03*
X-177733Y-199391D02*
D03*
X-192800D02*
D03*
X-110317Y-36830D02*
D03*
X-95250D02*
D03*
X-389924Y-223970D02*
D03*
X-374856D02*
D03*
X-261620Y-247650D02*
D03*
X-276687D02*
D03*
X-426667Y-157930D02*
D03*
X-411600D02*
D03*
X-411686Y-114750D02*
D03*
X-426754D02*
D03*
X-396274Y-93668D02*
D03*
X-381206D02*
D03*
X-396274Y-76650D02*
D03*
X-381206D02*
D03*
X-396360Y-61410D02*
D03*
X-381293D02*
D03*
D95*
X-225605Y-84289D02*
D03*
Y-99356D02*
D03*
X-239575Y-84289D02*
D03*
Y-99356D02*
D03*
X-267970Y-199563D02*
D03*
Y-214630D02*
D03*
X-217170Y-213360D02*
D03*
Y-198293D02*
D03*
X-307340Y-212263D02*
D03*
Y-227330D02*
D03*
X-373500Y-207287D02*
D03*
Y-192220D02*
D03*
X-387470Y-207287D02*
D03*
Y-192220D02*
D03*
X-335400Y-301613D02*
D03*
Y-316680D02*
D03*
X-348100Y-301613D02*
D03*
Y-316680D02*
D03*
X-378326Y-282898D02*
D03*
Y-267831D02*
D03*
D96*
X-320848Y-100780D02*
D03*
X-331750D02*
D03*
Y-70300D02*
D03*
X-320848D02*
D03*
D97*
X-331750Y-119830D02*
D03*
X-336750D02*
D03*
X-341750D02*
D03*
X-346750D02*
D03*
X-351750D02*
D03*
X-356750D02*
D03*
X-361750D02*
D03*
X-366750D02*
D03*
Y-169380D02*
D03*
X-361750D02*
D03*
X-356750D02*
D03*
X-351750D02*
D03*
X-346750D02*
D03*
X-341750D02*
D03*
X-336750D02*
D03*
X-331750D02*
D03*
D98*
X-374025Y-127105D02*
D03*
Y-132105D02*
D03*
Y-137105D02*
D03*
Y-142105D02*
D03*
Y-147105D02*
D03*
Y-152105D02*
D03*
Y-157105D02*
D03*
Y-162105D02*
D03*
X-324475D02*
D03*
Y-157105D02*
D03*
Y-152105D02*
D03*
Y-147105D02*
D03*
Y-142105D02*
D03*
Y-137105D02*
D03*
Y-132105D02*
D03*
Y-127105D02*
D03*
D99*
X-349250Y-144605D02*
D03*
D105*
X-137051Y-568527D02*
D03*
X-213505Y-568781D02*
D03*
D106*
X-256685Y-523569D02*
D03*
D107*
X-315359Y-466165D02*
D03*
X-314597Y-520267D02*
D03*
D108*
X-256685Y-491565D02*
D03*
D109*
X-226205D02*
D03*
X-200805Y-521283D02*
D03*
Y-491565D02*
D03*
X-175405D02*
D03*
X-150005Y-521283D02*
D03*
X-124605Y-491565D02*
D03*
X-150005Y-491565D02*
D03*
X-99205Y-521283D02*
D03*
Y-491565D02*
D03*
X-74567Y-491565D02*
D03*
Y-521283D02*
D03*
X-175405D02*
D03*
X-124605D02*
D03*
X-226205D02*
D03*
D110*
X-75050Y-92500D02*
D03*
D111*
Y-117500D02*
D03*
D112*
X-17970Y-411930D02*
D03*
X-42970Y-461930D02*
D03*
Y-361930D02*
D03*
X-144970Y-461930D02*
D03*
Y-361930D02*
D03*
X-17970Y-284930D02*
D03*
X-42970Y-334930D02*
D03*
Y-234930D02*
D03*
X-144970Y-334930D02*
D03*
Y-234930D02*
D03*
D113*
X-153470Y-11372D02*
D03*
X-113470D02*
D03*
X-173470D02*
D03*
X-133470D02*
D03*
D114*
X-93470D02*
D03*
D115*
X-418458Y-15690D02*
D03*
Y-41090D02*
D03*
Y-66490D02*
D03*
D116*
Y-91890D02*
D03*
M02*
