G04*
G04 #@! TF.GenerationSoftware,Altium Limited,Altium Designer,24.1.2 (44)*
G04*
G04 Layer_Color=8388736*
%FSLAX44Y44*%
%MOMM*%
G71*
G04*
G04 #@! TF.SameCoordinates,A828B434-B989-4348-A1B4-DAEA40B4C3D2*
G04*
G04*
G04 #@! TF.FilePolarity,Negative*
G04*
G01*
G75*
%ADD49R,0.9500X1.0500*%
%ADD50R,1.0500X0.9500*%
G04:AMPARAMS|DCode=51|XSize=1.21mm|YSize=0.65mm|CornerRadius=0.1375mm|HoleSize=0mm|Usage=FLASHONLY|Rotation=270.000|XOffset=0mm|YOffset=0mm|HoleType=Round|Shape=RoundedRectangle|*
%AMROUNDEDRECTD51*
21,1,1.2100,0.3750,0,0,270.0*
21,1,0.9350,0.6500,0,0,270.0*
1,1,0.2750,-0.1875,-0.4675*
1,1,0.2750,-0.1875,0.4675*
1,1,0.2750,0.1875,0.4675*
1,1,0.2750,0.1875,-0.4675*
%
%ADD51ROUNDEDRECTD51*%
%ADD52R,1.1016X0.9016*%
%ADD53R,0.9081X0.9656*%
%ADD54R,1.1016X0.8016*%
%ADD55R,1.7016X4.7016*%
%ADD56R,2.1016X2.1016*%
%ADD57R,3.3016X2.5016*%
%ADD58O,1.9016X0.6896*%
%ADD59R,0.8500X1.1500*%
%ADD60R,0.8500X1.0500*%
%ADD61O,1.9666X0.7316*%
%ADD62R,1.1216X0.7416*%
%ADD63O,1.8331X0.4446*%
%ADD64R,0.9656X0.9081*%
%ADD65R,2.1016X2.1016*%
%ADD66R,0.7016X1.1716*%
%ADD67R,0.9000X3.5000*%
%ADD68R,0.7500X1.6500*%
G04:AMPARAMS|DCode=69|XSize=0.7596mm|YSize=1.674mm|CornerRadius=0.1969mm|HoleSize=0mm|Usage=FLASHONLY|Rotation=180.000|XOffset=0mm|YOffset=0mm|HoleType=Round|Shape=RoundedRectangle|*
%AMROUNDEDRECTD69*
21,1,0.7596,1.2802,0,0,180.0*
21,1,0.3658,1.6740,0,0,180.0*
1,1,0.3938,-0.1829,0.6401*
1,1,0.3938,0.1829,0.6401*
1,1,0.3938,0.1829,-0.6401*
1,1,0.3938,-0.1829,-0.6401*
%
%ADD69ROUNDEDRECTD69*%
%ADD70R,1.3016X1.5016*%
%ADD71R,0.6416X0.6416*%
%ADD72R,0.6416X0.6416*%
%ADD73R,0.3816X0.7516*%
%ADD74R,0.7516X0.3816*%
%ADD75R,3.9016X3.9016*%
%ADD76R,0.9016X0.9016*%
%ADD77R,1.5500X1.2500*%
%ADD78R,0.6000X0.6000*%
%ADD79R,0.9500X0.6000*%
%ADD80R,0.6416X0.6416*%
%ADD81C,1.6740*%
%ADD82R,2.1500X2.1500*%
%ADD83R,4.7220X2.6900*%
%ADD84C,2.2540*%
%ADD85O,1.6500X1.9500*%
%ADD86O,1.7540X2.0540*%
%ADD87C,1.6000*%
%ADD88R,1.6000X1.6240*%
%ADD89C,2.3500*%
%ADD90C,1.5016*%
%ADD91R,1.5016X1.5016*%
%ADD92C,1.8016*%
%ADD93R,1.8016X1.8016*%
D49*
X-420850Y-313570D02*
D03*
X-406850D02*
D03*
X-420850Y-327540D02*
D03*
X-406850D02*
D03*
X-123840Y-114300D02*
D03*
X-109840D02*
D03*
X-369690Y-470350D02*
D03*
X-355690D02*
D03*
X-46990Y-153670D02*
D03*
X-32989D02*
D03*
X-369690Y-455110D02*
D03*
X-355690D02*
D03*
X-78740Y-153670D02*
D03*
X-64739D02*
D03*
X-138461Y-36830D02*
D03*
X-124460D02*
D03*
X-406850Y-299600D02*
D03*
X-420850D02*
D03*
X-411600Y-225820D02*
D03*
X-425601D02*
D03*
X-411600Y-211850D02*
D03*
X-425601D02*
D03*
X-411600Y-197880D02*
D03*
X-425601D02*
D03*
X-411600Y-183910D02*
D03*
X-425601D02*
D03*
X-337170Y-194310D02*
D03*
X-351170D02*
D03*
X-411600Y-128720D02*
D03*
X-425601D02*
D03*
D50*
X-273127Y-100709D02*
D03*
Y-86708D02*
D03*
X-26670Y-195580D02*
D03*
Y-209580D02*
D03*
X-104140Y-152400D02*
D03*
Y-138399D02*
D03*
X-362070Y-316680D02*
D03*
Y-302680D02*
D03*
X-321430Y-316680D02*
D03*
Y-302680D02*
D03*
X-378071Y-252306D02*
D03*
Y-238306D02*
D03*
X-274440Y-146469D02*
D03*
Y-160470D02*
D03*
Y-132530D02*
D03*
Y-118530D02*
D03*
X-288290Y-100980D02*
D03*
Y-86980D02*
D03*
X-354450Y-91270D02*
D03*
Y-77270D02*
D03*
D51*
X-171599Y-279170D02*
D03*
Y-302770D02*
D03*
X-171450Y-248920D02*
D03*
Y-225320D02*
D03*
D52*
X-194570Y-389680D02*
D03*
X-171570Y-380180D02*
D03*
X-194570Y-370679D02*
D03*
X-269360Y-451300D02*
D03*
X-246360Y-441800D02*
D03*
X-269360Y-432299D02*
D03*
X-231330Y-451300D02*
D03*
X-208330Y-441800D02*
D03*
X-231330Y-432299D02*
D03*
X-193300Y-451300D02*
D03*
X-170300Y-441800D02*
D03*
X-193300Y-432299D02*
D03*
X-232670Y-389680D02*
D03*
X-209670Y-380180D02*
D03*
X-232670Y-370679D02*
D03*
X-269500Y-389680D02*
D03*
X-246500Y-380180D02*
D03*
X-269500Y-370679D02*
D03*
X-209095Y-84289D02*
D03*
X-186095Y-93790D02*
D03*
X-209095Y-103290D02*
D03*
D53*
X-194430Y-356050D02*
D03*
X-179363D02*
D03*
Y-342080D02*
D03*
X-194430D02*
D03*
X-269360Y-404310D02*
D03*
X-254293D02*
D03*
Y-418280D02*
D03*
X-269360D02*
D03*
X-216193D02*
D03*
X-231260D02*
D03*
Y-404310D02*
D03*
X-216193D02*
D03*
X-232530Y-356050D02*
D03*
X-217463D02*
D03*
Y-342080D02*
D03*
X-232530D02*
D03*
X-254293D02*
D03*
X-269360D02*
D03*
Y-356050D02*
D03*
X-254293D02*
D03*
X-178093Y-418280D02*
D03*
X-193160D02*
D03*
Y-404310D02*
D03*
X-178093D02*
D03*
X-177733Y-199391D02*
D03*
X-192800D02*
D03*
X-110317Y-36830D02*
D03*
X-95250D02*
D03*
X-389924Y-223970D02*
D03*
X-374856D02*
D03*
X-261620Y-247650D02*
D03*
X-276687D02*
D03*
X-426667Y-157930D02*
D03*
X-411600D02*
D03*
X-411686Y-114750D02*
D03*
X-426754D02*
D03*
X-396274Y-93668D02*
D03*
X-381206D02*
D03*
X-396274Y-76650D02*
D03*
X-381206D02*
D03*
X-396360Y-61410D02*
D03*
X-381293D02*
D03*
D54*
X-246204Y-466350D02*
D03*
X-269656D02*
D03*
X-208104D02*
D03*
X-231556D02*
D03*
X-170004D02*
D03*
X-193456D02*
D03*
D55*
X-388740Y-563474D02*
D03*
Y-488986D02*
D03*
D56*
X-325689Y-430980D02*
D03*
X-369690D02*
D03*
D57*
X-318890Y-339232D02*
D03*
Y-399230D02*
D03*
D58*
X-369089Y-401770D02*
D03*
Y-389070D02*
D03*
Y-376370D02*
D03*
Y-363670D02*
D03*
X-421091Y-401770D02*
D03*
Y-389070D02*
D03*
Y-376370D02*
D03*
Y-363670D02*
D03*
X-151731Y-57150D02*
D03*
Y-69850D02*
D03*
Y-82550D02*
D03*
Y-95250D02*
D03*
X-99729Y-57150D02*
D03*
Y-69850D02*
D03*
Y-82550D02*
D03*
Y-95250D02*
D03*
D59*
X-186450Y-157481D02*
D03*
X-195950Y-131481D02*
D03*
X-176950D02*
D03*
X-198730Y-224190D02*
D03*
X-189230Y-250190D02*
D03*
X-208230D02*
D03*
X-199539Y-279170D02*
D03*
X-190039Y-305170D02*
D03*
X-209039D02*
D03*
D60*
X-192800Y-172721D02*
D03*
X-177800Y-172720D02*
D03*
Y-185420D02*
D03*
X-192800Y-185421D02*
D03*
X-189230Y-264160D02*
D03*
X-174230Y-264159D02*
D03*
X-214390Y-264161D02*
D03*
X-199390Y-264160D02*
D03*
X-189420Y-318531D02*
D03*
X-174420Y-318530D02*
D03*
X-199940Y-318529D02*
D03*
X-214940Y-318530D02*
D03*
D61*
X-46990Y-208280D02*
D03*
Y-195580D02*
D03*
Y-182880D02*
D03*
Y-170180D02*
D03*
X-100640Y-208280D02*
D03*
Y-195580D02*
D03*
Y-182880D02*
D03*
Y-170180D02*
D03*
D62*
X-11430Y-208381D02*
D03*
Y-195580D02*
D03*
D63*
X-236892Y-306410D02*
D03*
Y-299910D02*
D03*
Y-293410D02*
D03*
Y-286910D02*
D03*
Y-280410D02*
D03*
Y-273910D02*
D03*
Y-267410D02*
D03*
Y-260910D02*
D03*
X-294207Y-306410D02*
D03*
Y-299910D02*
D03*
Y-293410D02*
D03*
Y-286910D02*
D03*
Y-280410D02*
D03*
Y-273910D02*
D03*
Y-267410D02*
D03*
Y-260910D02*
D03*
D64*
X-225605Y-84289D02*
D03*
Y-99356D02*
D03*
X-239575Y-84289D02*
D03*
Y-99356D02*
D03*
X-267970Y-199563D02*
D03*
Y-214630D02*
D03*
X-217170Y-213360D02*
D03*
Y-198293D02*
D03*
X-307340Y-212263D02*
D03*
Y-227330D02*
D03*
X-373500Y-207287D02*
D03*
Y-192220D02*
D03*
X-387470Y-207287D02*
D03*
Y-192220D02*
D03*
X-335400Y-301613D02*
D03*
Y-316680D02*
D03*
X-348100Y-301613D02*
D03*
Y-316680D02*
D03*
X-378326Y-282898D02*
D03*
Y-267831D02*
D03*
D65*
X-416680Y-466091D02*
D03*
Y-422090D02*
D03*
D66*
X-233070Y-190850D02*
D03*
X-252070D02*
D03*
X-242570Y-215550D02*
D03*
D67*
X-138430Y-140910D02*
D03*
Y-196910D02*
D03*
D68*
X-425520Y-276040D02*
D03*
X-416020D02*
D03*
X-406520D02*
D03*
Y-246040D02*
D03*
X-425520D02*
D03*
D69*
X-360800Y-282390D02*
D03*
Y-227526D02*
D03*
X-348100Y-282390D02*
D03*
X-335400D02*
D03*
X-348100Y-227526D02*
D03*
X-335400D02*
D03*
X-322700Y-282390D02*
D03*
Y-227526D02*
D03*
D70*
X-251190Y-156850D02*
D03*
Y-134850D02*
D03*
X-234190D02*
D03*
Y-156850D02*
D03*
D71*
X-296420Y-132530D02*
D03*
X-288020D02*
D03*
D72*
X-320848Y-100780D02*
D03*
X-331750D02*
D03*
Y-70300D02*
D03*
X-320848D02*
D03*
D73*
X-331750Y-119830D02*
D03*
X-336750D02*
D03*
X-341750D02*
D03*
X-346750D02*
D03*
X-351750D02*
D03*
X-356750D02*
D03*
X-361750D02*
D03*
X-366750D02*
D03*
Y-169380D02*
D03*
X-361750D02*
D03*
X-356750D02*
D03*
X-351750D02*
D03*
X-346750D02*
D03*
X-341750D02*
D03*
X-336750D02*
D03*
X-331750D02*
D03*
D74*
X-374025Y-127105D02*
D03*
Y-132105D02*
D03*
Y-137105D02*
D03*
Y-142105D02*
D03*
Y-147105D02*
D03*
Y-152105D02*
D03*
Y-157105D02*
D03*
Y-162105D02*
D03*
X-324475D02*
D03*
Y-157105D02*
D03*
Y-152105D02*
D03*
Y-147105D02*
D03*
Y-142105D02*
D03*
Y-137105D02*
D03*
Y-132105D02*
D03*
Y-127105D02*
D03*
D75*
X-349250Y-144605D02*
D03*
D76*
X-411600Y-143960D02*
D03*
X-427589Y-144030D02*
D03*
D77*
X-9450Y-30480D02*
D03*
X-79450D02*
D03*
D78*
X-331750Y-56330D02*
D03*
D79*
X-352781D02*
D03*
D80*
X-331750Y-81340D02*
D03*
Y-89740D02*
D03*
D81*
X-137051Y-568527D02*
D03*
X-213505Y-568781D02*
D03*
D82*
X-256685Y-523569D02*
D03*
D83*
X-315359Y-466165D02*
D03*
X-314597Y-520267D02*
D03*
D84*
X-256685Y-491565D02*
D03*
D85*
X-226205D02*
D03*
X-200805Y-521283D02*
D03*
Y-491565D02*
D03*
X-150005Y-521283D02*
D03*
X-124605Y-491565D02*
D03*
X-99205Y-521283D02*
D03*
Y-491565D02*
D03*
X-74567Y-491565D02*
D03*
Y-521283D02*
D03*
X-175405D02*
D03*
X-124605D02*
D03*
X-226205D02*
D03*
D86*
X-175405Y-491565D02*
D03*
X-150005Y-491565D02*
D03*
D87*
X-75050Y-92500D02*
D03*
D88*
Y-117500D02*
D03*
D89*
X-17970Y-411930D02*
D03*
X-42970Y-461930D02*
D03*
Y-361930D02*
D03*
X-144970Y-461930D02*
D03*
Y-361930D02*
D03*
X-17970Y-284930D02*
D03*
X-42970Y-334930D02*
D03*
Y-234930D02*
D03*
X-144970Y-334930D02*
D03*
Y-234930D02*
D03*
D90*
X-153470Y-11372D02*
D03*
X-113470D02*
D03*
X-173470D02*
D03*
X-133470D02*
D03*
D91*
X-93470D02*
D03*
D92*
X-418458Y-15690D02*
D03*
Y-41090D02*
D03*
Y-66490D02*
D03*
D93*
Y-91890D02*
D03*
M02*
