G04*
G04 #@! TF.GenerationSoftware,Altium Limited,Altium Designer,24.1.2 (44)*
G04*
G04 Layer_Physical_Order=1*
G04 Layer_Color=255*
%FSLAX44Y44*%
%MOMM*%
G71*
G04*
G04 #@! TF.SameCoordinates,A828B434-B989-4348-A1B4-DAEA40B4C3D2*
G04*
G04*
G04 #@! TF.FilePolarity,Positive*
G04*
G01*
G75*
%ADD10C,0.2540*%
%ADD17C,0.1524*%
%ADD18C,0.1778*%
%ADD23R,0.8000X0.9000*%
%ADD24R,0.9000X0.8000*%
G04:AMPARAMS|DCode=25|XSize=1.06mm|YSize=0.5mm|CornerRadius=0.0625mm|HoleSize=0mm|Usage=FLASHONLY|Rotation=270.000|XOffset=0mm|YOffset=0mm|HoleType=Round|Shape=RoundedRectangle|*
%AMROUNDEDRECTD25*
21,1,1.0600,0.3750,0,0,270.0*
21,1,0.9350,0.5000,0,0,270.0*
1,1,0.1250,-0.1875,-0.4675*
1,1,0.1250,-0.1875,0.4675*
1,1,0.1250,0.1875,0.4675*
1,1,0.1250,0.1875,-0.4675*
%
%ADD25ROUNDEDRECTD25*%
%ADD26R,1.0000X0.8000*%
%ADD27R,1.0000X0.7000*%
%ADD28R,1.6000X4.6000*%
%ADD29R,2.0000X2.0000*%
%ADD30R,3.2000X2.4000*%
%ADD31O,1.8000X0.5880*%
%ADD32R,0.7000X1.0000*%
%ADD33R,0.7000X0.9000*%
%ADD34O,1.8650X0.6300*%
%ADD35R,1.0200X0.6400*%
%ADD36O,1.7315X0.3430*%
%ADD37R,2.0000X2.0000*%
%ADD38R,0.6000X1.0700*%
%ADD39R,0.8000X3.4000*%
%ADD40R,0.6000X1.5000*%
G04:AMPARAMS|DCode=41|XSize=0.6096mm|YSize=1.524mm|CornerRadius=0.1219mm|HoleSize=0mm|Usage=FLASHONLY|Rotation=180.000|XOffset=0mm|YOffset=0mm|HoleType=Round|Shape=RoundedRectangle|*
%AMROUNDEDRECTD41*
21,1,0.6096,1.2802,0,0,180.0*
21,1,0.3658,1.5240,0,0,180.0*
1,1,0.2438,-0.1829,0.6401*
1,1,0.2438,0.1829,0.6401*
1,1,0.2438,0.1829,-0.6401*
1,1,0.2438,-0.1829,-0.6401*
%
%ADD41ROUNDEDRECTD41*%
%ADD42R,1.2000X1.4000*%
%ADD43R,0.5400X0.5400*%
%ADD44R,0.8000X0.8000*%
%ADD45R,1.4000X1.1000*%
%ADD46R,0.4500X0.4500*%
%ADD47R,0.8000X0.4500*%
%ADD48R,0.5400X0.5400*%
%ADD94R,0.8065X0.8640*%
%ADD95R,0.8640X0.8065*%
%ADD96R,0.5400X0.5400*%
%ADD97R,0.2800X0.6500*%
%ADD98R,0.6500X0.2800*%
%ADD99R,3.8000X3.8000*%
%ADD100C,0.3810*%
%ADD101C,0.6350*%
%ADD102C,0.5080*%
%ADD103C,0.8890*%
%ADD104C,0.7620*%
%ADD105C,1.5240*%
%ADD106R,2.0000X2.0000*%
%ADD107R,4.5720X2.5400*%
%ADD108C,2.0000*%
%ADD109O,1.5000X1.8000*%
%ADD110C,1.5000*%
%ADD111R,1.5000X1.5240*%
%ADD112C,2.2000*%
%ADD113C,1.4000*%
%ADD114R,1.4000X1.4000*%
%ADD115C,1.7000*%
%ADD116R,1.7000X1.7000*%
%ADD117C,0.5080*%
%ADD118C,1.5000*%
%ADD119C,0.6096*%
G36*
X-101740Y-3102D02*
X-101740Y-4094D01*
Y-15979D01*
X-109841Y-24080D01*
X-162560D01*
X-163551Y-24277D01*
X-164391Y-24839D01*
X-174551Y-34999D01*
X-175113Y-35839D01*
X-175310Y-36830D01*
Y-53537D01*
X-197781Y-76009D01*
X-198343Y-76849D01*
X-198540Y-77840D01*
Y-122070D01*
X-199713Y-122556D01*
X-208530Y-113739D01*
X-209370Y-113177D01*
X-210361Y-112980D01*
X-244037D01*
X-258472Y-98546D01*
X-259312Y-97984D01*
X-260303Y-97787D01*
X-267357D01*
Y-95439D01*
X-278897D01*
Y-97787D01*
X-282520D01*
Y-95710D01*
X-294060D01*
Y-101834D01*
X-306631Y-114405D01*
X-306631Y-114405D01*
X-318677Y-126451D01*
X-319850Y-125965D01*
Y-125705D01*
X-319955Y-125452D01*
Y-124435D01*
X-320972D01*
X-321225Y-124330D01*
X-327725D01*
X-328516Y-123871D01*
X-328975Y-123080D01*
Y-117149D01*
X-328078Y-116252D01*
X-327675Y-115280D01*
X-327675Y-115280D01*
Y-87040D01*
X-327675Y-87040D01*
X-327780Y-86787D01*
X-327780Y-85770D01*
X-327780Y-84293D01*
X-327675Y-84040D01*
X-327675Y-84040D01*
Y-58848D01*
X-327496Y-58580D01*
X-198748D01*
Y-2824D01*
X-177745D01*
X-177404Y-4094D01*
X-178548Y-4754D01*
X-180088Y-6294D01*
X-181176Y-8180D01*
X-181740Y-10283D01*
Y-12461D01*
X-181176Y-14564D01*
X-180088Y-16450D01*
X-178548Y-17990D01*
X-176662Y-19078D01*
X-174559Y-19642D01*
X-172381D01*
X-170278Y-19078D01*
X-168392Y-17990D01*
X-166852Y-16450D01*
X-165763Y-14564D01*
X-165200Y-12461D01*
Y-10283D01*
X-165763Y-8180D01*
X-166852Y-6294D01*
X-168392Y-4754D01*
X-169535Y-4094D01*
X-169195Y-2824D01*
X-157745D01*
X-157404Y-4094D01*
X-158548Y-4754D01*
X-160088Y-6294D01*
X-161176Y-8180D01*
X-161740Y-10283D01*
Y-12461D01*
X-161176Y-14564D01*
X-160088Y-16450D01*
X-158548Y-17990D01*
X-156662Y-19078D01*
X-154559Y-19642D01*
X-152381D01*
X-150278Y-19078D01*
X-148392Y-17990D01*
X-146852Y-16450D01*
X-145764Y-14564D01*
X-145200Y-12461D01*
Y-10283D01*
X-145764Y-8180D01*
X-146852Y-6294D01*
X-148392Y-4754D01*
X-149535Y-4094D01*
X-149195Y-2824D01*
X-137745D01*
X-137405Y-4094D01*
X-138548Y-4754D01*
X-140088Y-6294D01*
X-141176Y-8180D01*
X-141740Y-10283D01*
Y-12461D01*
X-141176Y-14564D01*
X-140088Y-16450D01*
X-138548Y-17990D01*
X-136662Y-19078D01*
X-134559Y-19642D01*
X-132381D01*
X-130278Y-19078D01*
X-128392Y-17990D01*
X-126852Y-16450D01*
X-125764Y-14564D01*
X-125200Y-12461D01*
Y-10283D01*
X-125764Y-8180D01*
X-126852Y-6294D01*
X-128392Y-4754D01*
X-129535Y-4094D01*
X-129195Y-2824D01*
X-102895D01*
X-101740Y-3102D01*
D02*
G37*
G36*
X-2824Y-588176D02*
X-134494D01*
X-134619Y-586906D01*
X-131655Y-586316D01*
X-128288Y-584922D01*
X-125258Y-582897D01*
X-122682Y-580320D01*
X-120657Y-577290D01*
X-119262Y-573923D01*
X-118551Y-570349D01*
Y-566705D01*
X-119262Y-563131D01*
X-120657Y-559764D01*
X-122682Y-556734D01*
X-125258Y-554157D01*
X-128288Y-552133D01*
X-129538Y-551615D01*
X-129286Y-550345D01*
X-59556D01*
X-57326Y-549901D01*
X-55436Y-548638D01*
X-38850Y-532052D01*
X-37587Y-530162D01*
X-37143Y-527932D01*
Y-472734D01*
X-35436Y-471749D01*
X-33152Y-469464D01*
X-31536Y-466666D01*
X-30700Y-463545D01*
Y-460315D01*
X-31536Y-457194D01*
X-33152Y-454396D01*
X-35436Y-452112D01*
X-38234Y-450496D01*
X-41355Y-449660D01*
X-44585D01*
X-47278Y-450382D01*
X-66871Y-430788D01*
X-12510Y-376426D01*
X-11247Y-374536D01*
X-10803Y-372306D01*
Y-339394D01*
X-11247Y-337164D01*
X-12510Y-335273D01*
X-16973Y-330810D01*
X-18864Y-329547D01*
X-21094Y-329103D01*
X-32166D01*
X-33152Y-327396D01*
X-35436Y-325112D01*
X-38234Y-323496D01*
X-41355Y-322660D01*
X-44585D01*
X-47706Y-323496D01*
X-47996Y-323663D01*
X-133210Y-238449D01*
X-132700Y-236545D01*
Y-233315D01*
X-133536Y-230194D01*
X-135152Y-227396D01*
X-137436Y-225112D01*
X-140234Y-223496D01*
X-141557Y-223142D01*
X-141390Y-221872D01*
X-136121D01*
X-121231Y-236761D01*
X-120391Y-237323D01*
X-119400Y-237520D01*
X-54979D01*
X-54404Y-239666D01*
X-52788Y-242464D01*
X-50504Y-244748D01*
X-47706Y-246364D01*
X-44585Y-247200D01*
X-41355D01*
X-38234Y-246364D01*
X-35436Y-244748D01*
X-33152Y-242464D01*
X-31536Y-239666D01*
X-30700Y-236545D01*
Y-233315D01*
X-31536Y-230194D01*
X-33152Y-227396D01*
X-35436Y-225112D01*
X-38234Y-223496D01*
X-41355Y-222660D01*
X-44585D01*
X-47706Y-223496D01*
X-50504Y-225112D01*
X-52788Y-227396D01*
X-54404Y-230194D01*
X-54979Y-232340D01*
X-118327D01*
X-133217Y-217451D01*
X-134057Y-216889D01*
X-135048Y-216692D01*
X-167587D01*
X-168578Y-216889D01*
X-169418Y-217451D01*
X-170680Y-218713D01*
X-173325D01*
X-174064Y-218860D01*
X-174691Y-219279D01*
X-175110Y-219906D01*
X-175257Y-220645D01*
Y-222730D01*
X-193960D01*
Y-217920D01*
X-203500D01*
Y-230460D01*
X-193960D01*
Y-227910D01*
X-175257D01*
Y-229995D01*
X-175110Y-230734D01*
X-174691Y-231361D01*
X-174064Y-231780D01*
X-173325Y-231927D01*
X-169575D01*
X-168836Y-231780D01*
X-168209Y-231361D01*
X-167790Y-230734D01*
X-167643Y-229995D01*
Y-223000D01*
X-166514Y-221872D01*
X-148550D01*
X-148383Y-223142D01*
X-149706Y-223496D01*
X-152504Y-225112D01*
X-154788Y-227396D01*
X-156404Y-230194D01*
X-157187Y-233118D01*
X-161685D01*
X-162924Y-233364D01*
X-163974Y-234066D01*
X-172221Y-242313D01*
X-173325D01*
X-174064Y-242460D01*
X-174691Y-242879D01*
X-175110Y-243506D01*
X-175257Y-244245D01*
Y-253595D01*
X-175110Y-254334D01*
X-174691Y-254961D01*
X-174064Y-255380D01*
X-173325Y-255527D01*
X-171366D01*
X-167067Y-259826D01*
Y-272774D01*
X-168263Y-273137D01*
X-168358Y-273129D01*
X-168984Y-272710D01*
X-169724Y-272563D01*
X-173474D01*
X-174213Y-272710D01*
X-174840Y-273129D01*
X-175259Y-273756D01*
X-175406Y-274495D01*
Y-283845D01*
X-175259Y-284584D01*
X-174840Y-285211D01*
X-174213Y-285630D01*
X-173474Y-285777D01*
X-169724D01*
X-168984Y-285630D01*
X-168358Y-285211D01*
X-167939Y-284584D01*
X-167792Y-283845D01*
Y-280048D01*
X-166062D01*
X-164823Y-279802D01*
X-163773Y-279100D01*
X-161541Y-276868D01*
X-160839Y-275818D01*
X-160593Y-274579D01*
Y-258485D01*
X-160839Y-257246D01*
X-161541Y-256196D01*
X-167643Y-250094D01*
Y-246891D01*
X-160344Y-239592D01*
X-156424D01*
X-156404Y-239666D01*
X-154788Y-242464D01*
X-152504Y-244748D01*
X-149706Y-246364D01*
X-146585Y-247200D01*
X-143355D01*
X-141451Y-246690D01*
X-55153Y-332988D01*
X-55240Y-333315D01*
Y-336545D01*
X-54404Y-339666D01*
X-52788Y-342464D01*
X-50504Y-344748D01*
X-47706Y-346364D01*
X-44585Y-347200D01*
X-41355D01*
X-38234Y-346364D01*
X-35436Y-344748D01*
X-33152Y-342464D01*
X-32166Y-340757D01*
X-23507D01*
X-22457Y-341807D01*
Y-369892D01*
X-75112Y-422547D01*
X-132999Y-364661D01*
X-132700Y-363545D01*
Y-360315D01*
X-133536Y-357194D01*
X-135152Y-354396D01*
X-137436Y-352112D01*
X-140234Y-350496D01*
X-143355Y-349660D01*
X-146585D01*
X-149706Y-350496D01*
X-152504Y-352112D01*
X-154788Y-354396D01*
X-156404Y-357194D01*
X-157240Y-360315D01*
Y-363545D01*
X-156404Y-366666D01*
X-154788Y-369464D01*
X-152504Y-371749D01*
X-149706Y-373364D01*
X-146585Y-374200D01*
X-143355D01*
X-140662Y-373479D01*
X-79232Y-434908D01*
X-54941Y-459199D01*
X-55240Y-460315D01*
Y-463545D01*
X-54404Y-466666D01*
X-52788Y-469464D01*
X-50504Y-471749D01*
X-48797Y-472734D01*
Y-525518D01*
X-61970Y-538691D01*
X-231260D01*
X-233490Y-539135D01*
X-235380Y-540398D01*
X-238246Y-543263D01*
X-343846D01*
X-352313Y-534796D01*
Y-501199D01*
X-331353Y-480240D01*
X-292499D01*
X-292247Y-480135D01*
X-291229D01*
Y-479118D01*
X-291125Y-478865D01*
Y-470636D01*
X-291119Y-470628D01*
X-290227Y-468475D01*
X-289923Y-466165D01*
X-290227Y-463855D01*
X-291119Y-461702D01*
X-291125Y-461694D01*
Y-453465D01*
X-291229Y-453213D01*
Y-452195D01*
X-292247D01*
X-292499Y-452091D01*
X-302634D01*
X-314314Y-440411D01*
Y-420980D01*
X-314419Y-420727D01*
Y-419710D01*
X-315436D01*
X-315689Y-419605D01*
X-335689D01*
X-335941Y-419710D01*
X-336959D01*
Y-420727D01*
X-337063Y-420980D01*
Y-440411D01*
X-339191Y-442539D01*
X-339594Y-443511D01*
X-339594Y-443511D01*
Y-461694D01*
X-339600Y-461702D01*
X-340492Y-463855D01*
X-340796Y-466165D01*
X-340492Y-468475D01*
X-339600Y-470628D01*
X-339594Y-470636D01*
Y-471999D01*
X-362260Y-494666D01*
X-363523Y-496556D01*
X-363967Y-498786D01*
Y-537210D01*
X-363523Y-539440D01*
X-362260Y-541330D01*
X-350380Y-553210D01*
X-348490Y-554473D01*
X-346260Y-554917D01*
X-235832D01*
X-233602Y-554473D01*
X-231712Y-553210D01*
X-228846Y-550345D01*
X-220658D01*
X-220405Y-551615D01*
X-222268Y-552387D01*
X-225298Y-554411D01*
X-227875Y-556988D01*
X-229900Y-560018D01*
X-231294Y-563385D01*
X-232005Y-566959D01*
Y-570603D01*
X-231294Y-574178D01*
X-229900Y-577544D01*
X-227875Y-580574D01*
X-225298Y-583151D01*
X-222268Y-585176D01*
X-218902Y-586570D01*
X-217215Y-586906D01*
X-217340Y-588176D01*
X-434176D01*
Y-2824D01*
X-372484D01*
Y-58586D01*
X-358686D01*
X-358674Y-58616D01*
X-357341D01*
X-357312Y-58586D01*
Y-4586D01*
X-307312D01*
Y-30986D01*
X-287312D01*
Y-4586D01*
X-260312D01*
Y-30986D01*
X-240312D01*
Y-4586D01*
X-213312D01*
Y-48986D01*
X-218312D01*
Y-9586D01*
X-235312D01*
Y-35986D01*
X-265312D01*
Y-9586D01*
X-282312D01*
Y-35986D01*
X-312312D01*
Y-9586D01*
X-329312D01*
Y-58586D01*
X-329050Y-58848D01*
Y-84040D01*
X-329050Y-84040D01*
X-334450D01*
Y-58725D01*
X-334312Y-58586D01*
Y-9586D01*
X-348312D01*
Y-58586D01*
X-346937D01*
Y-58580D01*
X-335921D01*
X-335825Y-58725D01*
Y-84040D01*
X-335720Y-84293D01*
X-335720Y-85310D01*
X-335720Y-86787D01*
X-335825Y-87040D01*
Y-103480D01*
X-335825Y-103480D01*
Y-115205D01*
X-339160D01*
Y-97670D01*
X-339357Y-96679D01*
X-339919Y-95839D01*
X-343609Y-92149D01*
X-344449Y-91587D01*
X-345440Y-91390D01*
X-348680D01*
Y-86000D01*
X-360220D01*
Y-88680D01*
X-363907D01*
X-369329Y-83259D01*
X-370169Y-82697D01*
X-371160Y-82500D01*
X-374742D01*
X-375646Y-82298D01*
X-375694Y-81012D01*
X-374634Y-80304D01*
X-374258Y-80460D01*
X-372742D01*
X-371342Y-79880D01*
X-370901Y-79439D01*
X-370071Y-78930D01*
X-369241Y-79439D01*
X-368800Y-79880D01*
X-367400Y-80460D01*
X-365884D01*
X-364484Y-79880D01*
X-363412Y-78808D01*
X-362832Y-77408D01*
Y-75892D01*
X-363412Y-74492D01*
X-364484Y-73420D01*
X-365884Y-72840D01*
X-367037D01*
X-375990Y-63887D01*
Y-55820D01*
X-386595D01*
Y-67000D01*
X-379103D01*
X-376314Y-69790D01*
X-376840Y-71060D01*
X-386509D01*
X-386509Y-82240D01*
X-387671Y-82500D01*
X-387983D01*
X-388974Y-82697D01*
X-389814Y-83259D01*
X-394634Y-88078D01*
X-401576D01*
Y-95596D01*
X-407418Y-101438D01*
X-408688Y-100912D01*
Y-82120D01*
X-428228D01*
Y-101660D01*
X-424175D01*
X-424050Y-102930D01*
X-424490Y-103017D01*
X-425330Y-103579D01*
X-428028Y-106277D01*
X-428589Y-107117D01*
X-428786Y-108108D01*
Y-109160D01*
X-432056D01*
Y-120340D01*
X-421451D01*
Y-118609D01*
X-420298D01*
X-418898Y-118029D01*
X-418259Y-117390D01*
X-416989Y-117916D01*
Y-120340D01*
X-413801D01*
Y-122950D01*
X-416870D01*
Y-134490D01*
X-406330D01*
Y-122950D01*
X-409399D01*
Y-120340D01*
X-406384D01*
Y-116951D01*
X-404249D01*
X-403401Y-118221D01*
X-403635Y-118786D01*
Y-120302D01*
X-403055Y-121702D01*
X-401983Y-122774D01*
X-400583Y-123354D01*
X-399067D01*
X-397667Y-122774D01*
X-396638Y-121745D01*
X-385333D01*
X-384525Y-123015D01*
X-384810Y-123702D01*
Y-125218D01*
X-384230Y-126618D01*
X-383349Y-127499D01*
X-383240Y-128243D01*
X-383349Y-128986D01*
X-384230Y-129867D01*
X-384810Y-131267D01*
Y-131932D01*
X-384893Y-132024D01*
X-386080Y-132564D01*
X-386479Y-132297D01*
X-387470Y-132100D01*
X-394588D01*
X-395579Y-132297D01*
X-396419Y-132858D01*
X-399472Y-135911D01*
X-400033Y-136751D01*
X-400230Y-137742D01*
Y-174318D01*
X-405052Y-179139D01*
X-405078Y-179140D01*
X-406330Y-178622D01*
Y-178140D01*
X-407347D01*
X-407600Y-178035D01*
X-413812D01*
X-421300Y-170547D01*
X-421301Y-170542D01*
X-421709Y-169932D01*
X-421664Y-169823D01*
Y-168308D01*
X-422244Y-166907D01*
X-423316Y-165836D01*
X-424716Y-165256D01*
X-426232D01*
X-427632Y-165836D01*
X-428704Y-166907D01*
X-429284Y-168308D01*
Y-169823D01*
X-428704Y-171224D01*
X-427632Y-172295D01*
X-426232Y-172876D01*
X-426041D01*
X-425525Y-173647D01*
X-416975Y-182198D01*
Y-227071D01*
X-427069Y-237165D01*
X-428520D01*
X-428773Y-237270D01*
X-429790D01*
Y-238287D01*
X-429895Y-238540D01*
Y-253540D01*
X-429790Y-253793D01*
Y-254810D01*
X-428773D01*
X-428520Y-254915D01*
X-422520D01*
X-422267Y-254810D01*
X-421250D01*
Y-253793D01*
X-421145Y-253540D01*
Y-250800D01*
X-420089Y-250094D01*
X-419858Y-250190D01*
X-418342D01*
X-416942Y-249610D01*
X-415870Y-248538D01*
X-415290Y-247138D01*
Y-245622D01*
X-415870Y-244222D01*
X-416816Y-243276D01*
X-417040Y-242823D01*
X-417225Y-241890D01*
X-406926Y-231590D01*
X-406330D01*
Y-230573D01*
X-406225Y-230320D01*
X-406225Y-230320D01*
Y-215087D01*
X-392320D01*
X-391082Y-214841D01*
X-390031Y-214139D01*
X-388482Y-212590D01*
X-381880D01*
Y-210525D01*
X-379090D01*
Y-212590D01*
X-367910D01*
Y-210525D01*
X-325397D01*
X-324159Y-210278D01*
X-323108Y-209576D01*
X-295839Y-182307D01*
X-285800D01*
Y-217384D01*
X-287070Y-218100D01*
X-287912Y-217752D01*
X-289427D01*
X-290828Y-218332D01*
X-291900Y-219403D01*
X-292480Y-220804D01*
X-293709Y-220705D01*
Y-217817D01*
X-292680Y-216788D01*
X-292100Y-215388D01*
Y-213872D01*
X-292680Y-212472D01*
X-293752Y-211400D01*
X-295152Y-210820D01*
X-296668D01*
X-298068Y-211400D01*
X-299140Y-212472D01*
X-299720Y-213872D01*
Y-215388D01*
X-299140Y-216788D01*
X-298111Y-217817D01*
Y-240927D01*
X-309799Y-252615D01*
X-310972Y-252129D01*
Y-251937D01*
X-311139Y-251095D01*
X-311617Y-250381D01*
X-314920Y-247077D01*
Y-245622D01*
X-315112Y-245160D01*
X-314263Y-243890D01*
X-310138D01*
X-309498Y-244530D01*
X-308098Y-245110D01*
X-306582D01*
X-305182Y-244530D01*
X-304110Y-243458D01*
X-303530Y-242058D01*
Y-240542D01*
X-304110Y-239142D01*
X-305182Y-238070D01*
X-306582Y-237490D01*
X-308098D01*
X-309498Y-238070D01*
X-310138Y-238710D01*
X-327388D01*
X-328379Y-238907D01*
X-329220Y-239469D01*
X-329832Y-240081D01*
X-345530D01*
Y-236317D01*
X-345300Y-236272D01*
X-344477Y-235721D01*
X-343926Y-234898D01*
X-343733Y-233927D01*
Y-221125D01*
X-343926Y-220154D01*
X-344477Y-219331D01*
X-345300Y-218780D01*
X-346271Y-218587D01*
X-349929D01*
X-350900Y-218780D01*
X-351723Y-219331D01*
X-352274Y-220154D01*
X-352467Y-221125D01*
Y-233927D01*
X-352274Y-234898D01*
X-351723Y-235721D01*
X-350900Y-236272D01*
X-350710Y-236309D01*
Y-240081D01*
X-368436D01*
X-369427Y-240278D01*
X-370267Y-240840D01*
X-370339Y-240947D01*
X-370447Y-241019D01*
X-376464Y-247036D01*
X-383841D01*
Y-249716D01*
X-395816D01*
X-396807Y-249914D01*
X-397648Y-250475D01*
X-400980Y-253808D01*
X-402250Y-253281D01*
Y-237270D01*
X-410790D01*
Y-254810D01*
X-403778D01*
X-403252Y-256080D01*
X-405604Y-258432D01*
X-406433Y-257603D01*
X-407693Y-256761D01*
X-409180Y-256465D01*
X-422910D01*
X-424397Y-256761D01*
X-425657Y-257603D01*
X-428197Y-260143D01*
X-429039Y-261403D01*
X-429335Y-262890D01*
Y-267270D01*
X-429790D01*
Y-284810D01*
X-421250D01*
Y-267270D01*
X-421565D01*
Y-264499D01*
X-421301Y-264235D01*
X-410789D01*
X-410405Y-264619D01*
Y-267270D01*
X-410790D01*
Y-274722D01*
X-411052Y-276040D01*
Y-293830D01*
X-412120D01*
Y-297200D01*
X-412233Y-297370D01*
X-412677Y-299600D01*
Y-313570D01*
Y-327485D01*
X-412672Y-327513D01*
X-412677Y-327540D01*
X-412233Y-329770D01*
X-412120Y-329940D01*
Y-333310D01*
X-409440D01*
Y-341580D01*
X-422652D01*
X-423292Y-340940D01*
X-424692Y-340360D01*
X-426208D01*
X-427608Y-340940D01*
X-428680Y-342012D01*
X-429260Y-343412D01*
Y-344928D01*
X-428680Y-346328D01*
X-427608Y-347400D01*
X-426208Y-347980D01*
X-424692D01*
X-423292Y-347400D01*
X-422652Y-346760D01*
X-407923D01*
X-403601Y-351081D01*
X-402761Y-351643D01*
X-401770Y-351840D01*
X-399680D01*
X-399680Y-351840D01*
X-361753D01*
X-359419Y-354174D01*
Y-369098D01*
X-362503Y-372182D01*
X-363029Y-372077D01*
X-375149D01*
X-376791Y-372404D01*
X-378184Y-373335D01*
X-379114Y-374727D01*
X-379441Y-376370D01*
X-379114Y-378013D01*
X-378184Y-379405D01*
X-376791Y-380336D01*
X-375149Y-380662D01*
X-363029D01*
X-361386Y-380336D01*
X-359994Y-379405D01*
X-359063Y-378013D01*
X-358736Y-376370D01*
X-358841Y-375844D01*
X-354998Y-372002D01*
X-354437Y-371161D01*
X-354239Y-370170D01*
Y-353101D01*
X-354437Y-352110D01*
X-354998Y-351270D01*
X-358849Y-347419D01*
X-359689Y-346857D01*
X-360680Y-346660D01*
X-399680D01*
X-399680Y-346660D01*
X-400697D01*
X-404260Y-343097D01*
Y-334756D01*
X-402990Y-334230D01*
X-393869Y-343352D01*
X-391978Y-344615D01*
X-389748Y-345059D01*
X-351790D01*
Y-384755D01*
X-388670D01*
X-388670Y-384755D01*
X-389642Y-385158D01*
X-415199Y-410715D01*
X-426680D01*
X-426933Y-410820D01*
X-427950D01*
Y-411837D01*
X-428055Y-412090D01*
Y-432090D01*
X-427950Y-432343D01*
Y-433360D01*
X-426933D01*
X-426680Y-433465D01*
X-406680D01*
X-406427Y-433360D01*
X-405410D01*
Y-432343D01*
X-405305Y-432090D01*
Y-418679D01*
X-380011Y-393385D01*
X-356589D01*
X-351790Y-398184D01*
Y-403860D01*
X-346114D01*
X-337772Y-412202D01*
X-336800Y-412605D01*
X-336800Y-412605D01*
X-302890D01*
X-302637Y-412500D01*
X-301620D01*
Y-411483D01*
X-301515Y-411230D01*
Y-403860D01*
X-285750D01*
Y-334010D01*
X-301620D01*
Y-327769D01*
X-301555Y-327715D01*
X-281939D01*
X-281097Y-327548D01*
X-280383Y-327070D01*
X-279757Y-326445D01*
X-269214D01*
X-268808Y-327426D01*
X-267736Y-328498D01*
X-266336Y-329078D01*
X-264820D01*
X-263419Y-328498D01*
X-262348Y-327426D01*
X-261768Y-326026D01*
Y-324510D01*
X-262348Y-323110D01*
X-263303Y-322155D01*
X-263272Y-322000D01*
X-262200Y-320928D01*
X-261620Y-319528D01*
Y-318012D01*
X-262200Y-316612D01*
X-263272Y-315540D01*
X-264672Y-314960D01*
X-266188D01*
X-267588Y-315540D01*
X-268660Y-316612D01*
X-269066Y-317593D01*
X-282512D01*
X-283355Y-317760D01*
X-284069Y-318237D01*
X-284694Y-318863D01*
X-298799D01*
X-310380Y-307282D01*
X-311094Y-306805D01*
X-311937Y-306637D01*
X-327165D01*
X-328007Y-306805D01*
X-328681Y-307255D01*
X-328898Y-307167D01*
X-329810Y-306575D01*
Y-296310D01*
X-332810D01*
Y-291177D01*
X-332600Y-291136D01*
X-331777Y-290585D01*
X-331226Y-289762D01*
X-331033Y-288791D01*
Y-275989D01*
X-331226Y-275018D01*
X-331379Y-274789D01*
X-330393Y-273980D01*
X-327067Y-277306D01*
Y-288791D01*
X-326874Y-289762D01*
X-326323Y-290585D01*
X-325500Y-291136D01*
X-324529Y-291329D01*
X-320871D01*
X-319900Y-291136D01*
X-319077Y-290585D01*
X-318526Y-289762D01*
X-318333Y-288791D01*
Y-275989D01*
X-318526Y-275018D01*
X-319077Y-274195D01*
X-319900Y-273644D01*
X-320871Y-273451D01*
X-323596D01*
X-331048Y-266000D01*
X-331888Y-265438D01*
X-332879Y-265241D01*
X-342703D01*
X-342956Y-263971D01*
X-342012Y-263580D01*
X-340940Y-262508D01*
X-340360Y-261108D01*
Y-259592D01*
X-340940Y-258192D01*
X-341969Y-257163D01*
Y-253642D01*
X-341057Y-252730D01*
X-339602D01*
X-338202Y-252150D01*
X-337130Y-251078D01*
X-336550Y-249678D01*
Y-248162D01*
X-337130Y-246762D01*
X-337361Y-246531D01*
X-336835Y-245261D01*
X-328759D01*
X-327768Y-245063D01*
X-326928Y-244502D01*
X-326315Y-243890D01*
X-323197D01*
X-322349Y-245160D01*
X-322540Y-245622D01*
Y-247138D01*
X-321960Y-248538D01*
X-320889Y-249610D01*
X-319488Y-250190D01*
X-318034D01*
X-315375Y-252849D01*
Y-276159D01*
X-315207Y-277001D01*
X-314730Y-277715D01*
X-310830Y-281615D01*
Y-288023D01*
X-310663Y-288865D01*
X-310186Y-289579D01*
X-305073Y-294692D01*
X-304359Y-295169D01*
X-303516Y-295337D01*
X-303453D01*
X-303302Y-295562D01*
X-302715Y-295954D01*
X-302684Y-296043D01*
Y-297277D01*
X-302715Y-297365D01*
X-303302Y-297758D01*
X-303962Y-298745D01*
X-304193Y-299910D01*
X-303962Y-301075D01*
X-303302Y-302062D01*
X-302715Y-302454D01*
X-302684Y-302544D01*
Y-303776D01*
X-302715Y-303866D01*
X-303302Y-304258D01*
X-303962Y-305245D01*
X-304193Y-306410D01*
X-303962Y-307575D01*
X-303302Y-308562D01*
X-302315Y-309222D01*
X-301150Y-309454D01*
X-290373D01*
Y-309662D01*
X-290176Y-310653D01*
X-289615Y-311493D01*
X-288127Y-312981D01*
X-287287Y-313543D01*
X-286296Y-313740D01*
X-269240D01*
X-268249Y-313543D01*
X-267409Y-312981D01*
X-264869Y-310441D01*
X-264307Y-309601D01*
X-264110Y-308610D01*
Y-277118D01*
X-263470Y-276478D01*
X-262890Y-275078D01*
Y-273562D01*
X-263470Y-272162D01*
X-264542Y-271090D01*
X-265942Y-270510D01*
X-267458D01*
X-268624Y-270993D01*
X-269343Y-269916D01*
X-260063Y-260637D01*
X-259586Y-259922D01*
X-259419Y-259080D01*
Y-253240D01*
X-256318D01*
Y-242060D01*
X-257736D01*
X-258114Y-241401D01*
X-258337Y-240790D01*
X-257810Y-239518D01*
Y-238002D01*
X-258390Y-236602D01*
X-259462Y-235530D01*
X-260862Y-234950D01*
X-262378D01*
X-263778Y-235530D01*
X-264850Y-236602D01*
X-265430Y-238002D01*
Y-239518D01*
X-264903Y-240790D01*
X-265126Y-241401D01*
X-265504Y-242060D01*
X-266922D01*
Y-253240D01*
X-263821D01*
Y-258168D01*
X-272766Y-267113D01*
X-273025Y-267072D01*
X-274097Y-265967D01*
Y-253240D01*
X-271385D01*
Y-242060D01*
X-278327D01*
X-280620Y-239767D01*
Y-238374D01*
X-279350Y-237848D01*
X-279018Y-238180D01*
X-277618Y-238760D01*
X-276102D01*
X-274702Y-238180D01*
X-273630Y-237108D01*
X-273050Y-235708D01*
Y-234192D01*
X-273630Y-232792D01*
X-274270Y-232152D01*
Y-224593D01*
X-269610Y-219932D01*
X-262380D01*
Y-209328D01*
X-273560D01*
Y-216558D01*
X-278691Y-221689D01*
X-279253Y-222529D01*
X-279350Y-223020D01*
X-280620Y-222895D01*
Y-182307D01*
X-243841D01*
X-237340Y-188808D01*
Y-196239D01*
X-237340Y-197171D01*
X-238449Y-197857D01*
X-242552Y-193755D01*
X-243267Y-193277D01*
X-244109Y-193110D01*
X-247800D01*
Y-184230D01*
X-256340D01*
X-256340Y-184230D01*
Y-184230D01*
X-257610Y-184445D01*
X-258322Y-184150D01*
X-259838D01*
X-261238Y-184730D01*
X-262310Y-185802D01*
X-262890Y-187202D01*
Y-188718D01*
X-262310Y-190118D01*
X-261238Y-191190D01*
X-259838Y-191770D01*
X-258322D01*
X-257610Y-191475D01*
X-256340Y-192268D01*
Y-197361D01*
X-262380D01*
Y-194260D01*
X-273560D01*
Y-204865D01*
X-262380D01*
Y-201764D01*
X-250929D01*
X-246380Y-206313D01*
Y-207768D01*
X-246259Y-208060D01*
X-246840Y-208930D01*
X-246840D01*
Y-222170D01*
X-238300D01*
Y-208930D01*
X-238300D01*
X-238881Y-208060D01*
X-238760Y-207768D01*
Y-206252D01*
X-239243Y-205086D01*
X-238166Y-204367D01*
X-227617Y-214916D01*
X-226902Y-215394D01*
X-226060Y-215561D01*
X-222760D01*
Y-218662D01*
X-211580D01*
Y-215561D01*
X-190142D01*
X-189517Y-216187D01*
X-188802Y-216664D01*
X-187960Y-216831D01*
X-171450D01*
X-170608Y-216664D01*
X-169893Y-216187D01*
X-158463Y-204757D01*
X-157986Y-204042D01*
X-157819Y-203200D01*
Y-158392D01*
X-156260Y-156833D01*
X-154990Y-157309D01*
Y-190242D01*
X-155630Y-190882D01*
X-156210Y-192282D01*
Y-193798D01*
X-155630Y-195198D01*
X-154558Y-196270D01*
X-153158Y-196850D01*
X-151642D01*
X-150242Y-196270D01*
X-149170Y-195198D01*
X-148590Y-193798D01*
Y-192282D01*
X-149170Y-190882D01*
X-149810Y-190242D01*
Y-130189D01*
X-136511Y-116890D01*
X-129110D01*
Y-120070D01*
X-118570D01*
Y-108530D01*
X-121250D01*
Y-88083D01*
X-118307Y-85140D01*
X-109122D01*
X-108824Y-85585D01*
X-107431Y-86516D01*
X-105789Y-86842D01*
X-93669D01*
X-92026Y-86516D01*
X-90634Y-85585D01*
X-89703Y-84193D01*
X-89376Y-82550D01*
X-89703Y-80907D01*
X-90634Y-79515D01*
X-92026Y-78584D01*
X-93669Y-78257D01*
X-105789D01*
X-107431Y-78584D01*
X-108824Y-79515D01*
X-109122Y-79960D01*
X-119380D01*
X-120371Y-80157D01*
X-121211Y-80719D01*
X-125672Y-85179D01*
X-126233Y-86019D01*
X-126430Y-87010D01*
Y-108530D01*
X-129110D01*
Y-111710D01*
X-137584D01*
X-138575Y-111907D01*
X-139415Y-112469D01*
X-154009Y-127063D01*
X-154875Y-126848D01*
X-155279Y-126574D01*
Y-99543D01*
X-145671D01*
X-144029Y-99216D01*
X-142636Y-98285D01*
X-142079Y-97451D01*
X-138430D01*
X-137588Y-97284D01*
X-136874Y-96806D01*
X-134333Y-94267D01*
X-133856Y-93552D01*
X-133689Y-92710D01*
Y-73660D01*
X-133856Y-72818D01*
X-134333Y-72104D01*
X-138144Y-68293D01*
X-138858Y-67816D01*
X-139700Y-67649D01*
X-142079D01*
X-142636Y-66815D01*
X-144029Y-65884D01*
X-145671Y-65557D01*
X-157791D01*
X-159434Y-65884D01*
X-160826Y-66815D01*
X-161757Y-68207D01*
X-162084Y-69850D01*
X-161757Y-71493D01*
X-160826Y-72885D01*
X-159434Y-73816D01*
X-157791Y-74142D01*
X-145671D01*
X-144029Y-73816D01*
X-142636Y-72885D01*
X-142079Y-72051D01*
X-140612D01*
X-138091Y-74572D01*
Y-91798D01*
X-139342Y-93049D01*
X-142079D01*
X-142636Y-92215D01*
X-144029Y-91284D01*
X-145671Y-90957D01*
X-157791D01*
X-159434Y-91284D01*
X-160826Y-92215D01*
X-161757Y-93607D01*
X-162084Y-95250D01*
X-161757Y-96893D01*
X-160826Y-98285D01*
X-159681Y-99050D01*
Y-154028D01*
X-161576Y-155924D01*
X-162054Y-156638D01*
X-162221Y-157480D01*
Y-202288D01*
X-172362Y-212429D01*
X-174794D01*
X-175291Y-211159D01*
X-174570Y-210438D01*
X-173990Y-209038D01*
Y-207522D01*
X-174516Y-206251D01*
X-174292Y-205637D01*
X-173915Y-204981D01*
X-172430D01*
Y-193801D01*
X-183035D01*
Y-204981D01*
X-181685D01*
X-181308Y-205637D01*
X-181084Y-206251D01*
X-181610Y-207522D01*
Y-209038D01*
X-181030Y-210438D01*
X-180309Y-211159D01*
X-180806Y-212429D01*
X-187048D01*
X-187673Y-211803D01*
X-188388Y-211326D01*
X-189230Y-211159D01*
X-211580D01*
Y-208058D01*
X-222760D01*
Y-211159D01*
X-225148D01*
X-237727Y-198580D01*
X-237041Y-197470D01*
X-236194Y-197470D01*
X-228800D01*
Y-193786D01*
X-225340D01*
X-222760Y-196365D01*
Y-203595D01*
X-211580D01*
Y-200882D01*
X-207562D01*
X-206571Y-200685D01*
X-205731Y-200124D01*
X-200370Y-194763D01*
X-199808Y-193923D01*
X-199611Y-192932D01*
Y-140305D01*
X-197057Y-137751D01*
X-191431D01*
X-191180Y-137751D01*
X-190161Y-138358D01*
Y-145008D01*
X-189994Y-145851D01*
X-189517Y-146565D01*
X-188475Y-147606D01*
X-187761Y-148084D01*
X-186918Y-148251D01*
X-180987D01*
X-179958Y-149280D01*
X-178558Y-149860D01*
X-177042D01*
X-175642Y-149280D01*
X-174570Y-148208D01*
X-173990Y-146808D01*
Y-145292D01*
X-174570Y-143892D01*
X-175642Y-142820D01*
X-177042Y-142240D01*
X-178558D01*
X-179958Y-142820D01*
X-180987Y-143849D01*
X-185759D01*
Y-99060D01*
X-179825D01*
Y-88520D01*
X-192090D01*
X-192365Y-88520D01*
X-193360Y-87857D01*
Y-78913D01*
X-170889Y-56441D01*
X-170327Y-55601D01*
X-170130Y-54610D01*
Y-37903D01*
X-161487Y-29260D01*
X-108768D01*
X-107777Y-29063D01*
X-106937Y-28501D01*
X-98078Y-19642D01*
X-96060D01*
Y-31240D01*
X-100552D01*
X-100552Y-41454D01*
Y-41495D01*
Y-41495D01*
X-100552Y-41686D01*
X-100878Y-41821D01*
X-101822Y-42212D01*
X-105015Y-39019D01*
Y-31240D01*
X-115620D01*
Y-34629D01*
X-119190D01*
Y-31060D01*
X-129730D01*
Y-42600D01*
X-119190D01*
Y-39031D01*
X-115620D01*
Y-42420D01*
X-107840D01*
X-101714Y-48547D01*
X-101000Y-49024D01*
X-100157Y-49191D01*
X-85090D01*
X-84248Y-49024D01*
X-83533Y-48547D01*
X-77894Y-42906D01*
X-77416Y-42192D01*
X-77249Y-41350D01*
Y-37250D01*
X-71180D01*
Y-26823D01*
X-68688Y-24331D01*
X-68198Y-24820D01*
X-66798Y-25400D01*
X-65282D01*
X-63882Y-24820D01*
X-62810Y-23748D01*
X-62230Y-22348D01*
Y-20832D01*
X-62810Y-19432D01*
X-63882Y-18360D01*
X-65282Y-17780D01*
X-66798D01*
X-68198Y-18360D01*
X-69268Y-19430D01*
X-69902Y-19556D01*
X-70616Y-20033D01*
X-74293Y-23710D01*
X-87720D01*
Y-37250D01*
X-81651D01*
Y-40438D01*
X-86002Y-44789D01*
X-99246D01*
X-100344Y-43690D01*
X-99818Y-42420D01*
X-99627Y-42420D01*
Y-42420D01*
X-99587Y-42420D01*
X-89948D01*
Y-31240D01*
X-90880D01*
Y-19642D01*
X-85200D01*
Y-13962D01*
X-65901D01*
X-58470Y-21393D01*
Y-129237D01*
X-77133Y-147900D01*
X-84010D01*
Y-159440D01*
X-81330D01*
Y-170180D01*
X-81133Y-171171D01*
X-80571Y-172011D01*
X-67871Y-184711D01*
X-67031Y-185273D01*
X-66040Y-185470D01*
X-56750D01*
X-56352Y-186067D01*
X-54890Y-187043D01*
X-53165Y-187387D01*
X-40815D01*
X-39090Y-187043D01*
X-37628Y-186067D01*
X-36651Y-184605D01*
X-36308Y-182880D01*
X-36651Y-181155D01*
X-37628Y-179693D01*
X-39090Y-178717D01*
X-40815Y-178373D01*
X-53165D01*
X-54890Y-178717D01*
X-56352Y-179693D01*
X-56750Y-180290D01*
X-64967D01*
X-76150Y-169107D01*
Y-159440D01*
X-73470D01*
Y-151562D01*
X-54049Y-132141D01*
X-53487Y-131301D01*
X-53290Y-130310D01*
Y-20320D01*
X-53487Y-19329D01*
X-54049Y-18489D01*
X-62997Y-9541D01*
X-63837Y-8979D01*
X-64828Y-8782D01*
X-85200D01*
X-85200Y-3102D01*
X-84045Y-2824D01*
X-2824D01*
Y-588176D01*
D02*
G37*
G36*
X-246941Y-117401D02*
X-246101Y-117963D01*
X-245110Y-118160D01*
X-211434D01*
X-200720Y-128874D01*
Y-134089D01*
X-204032Y-137401D01*
X-204594Y-138241D01*
X-204791Y-139232D01*
Y-191859D01*
X-208635Y-195703D01*
X-211580D01*
Y-192990D01*
X-218810D01*
X-222435Y-189365D01*
X-223276Y-188803D01*
X-224267Y-188606D01*
X-228800D01*
Y-184230D01*
X-232762D01*
X-240211Y-176781D01*
X-241093Y-176191D01*
X-241080Y-175526D01*
X-240882Y-174921D01*
X-236309D01*
X-231873Y-179357D01*
X-231159Y-179834D01*
X-230317Y-180001D01*
X-215277D01*
X-214248Y-181030D01*
X-212848Y-181610D01*
X-211332D01*
X-209932Y-181030D01*
X-208860Y-179958D01*
X-208280Y-178558D01*
Y-177042D01*
X-208860Y-175642D01*
X-209932Y-174570D01*
X-211332Y-173990D01*
X-212848D01*
X-214248Y-174570D01*
X-215277Y-175599D01*
X-229405D01*
X-233840Y-171164D01*
X-234554Y-170686D01*
X-235397Y-170519D01*
X-289918D01*
X-309888Y-150549D01*
X-309903Y-150539D01*
X-310494Y-149563D01*
X-310338Y-148837D01*
X-310000Y-148020D01*
Y-146504D01*
X-310382Y-145582D01*
X-309713Y-144312D01*
X-303118D01*
X-299496Y-147935D01*
X-299496Y-147935D01*
X-298823Y-148384D01*
X-298030Y-148541D01*
X-298030Y-148541D01*
X-283838D01*
Y-169106D01*
X-222878D01*
Y-122116D01*
X-263772D01*
Y-110432D01*
X-283838D01*
Y-127378D01*
X-284050Y-128560D01*
X-291990D01*
Y-128560D01*
X-292450D01*
Y-128560D01*
X-300390D01*
Y-133570D01*
X-301853Y-135033D01*
X-318258D01*
X-318655Y-133948D01*
X-318664Y-133763D01*
X-302969Y-118068D01*
X-302969Y-118068D01*
X-291151Y-106250D01*
X-282520D01*
Y-102967D01*
X-278897D01*
Y-105979D01*
X-267357D01*
Y-102967D01*
X-261376D01*
X-246941Y-117401D01*
D02*
G37*
G36*
X-386509Y-89074D02*
Y-96216D01*
X-386844Y-96717D01*
X-387011Y-97559D01*
Y-106033D01*
X-388040Y-107062D01*
X-388620Y-108462D01*
Y-109978D01*
X-388081Y-111279D01*
X-388264Y-111797D01*
X-388666Y-112549D01*
X-406384D01*
Y-109160D01*
X-407051D01*
X-407176Y-107890D01*
X-406737Y-107803D01*
X-405897Y-107241D01*
X-397914Y-99258D01*
X-390971D01*
Y-91741D01*
X-387779Y-88548D01*
X-386509Y-89074D01*
D02*
G37*
G36*
X-329050Y-87040D02*
Y-115280D01*
X-330350Y-116580D01*
Y-123080D01*
X-333150D01*
Y-116580D01*
X-334450Y-115280D01*
Y-103480D01*
X-334450Y-103480D01*
Y-87040D01*
X-329050D01*
X-329050Y-87040D01*
D02*
G37*
G36*
X-335350Y-123080D02*
X-343150D01*
Y-116580D01*
X-335350D01*
Y-123080D01*
D02*
G37*
G36*
X-333150Y-124455D02*
X-330350D01*
X-329559Y-124914D01*
X-329100Y-125705D01*
Y-133505D01*
X-328995Y-133758D01*
Y-144775D01*
Y-154775D01*
Y-163626D01*
X-329075Y-164781D01*
X-330230Y-164860D01*
X-369420D01*
X-369463Y-163608D01*
Y-162616D01*
X-369505Y-162404D01*
Y-154775D01*
Y-144775D01*
Y-134775D01*
Y-125585D01*
X-369426Y-124430D01*
X-368270Y-124350D01*
X-343403D01*
X-343150Y-124455D01*
X-335350D01*
X-335097Y-124350D01*
X-333403D01*
X-333150Y-124455D01*
D02*
G37*
G36*
X-321225Y-133505D02*
X-327725D01*
Y-125705D01*
X-321225D01*
Y-133505D01*
D02*
G37*
G36*
X-292386Y-174277D02*
X-291958Y-174563D01*
X-292262Y-175833D01*
X-297180D01*
X-298419Y-176079D01*
X-299469Y-176781D01*
X-326738Y-204050D01*
X-364653D01*
X-365139Y-202877D01*
X-361389Y-199126D01*
X-360827Y-198286D01*
X-360630Y-197295D01*
Y-181999D01*
X-359360Y-181472D01*
X-353760Y-187073D01*
Y-188540D01*
X-356440D01*
Y-200080D01*
X-345900D01*
Y-188540D01*
X-348581D01*
Y-186000D01*
X-348778Y-185009D01*
X-349339Y-184169D01*
X-358337Y-175170D01*
X-357811Y-173900D01*
X-329080D01*
Y-166010D01*
X-329000Y-164855D01*
X-327845Y-164775D01*
X-320668D01*
Y-165546D01*
X-320088Y-166946D01*
X-319016Y-168018D01*
X-317616Y-168598D01*
X-316100D01*
X-314700Y-168018D01*
X-313628Y-166946D01*
X-313048Y-165546D01*
Y-164030D01*
X-313628Y-162630D01*
X-314548Y-161710D01*
X-314633Y-160978D01*
X-314548Y-160246D01*
X-313628Y-159326D01*
X-313048Y-157926D01*
Y-156410D01*
X-312209Y-155116D01*
X-311626Y-155037D01*
X-292386Y-174277D01*
D02*
G37*
G36*
X-393274Y-142604D02*
X-392202Y-143676D01*
X-390802Y-144256D01*
X-389286D01*
X-388602Y-143973D01*
X-388294Y-144179D01*
X-387452Y-144346D01*
X-386160D01*
X-385634Y-145616D01*
X-385880Y-145863D01*
X-386460Y-147263D01*
Y-148779D01*
X-385880Y-150179D01*
X-385306Y-150753D01*
X-385532Y-152221D01*
X-386043Y-152433D01*
X-387115Y-153505D01*
X-387695Y-154905D01*
Y-156421D01*
X-387656Y-156515D01*
X-389026Y-157885D01*
X-389504Y-158600D01*
X-389671Y-159442D01*
Y-186918D01*
X-393060D01*
Y-197522D01*
X-381880D01*
Y-188612D01*
X-380707Y-188127D01*
X-379090Y-189743D01*
Y-197522D01*
X-368906D01*
X-368380Y-198792D01*
X-371572Y-201985D01*
X-379090D01*
Y-204050D01*
X-381880D01*
Y-201985D01*
X-393060D01*
Y-208012D01*
X-393661Y-208613D01*
X-406225D01*
Y-185770D01*
X-405430D01*
X-404439Y-185573D01*
X-403599Y-185011D01*
X-395809Y-177222D01*
X-395248Y-176381D01*
X-395051Y-175390D01*
Y-141381D01*
X-393854Y-141204D01*
X-393274Y-142604D01*
D02*
G37*
G36*
X-407600Y-230320D02*
X-422520Y-245240D01*
Y-253540D01*
X-428520D01*
Y-238540D01*
X-426500D01*
X-415600Y-227640D01*
Y-179410D01*
X-407600D01*
Y-230320D01*
D02*
G37*
G36*
X-343359Y-246531D02*
X-343590Y-246762D01*
X-344170Y-248162D01*
Y-249617D01*
X-345727Y-251173D01*
X-346204Y-251888D01*
X-346371Y-252730D01*
Y-257163D01*
X-347400Y-258192D01*
X-347980Y-259592D01*
Y-261108D01*
X-347400Y-262508D01*
X-346328Y-263580D01*
X-345384Y-263971D01*
X-345637Y-265241D01*
X-372736D01*
Y-262528D01*
X-383916D01*
Y-273133D01*
X-372736D01*
Y-270420D01*
X-333952D01*
X-331562Y-272811D01*
X-332371Y-273797D01*
X-332600Y-273644D01*
X-333571Y-273451D01*
X-337229D01*
X-338200Y-273644D01*
X-339023Y-274195D01*
X-339574Y-275018D01*
X-339767Y-275989D01*
Y-288791D01*
X-339574Y-289762D01*
X-339023Y-290585D01*
X-338200Y-291136D01*
X-337990Y-291177D01*
Y-296310D01*
X-340990D01*
Y-306915D01*
X-331499D01*
X-330766Y-308185D01*
X-330825Y-308287D01*
X-341621D01*
X-342463Y-308455D01*
X-343177Y-308932D01*
X-345623Y-311378D01*
X-353690D01*
Y-314479D01*
X-356300D01*
Y-311410D01*
X-367840D01*
Y-321391D01*
X-369110Y-321917D01*
X-380950Y-310077D01*
Y-295910D01*
X-381147Y-294919D01*
X-381709Y-294079D01*
X-394875Y-280912D01*
Y-280883D01*
X-394280Y-280288D01*
X-393700Y-278888D01*
Y-277372D01*
X-394280Y-275972D01*
X-395352Y-274900D01*
X-396752Y-274320D01*
X-398268D01*
X-399668Y-274900D01*
X-400740Y-275972D01*
X-400743Y-275979D01*
X-401296Y-276006D01*
X-402038Y-275787D01*
X-402250Y-274722D01*
Y-267270D01*
X-402635D01*
Y-263010D01*
X-402672Y-262825D01*
X-394743Y-254896D01*
X-383841D01*
Y-257576D01*
X-372301D01*
Y-250199D01*
X-367363Y-245261D01*
X-343885D01*
X-343359Y-246531D01*
D02*
G37*
G36*
X-285386Y-242155D02*
X-285041Y-242671D01*
X-281990Y-245722D01*
Y-253240D01*
X-279277D01*
Y-264820D01*
X-284686D01*
X-284968Y-264493D01*
X-285113Y-263062D01*
X-284453Y-262075D01*
X-284222Y-260910D01*
X-284453Y-259745D01*
X-285113Y-258758D01*
X-286100Y-258098D01*
X-287265Y-257866D01*
X-300541D01*
X-301067Y-256597D01*
X-287113Y-242642D01*
X-286792Y-242162D01*
X-286513Y-242084D01*
X-285911Y-242060D01*
X-285386Y-242155D01*
D02*
G37*
G36*
X-269290Y-284168D02*
Y-307537D01*
X-270313Y-308560D01*
X-273729D01*
X-274255Y-307290D01*
X-274064Y-307099D01*
X-273484Y-305699D01*
Y-304183D01*
X-274064Y-302783D01*
X-275135Y-301711D01*
X-276536Y-301131D01*
X-277990D01*
X-280768Y-298353D01*
X-281482Y-297876D01*
X-282324Y-297709D01*
X-285187D01*
X-285700Y-297365D01*
X-285731Y-297277D01*
Y-296043D01*
X-285700Y-295954D01*
X-285113Y-295562D01*
X-284453Y-294575D01*
X-284222Y-293410D01*
X-284453Y-292245D01*
X-285113Y-291258D01*
X-285193Y-291205D01*
X-285306Y-289748D01*
X-284641Y-289111D01*
X-276750D01*
X-275907Y-288944D01*
X-275193Y-288466D01*
X-270661Y-283934D01*
X-270560Y-283783D01*
X-269290Y-284168D01*
D02*
G37*
G36*
X-400298Y-280995D02*
X-400055Y-281300D01*
Y-281985D01*
X-399857Y-282976D01*
X-399296Y-283816D01*
X-386130Y-296983D01*
Y-311150D01*
X-385933Y-312141D01*
X-385371Y-312981D01*
X-368861Y-329491D01*
X-368021Y-330053D01*
X-367030Y-330250D01*
X-345698D01*
X-345058Y-330890D01*
X-343658Y-331470D01*
X-342142D01*
X-340742Y-330890D01*
X-339670Y-329818D01*
X-339090Y-328418D01*
Y-326902D01*
X-339670Y-325502D01*
X-340742Y-324430D01*
X-342142Y-323850D01*
X-343658D01*
X-345058Y-324430D01*
X-345698Y-325070D01*
X-365957D01*
X-367808Y-323220D01*
X-367281Y-321950D01*
X-356300D01*
Y-318881D01*
X-353690D01*
Y-321982D01*
X-342510D01*
Y-315375D01*
X-342260Y-315208D01*
X-340990Y-315887D01*
Y-321982D01*
X-329810D01*
Y-318881D01*
X-327200D01*
Y-321950D01*
X-315660D01*
Y-316218D01*
X-314390Y-315791D01*
X-305393Y-324788D01*
X-305879Y-325962D01*
X-336160D01*
Y-333405D01*
X-387335D01*
X-397265Y-323475D01*
X-399155Y-322212D01*
X-401023Y-321840D01*
Y-313570D01*
Y-299600D01*
X-401467Y-297370D01*
X-401580Y-297200D01*
Y-293830D01*
X-401988D01*
Y-281146D01*
X-400718Y-280657D01*
X-400298Y-280995D01*
D02*
G37*
G36*
X-334890Y-387230D02*
X-302890D01*
Y-411230D01*
X-336800D01*
X-356020Y-392010D01*
X-380580D01*
X-406680Y-418110D01*
Y-432090D01*
X-426680D01*
Y-412090D01*
X-414630D01*
X-388670Y-386130D01*
X-335990D01*
X-334890Y-387230D01*
D02*
G37*
G36*
X-315689Y-440980D02*
X-303203Y-453465D01*
X-292499D01*
Y-478865D01*
X-338219D01*
Y-443511D01*
X-335689Y-440980D01*
Y-420980D01*
X-315689D01*
Y-440980D01*
D02*
G37*
G36*
X-144564Y-551615D02*
X-145814Y-552133D01*
X-148844Y-554157D01*
X-151421Y-556734D01*
X-153446Y-559764D01*
X-154840Y-563131D01*
X-155551Y-566705D01*
Y-570349D01*
X-154840Y-573923D01*
X-153446Y-577290D01*
X-151421Y-580320D01*
X-148844Y-582897D01*
X-145814Y-584922D01*
X-142448Y-586316D01*
X-139484Y-586906D01*
X-139609Y-588176D01*
X-209671D01*
X-209796Y-586906D01*
X-208109Y-586570D01*
X-204742Y-585176D01*
X-201712Y-583151D01*
X-199135Y-580574D01*
X-197111Y-577544D01*
X-195716Y-574178D01*
X-195005Y-570603D01*
Y-566959D01*
X-195716Y-563385D01*
X-197111Y-560018D01*
X-199135Y-556988D01*
X-201712Y-554411D01*
X-204742Y-552387D01*
X-206606Y-551615D01*
X-206353Y-550345D01*
X-144817D01*
X-144564Y-551615D01*
D02*
G37*
%LPC*%
G36*
X-220015Y-78987D02*
X-231195D01*
Y-82088D01*
X-233985D01*
Y-78987D01*
X-245165D01*
Y-89591D01*
X-233985D01*
Y-86490D01*
X-231195D01*
Y-89591D01*
X-220015D01*
Y-86490D01*
X-215365D01*
Y-89559D01*
X-202825D01*
Y-79019D01*
X-215365D01*
Y-82088D01*
X-220015D01*
Y-78987D01*
D02*
G37*
G36*
X-233985Y-94054D02*
X-245165D01*
Y-104658D01*
X-242570D01*
Y-106168D01*
X-241990Y-107568D01*
X-240918Y-108640D01*
X-239518Y-109220D01*
X-238002D01*
X-236602Y-108640D01*
X-235530Y-107568D01*
X-234950Y-106168D01*
Y-104658D01*
X-233985D01*
Y-94054D01*
D02*
G37*
G36*
X-93669Y-52857D02*
X-105789D01*
X-107431Y-53184D01*
X-108824Y-54115D01*
X-109754Y-55507D01*
X-110081Y-57150D01*
X-109754Y-58793D01*
X-108824Y-60185D01*
X-107431Y-61116D01*
X-105789Y-61442D01*
X-93669D01*
X-92026Y-61116D01*
X-90634Y-60185D01*
X-89703Y-58793D01*
X-89376Y-57150D01*
X-89703Y-55507D01*
X-90634Y-54115D01*
X-92026Y-53184D01*
X-93669Y-52857D01*
D02*
G37*
G36*
X-145671D02*
X-157791D01*
X-159434Y-53184D01*
X-160826Y-54115D01*
X-161757Y-55507D01*
X-162084Y-57150D01*
X-161757Y-58793D01*
X-160826Y-60185D01*
X-159434Y-61116D01*
X-157791Y-61442D01*
X-145671D01*
X-144029Y-61116D01*
X-142636Y-60185D01*
X-141706Y-58793D01*
X-141379Y-57150D01*
X-141706Y-55507D01*
X-142636Y-54115D01*
X-144029Y-53184D01*
X-145671Y-52857D01*
D02*
G37*
G36*
X-417172Y-31320D02*
X-419744D01*
X-422229Y-31986D01*
X-424457Y-33272D01*
X-426276Y-35091D01*
X-427562Y-37319D01*
X-428228Y-39804D01*
Y-42376D01*
X-427562Y-44861D01*
X-426276Y-47089D01*
X-424457Y-48908D01*
X-422229Y-50194D01*
X-419744Y-50860D01*
X-417172D01*
X-414687Y-50194D01*
X-412459Y-48908D01*
X-412348Y-48797D01*
X-401662Y-59482D01*
Y-67000D01*
X-391058D01*
Y-55820D01*
X-398000D01*
X-409270Y-44549D01*
X-408688Y-42376D01*
Y-39804D01*
X-409354Y-37319D01*
X-410640Y-35091D01*
X-412459Y-33272D01*
X-414687Y-31986D01*
X-417172Y-31320D01*
D02*
G37*
G36*
Y-56720D02*
X-419744D01*
X-422229Y-57386D01*
X-424457Y-58672D01*
X-426276Y-60491D01*
X-427562Y-62719D01*
X-428228Y-65204D01*
Y-67776D01*
X-427562Y-70261D01*
X-426276Y-72489D01*
X-424457Y-74308D01*
X-422229Y-75594D01*
X-419744Y-76260D01*
X-417172D01*
X-414687Y-75594D01*
X-413628Y-74983D01*
X-410129Y-78481D01*
X-409289Y-79043D01*
X-408298Y-79240D01*
X-401576D01*
Y-82240D01*
X-390971D01*
Y-71060D01*
X-401576D01*
Y-74060D01*
X-407225D01*
X-409965Y-71320D01*
X-409354Y-70261D01*
X-408688Y-67776D01*
Y-65204D01*
X-409354Y-62719D01*
X-410640Y-60491D01*
X-412459Y-58672D01*
X-414687Y-57386D01*
X-417172Y-56720D01*
D02*
G37*
G36*
X-93669Y-65557D02*
X-105789D01*
X-107431Y-65884D01*
X-108824Y-66815D01*
X-109754Y-68207D01*
X-110081Y-69850D01*
X-109754Y-71493D01*
X-108824Y-72885D01*
X-107431Y-73816D01*
X-105789Y-74142D01*
X-93669D01*
X-93611Y-74131D01*
X-81347Y-86395D01*
X-82068Y-87115D01*
X-83222Y-89115D01*
X-83820Y-91345D01*
Y-93655D01*
X-83222Y-95885D01*
X-82068Y-97885D01*
X-80435Y-99518D01*
X-78435Y-100672D01*
X-76205Y-101270D01*
X-73895D01*
X-71665Y-100672D01*
X-69665Y-99518D01*
X-68032Y-97885D01*
X-66878Y-95885D01*
X-66280Y-93655D01*
Y-91345D01*
X-66878Y-89115D01*
X-68032Y-87115D01*
X-69665Y-85482D01*
X-71665Y-84328D01*
X-73895Y-83730D01*
X-76205D01*
X-77452Y-84064D01*
X-89831Y-71684D01*
X-89703Y-71493D01*
X-89376Y-69850D01*
X-89703Y-68207D01*
X-90634Y-66815D01*
X-92026Y-65884D01*
X-93669Y-65557D01*
D02*
G37*
G36*
Y-90957D02*
X-105789D01*
X-107431Y-91284D01*
X-108824Y-92215D01*
X-109754Y-93607D01*
X-110081Y-95250D01*
X-109754Y-96893D01*
X-108824Y-98285D01*
X-107431Y-99216D01*
X-105789Y-99543D01*
X-101776D01*
Y-102348D01*
X-101608Y-103190D01*
X-101131Y-103905D01*
X-88265Y-116771D01*
X-87550Y-117248D01*
X-86708Y-117416D01*
X-83820D01*
Y-126390D01*
X-66280D01*
Y-108610D01*
X-83820D01*
Y-113013D01*
X-85796D01*
X-97373Y-101436D01*
Y-99543D01*
X-93669D01*
X-92026Y-99216D01*
X-90634Y-98285D01*
X-89703Y-96893D01*
X-89376Y-95250D01*
X-89703Y-93607D01*
X-90634Y-92215D01*
X-92026Y-91284D01*
X-93669Y-90957D01*
D02*
G37*
G36*
X-174502Y-71120D02*
X-176018D01*
X-177418Y-71700D01*
X-178490Y-72772D01*
X-179070Y-74172D01*
Y-75688D01*
X-178490Y-77088D01*
X-177461Y-78117D01*
Y-105410D01*
X-177294Y-106252D01*
X-176817Y-106966D01*
X-167301Y-116482D01*
Y-151488D01*
X-171093Y-155280D01*
X-181680D01*
Y-151211D01*
X-191220D01*
Y-163751D01*
X-189739D01*
X-189213Y-165021D01*
X-191143Y-166951D01*
X-197570D01*
Y-178491D01*
X-197570D01*
Y-179651D01*
X-197570D01*
Y-191191D01*
X-195001D01*
Y-193801D01*
X-198102D01*
Y-204981D01*
X-187498D01*
Y-193801D01*
X-190599D01*
Y-191191D01*
X-188030D01*
Y-179651D01*
X-188030D01*
Y-178491D01*
X-188030D01*
Y-170064D01*
X-184893Y-166928D01*
X-184416Y-166214D01*
X-184249Y-165371D01*
Y-163751D01*
X-181680D01*
Y-159683D01*
X-170181D01*
X-169339Y-159515D01*
X-168625Y-159038D01*
X-163543Y-153956D01*
X-163066Y-153242D01*
X-162899Y-152400D01*
Y-115570D01*
X-163066Y-114728D01*
X-163543Y-114013D01*
X-173059Y-104498D01*
Y-78117D01*
X-172030Y-77088D01*
X-171450Y-75688D01*
Y-74172D01*
X-172030Y-72772D01*
X-173102Y-71700D01*
X-174502Y-71120D01*
D02*
G37*
G36*
X-406330Y-138690D02*
X-416870D01*
Y-145024D01*
X-416938Y-145037D01*
X-417653Y-145514D01*
X-424478Y-152340D01*
X-431970D01*
Y-163520D01*
X-421365D01*
Y-155453D01*
X-418116Y-152204D01*
X-416902Y-152787D01*
X-416902Y-153425D01*
Y-163520D01*
X-416056D01*
Y-166946D01*
X-417085Y-167975D01*
X-417665Y-169375D01*
Y-170891D01*
X-417085Y-172291D01*
X-416013Y-173363D01*
X-414613Y-173943D01*
X-413097D01*
X-411697Y-173363D01*
X-410625Y-172291D01*
X-410045Y-170891D01*
Y-169375D01*
X-410625Y-167975D01*
X-411654Y-166946D01*
Y-163520D01*
X-406298D01*
Y-152340D01*
X-415727D01*
X-416456Y-152340D01*
X-417038Y-151126D01*
X-415184Y-149272D01*
X-414711D01*
X-414498Y-149230D01*
X-406330D01*
Y-138690D01*
D02*
G37*
G36*
X-41720Y-147900D02*
X-52260D01*
Y-159440D01*
X-49191D01*
Y-165673D01*
X-53165D01*
X-54890Y-166017D01*
X-56352Y-166993D01*
X-57329Y-168455D01*
X-57672Y-170180D01*
X-57329Y-171905D01*
X-56352Y-173367D01*
X-54890Y-174343D01*
X-53165Y-174687D01*
X-40815D01*
X-39090Y-174343D01*
X-37628Y-173367D01*
X-36651Y-171905D01*
X-36308Y-170180D01*
X-36651Y-168455D01*
X-37628Y-166993D01*
X-39090Y-166017D01*
X-40815Y-165673D01*
X-44789D01*
Y-159440D01*
X-41720D01*
Y-147900D01*
D02*
G37*
G36*
X-95762Y-161290D02*
X-97278D01*
X-98678Y-161870D01*
X-99750Y-162942D01*
X-100330Y-164342D01*
Y-165673D01*
X-106815D01*
X-108539Y-166017D01*
X-110001Y-166993D01*
X-110978Y-168455D01*
X-111321Y-170180D01*
X-110978Y-171905D01*
X-110001Y-173367D01*
X-108539Y-174343D01*
X-106815Y-174687D01*
X-94465D01*
X-92740Y-174343D01*
X-91278Y-173367D01*
X-90301Y-171905D01*
X-89958Y-170180D01*
X-90301Y-168455D01*
X-91278Y-166993D01*
X-92740Y-166017D01*
X-92760Y-165979D01*
X-92710Y-165858D01*
Y-164342D01*
X-93290Y-162942D01*
X-94362Y-161870D01*
X-95762Y-161290D01*
D02*
G37*
G36*
X-19041Y-166265D02*
X-20013Y-166668D01*
X-20013Y-166668D01*
X-24517Y-171172D01*
X-24517Y-171172D01*
X-24920Y-172144D01*
X-24919Y-172144D01*
X-24919Y-190205D01*
X-31170D01*
X-31170Y-190205D01*
X-31423Y-190310D01*
X-32440D01*
Y-190906D01*
X-32589Y-191055D01*
X-46990D01*
X-47034Y-191073D01*
X-53165D01*
X-54890Y-191416D01*
X-56352Y-192393D01*
X-57329Y-193855D01*
X-57672Y-195580D01*
X-57329Y-197305D01*
X-56352Y-198767D01*
X-54890Y-199743D01*
X-53165Y-200087D01*
X-47034D01*
X-46990Y-200105D01*
X-32589D01*
X-32440Y-200254D01*
Y-200850D01*
X-31423D01*
X-31170Y-200955D01*
X-31170Y-200955D01*
X-7130D01*
X-6158Y-200552D01*
X-6158Y-200552D01*
X-5656Y-200050D01*
X-5060D01*
Y-199004D01*
X-4975Y-198800D01*
X-4975Y-198800D01*
X-4975Y-172720D01*
X-4975Y-172720D01*
X-5378Y-171748D01*
X-10458Y-166668D01*
X-11430Y-166265D01*
X-11430Y-166265D01*
X-19040Y-166265D01*
X-19041Y-166265D01*
D02*
G37*
G36*
X-98370Y-147130D02*
X-109910D01*
Y-155057D01*
X-118397Y-163543D01*
X-118874Y-164258D01*
X-119041Y-165100D01*
Y-186690D01*
X-118874Y-187532D01*
X-118397Y-188246D01*
X-111279Y-195364D01*
X-111321Y-195580D01*
X-110978Y-197305D01*
X-110001Y-198767D01*
X-108539Y-199743D01*
X-106815Y-200087D01*
X-94465D01*
X-92740Y-199743D01*
X-91278Y-198767D01*
X-90301Y-197305D01*
X-89958Y-195580D01*
X-90301Y-193855D01*
X-91278Y-192393D01*
X-92740Y-191416D01*
X-94465Y-191073D01*
X-106815D01*
X-108539Y-191416D01*
X-108816Y-191601D01*
X-114639Y-185778D01*
Y-166012D01*
X-106297Y-157670D01*
X-98370D01*
Y-147130D01*
D02*
G37*
G36*
X-133160Y-178640D02*
X-143700D01*
Y-215180D01*
X-133160D01*
Y-210481D01*
X-110660D01*
X-110001Y-211467D01*
X-108539Y-212444D01*
X-106815Y-212787D01*
X-94465D01*
X-92740Y-212444D01*
X-91278Y-211467D01*
X-90301Y-210005D01*
X-89958Y-208280D01*
X-90301Y-206555D01*
X-91278Y-205093D01*
X-92740Y-204116D01*
X-94465Y-203773D01*
X-106815D01*
X-108539Y-204116D01*
X-110001Y-205093D01*
X-110660Y-206079D01*
X-133160D01*
Y-178640D01*
D02*
G37*
G36*
X-312932Y-205740D02*
X-314448D01*
X-315848Y-206320D01*
X-316920Y-207392D01*
X-317500Y-208792D01*
Y-210308D01*
X-316920Y-211708D01*
X-315848Y-212780D01*
X-314448Y-213360D01*
X-312932D01*
X-312930Y-213361D01*
Y-217565D01*
X-301750D01*
Y-206960D01*
X-310891D01*
X-311532Y-206320D01*
X-312932Y-205740D01*
D02*
G37*
G36*
X-320871Y-218587D02*
X-324529D01*
X-325500Y-218780D01*
X-326323Y-219331D01*
X-326874Y-220154D01*
X-327067Y-221125D01*
Y-233927D01*
X-326874Y-234898D01*
X-326323Y-235721D01*
X-325500Y-236272D01*
X-324529Y-236465D01*
X-320871D01*
X-319900Y-236272D01*
X-319077Y-235721D01*
X-318526Y-234898D01*
X-318333Y-233927D01*
Y-230116D01*
X-312930D01*
Y-232632D01*
X-301750D01*
Y-222028D01*
X-312930D01*
Y-224936D01*
X-318333D01*
Y-221125D01*
X-318526Y-220154D01*
X-319077Y-219331D01*
X-319900Y-218780D01*
X-320871Y-218587D01*
D02*
G37*
G36*
X-369554Y-218380D02*
X-380159D01*
Y-229560D01*
X-369554D01*
Y-226171D01*
X-365167D01*
Y-233927D01*
X-364974Y-234898D01*
X-364423Y-235721D01*
X-363600Y-236272D01*
X-362629Y-236465D01*
X-358971D01*
X-358000Y-236272D01*
X-357177Y-235721D01*
X-356626Y-234898D01*
X-356433Y-233927D01*
Y-221125D01*
X-356626Y-220154D01*
X-357177Y-219331D01*
X-358000Y-218780D01*
X-358971Y-218587D01*
X-362629D01*
X-363600Y-218780D01*
X-364423Y-219331D01*
X-364974Y-220154D01*
X-365167Y-221125D01*
Y-221769D01*
X-369554D01*
Y-218380D01*
D02*
G37*
G36*
X-384621D02*
X-395226D01*
Y-229560D01*
X-392125D01*
Y-235342D01*
X-394273Y-237490D01*
X-395728D01*
X-397128Y-238070D01*
X-398200Y-239142D01*
X-398780Y-240542D01*
Y-242058D01*
X-398200Y-243458D01*
X-397128Y-244530D01*
X-395728Y-245110D01*
X-394212D01*
X-392812Y-244530D01*
X-391740Y-243458D01*
X-391160Y-242058D01*
Y-240603D01*
X-388367Y-237810D01*
X-387890Y-237096D01*
X-387722Y-236254D01*
Y-229560D01*
X-384621D01*
Y-218380D01*
D02*
G37*
G36*
X-203460Y-243920D02*
X-213000D01*
Y-256460D01*
X-208590D01*
Y-256550D01*
X-208393Y-257541D01*
X-207831Y-258381D01*
X-204160Y-262052D01*
Y-269930D01*
X-194620D01*
Y-269930D01*
X-194000D01*
Y-269930D01*
X-184460D01*
Y-258390D01*
X-194000D01*
Y-258390D01*
X-194620D01*
Y-258390D01*
X-200497D01*
X-203410Y-255477D01*
Y-252420D01*
X-203460Y-252170D01*
Y-243920D01*
D02*
G37*
G36*
X-209620Y-258391D02*
X-219160D01*
Y-266818D01*
X-224051Y-271709D01*
X-227872D01*
X-228385Y-271366D01*
X-228416Y-271277D01*
Y-270043D01*
X-228385Y-269954D01*
X-227798Y-269562D01*
X-227138Y-268575D01*
X-226907Y-267410D01*
X-227138Y-266245D01*
X-227798Y-265258D01*
X-228785Y-264598D01*
X-229950Y-264367D01*
X-243835D01*
X-245000Y-264598D01*
X-245587Y-264991D01*
X-249051D01*
X-249302Y-264740D01*
X-250702Y-264160D01*
X-252218D01*
X-253618Y-264740D01*
X-254690Y-265812D01*
X-255270Y-267212D01*
Y-268728D01*
X-254690Y-270128D01*
X-253618Y-271200D01*
X-252218Y-271780D01*
X-250702D01*
X-249302Y-271200D01*
X-248272Y-270170D01*
X-245897D01*
X-245511Y-271440D01*
X-245987Y-271758D01*
X-246647Y-272745D01*
X-246878Y-273910D01*
X-246647Y-275075D01*
X-245987Y-276062D01*
X-245400Y-276454D01*
X-245368Y-276544D01*
Y-277776D01*
X-245400Y-277866D01*
X-245987Y-278258D01*
X-246647Y-279245D01*
X-246878Y-280410D01*
X-246647Y-281575D01*
X-245987Y-282562D01*
X-245400Y-282954D01*
X-245369Y-283043D01*
Y-284277D01*
X-245400Y-284366D01*
X-245987Y-284758D01*
X-246647Y-285745D01*
X-246878Y-286910D01*
X-246647Y-288075D01*
X-245987Y-289062D01*
X-245825Y-289170D01*
X-245765Y-290578D01*
X-246482Y-291155D01*
X-247172Y-291011D01*
X-247744Y-290438D01*
X-249144Y-289858D01*
X-250660D01*
X-252061Y-290438D01*
X-253132Y-291510D01*
X-253712Y-292910D01*
Y-294426D01*
X-253132Y-295826D01*
X-252061Y-296898D01*
X-252051Y-296902D01*
X-251910Y-298335D01*
X-251936Y-298353D01*
X-255849Y-302266D01*
X-256326Y-302980D01*
X-256494Y-303823D01*
Y-336490D01*
X-259595D01*
Y-347670D01*
X-248990D01*
Y-336490D01*
X-252091D01*
Y-304734D01*
X-249468Y-302111D01*
X-245913D01*
X-245400Y-302454D01*
X-245368Y-302544D01*
Y-303776D01*
X-245400Y-303866D01*
X-245987Y-304258D01*
X-246647Y-305245D01*
X-246878Y-306410D01*
X-246647Y-307575D01*
X-245987Y-308562D01*
X-245000Y-309222D01*
X-243835Y-309454D01*
X-238910D01*
Y-322834D01*
X-238743Y-323676D01*
X-238265Y-324390D01*
X-227436Y-335220D01*
X-227962Y-336490D01*
X-228153Y-336490D01*
Y-336490D01*
X-228193Y-336490D01*
X-237832D01*
Y-347670D01*
X-235837D01*
Y-350460D01*
X-237832D01*
Y-361640D01*
X-235837D01*
Y-365409D01*
X-238940D01*
Y-375949D01*
X-226400D01*
Y-365409D01*
X-229363D01*
Y-361640D01*
X-227228D01*
Y-350460D01*
X-229363D01*
Y-347670D01*
X-227228D01*
X-227228Y-337456D01*
Y-337415D01*
Y-337415D01*
X-227228Y-337224D01*
X-226902Y-337089D01*
X-225958Y-336698D01*
X-222765Y-339891D01*
Y-347670D01*
X-212160D01*
Y-336490D01*
X-218959D01*
X-219145Y-336211D01*
X-218466Y-334941D01*
X-190595D01*
X-190409Y-335220D01*
X-191088Y-336490D01*
X-199732D01*
Y-347670D01*
X-197737D01*
Y-350460D01*
X-199732D01*
Y-361640D01*
X-197737D01*
Y-365409D01*
X-200840D01*
Y-375949D01*
X-188300D01*
Y-365409D01*
X-191263D01*
Y-361640D01*
X-189128D01*
Y-350460D01*
X-191263D01*
Y-347670D01*
X-189128D01*
X-189128Y-337456D01*
Y-337415D01*
D01*
X-189128Y-337224D01*
X-188802Y-337089D01*
X-187858Y-336698D01*
X-184665Y-339891D01*
Y-347670D01*
X-174060D01*
Y-336490D01*
X-181840D01*
X-187146Y-331184D01*
X-187860Y-330706D01*
X-188703Y-330539D01*
X-220068D01*
X-223859Y-326748D01*
Y-314602D01*
X-221485Y-312228D01*
X-221008Y-311514D01*
X-220841Y-310672D01*
Y-291308D01*
X-221008Y-290466D01*
X-221485Y-289752D01*
X-225567Y-285669D01*
X-226282Y-285192D01*
X-227124Y-285025D01*
X-227620D01*
X-227798Y-284758D01*
X-227877Y-284705D01*
X-227990Y-283248D01*
X-227325Y-282611D01*
X-224692D01*
X-219371Y-287932D01*
Y-312760D01*
X-219710D01*
Y-324300D01*
X-210170D01*
Y-312760D01*
X-213883D01*
X-213893Y-312675D01*
X-213883Y-312611D01*
X-212754Y-311440D01*
X-209243D01*
X-209201Y-311651D01*
X-208640Y-312491D01*
X-204710Y-316421D01*
Y-324299D01*
X-195170D01*
Y-324299D01*
X-194190Y-324301D01*
Y-324301D01*
X-193901Y-324301D01*
X-184650D01*
Y-312761D01*
X-194190D01*
Y-312761D01*
X-195170Y-312759D01*
Y-312759D01*
X-195459Y-312759D01*
X-201047D01*
X-204219Y-309587D01*
Y-307400D01*
X-204269Y-307150D01*
Y-298900D01*
X-213699D01*
X-213809Y-298900D01*
X-214969Y-298634D01*
Y-287020D01*
X-215136Y-286178D01*
X-215613Y-285463D01*
X-222223Y-278853D01*
X-222938Y-278376D01*
X-223780Y-278209D01*
X-227872D01*
X-227877Y-278205D01*
X-227990Y-276748D01*
X-227326Y-276111D01*
X-223139D01*
X-222296Y-275944D01*
X-221582Y-275466D01*
X-216047Y-269931D01*
X-209620D01*
Y-258391D01*
D02*
G37*
G36*
X-16355Y-272660D02*
X-19585D01*
X-22706Y-273496D01*
X-25504Y-275112D01*
X-27788Y-277396D01*
X-29404Y-280194D01*
X-30240Y-283315D01*
Y-286545D01*
X-29404Y-289666D01*
X-27788Y-292464D01*
X-25504Y-294748D01*
X-22706Y-296364D01*
X-19585Y-297200D01*
X-16355D01*
X-13234Y-296364D01*
X-10436Y-294748D01*
X-8152Y-292464D01*
X-6536Y-289666D01*
X-5700Y-286545D01*
Y-283315D01*
X-6536Y-280194D01*
X-8152Y-277396D01*
X-10436Y-275112D01*
X-13234Y-273496D01*
X-16355Y-272660D01*
D02*
G37*
G36*
X-143355Y-322660D02*
X-146585D01*
X-149706Y-323496D01*
X-152504Y-325112D01*
X-154788Y-327396D01*
X-156404Y-330194D01*
X-157240Y-333315D01*
Y-336545D01*
X-156404Y-339666D01*
X-154788Y-342464D01*
X-152504Y-344748D01*
X-149706Y-346364D01*
X-146585Y-347200D01*
X-143355D01*
X-140234Y-346364D01*
X-137436Y-344748D01*
X-135152Y-342464D01*
X-133536Y-339666D01*
X-132700Y-336545D01*
Y-333315D01*
X-133536Y-330194D01*
X-135152Y-327396D01*
X-137436Y-325112D01*
X-140234Y-323496D01*
X-143355Y-322660D01*
D02*
G37*
G36*
X-194769Y-272900D02*
X-204309D01*
Y-285440D01*
X-198431D01*
X-181445Y-302426D01*
X-180605Y-302988D01*
X-179614Y-303185D01*
X-175406D01*
Y-307445D01*
X-175259Y-308184D01*
X-174840Y-308811D01*
X-174213Y-309230D01*
X-173474Y-309377D01*
X-169724D01*
X-168984Y-309230D01*
X-168358Y-308811D01*
X-167939Y-308184D01*
X-167792Y-307445D01*
Y-303185D01*
X-105378D01*
X-53293Y-355270D01*
X-54404Y-357194D01*
X-55240Y-360315D01*
Y-363545D01*
X-54404Y-366666D01*
X-52788Y-369464D01*
X-50504Y-371749D01*
X-47706Y-373364D01*
X-44585Y-374200D01*
X-41355D01*
X-38234Y-373364D01*
X-35436Y-371749D01*
X-33152Y-369464D01*
X-31536Y-366666D01*
X-30700Y-363545D01*
Y-360315D01*
X-31536Y-357194D01*
X-33152Y-354396D01*
X-35436Y-352112D01*
X-38234Y-350496D01*
X-41355Y-349660D01*
X-44585D01*
X-47706Y-350496D01*
X-49630Y-351607D01*
X-102474Y-298764D01*
X-103314Y-298202D01*
X-104305Y-298005D01*
X-167810D01*
X-167939Y-297356D01*
X-168358Y-296729D01*
X-168984Y-296310D01*
X-169724Y-296163D01*
X-173474D01*
X-174213Y-296310D01*
X-174840Y-296729D01*
X-175259Y-297356D01*
X-175388Y-298005D01*
X-178541D01*
X-194769Y-281777D01*
Y-272900D01*
D02*
G37*
G36*
X-264058Y-336490D02*
X-274662D01*
Y-347670D01*
X-272667D01*
Y-350460D01*
X-274662D01*
Y-361640D01*
X-272667D01*
Y-365409D01*
X-275770D01*
Y-375949D01*
X-263230D01*
Y-365409D01*
X-266193D01*
Y-361640D01*
X-264058D01*
Y-350460D01*
X-266193D01*
Y-347670D01*
X-264058D01*
Y-336490D01*
D02*
G37*
G36*
X-165300Y-374910D02*
X-177840D01*
Y-380872D01*
X-180382Y-383414D01*
X-181084Y-384464D01*
X-181330Y-385703D01*
Y-398720D01*
X-183395D01*
Y-409900D01*
X-172790D01*
Y-398720D01*
X-174855D01*
Y-387044D01*
X-173262Y-385450D01*
X-165300D01*
Y-374910D01*
D02*
G37*
G36*
X-203400D02*
X-215940D01*
Y-380872D01*
X-218482Y-383414D01*
X-219184Y-384464D01*
X-219430Y-385703D01*
Y-398720D01*
X-221495D01*
Y-409900D01*
X-210890D01*
Y-398720D01*
X-212955D01*
Y-387044D01*
X-211362Y-385450D01*
X-203400D01*
Y-374910D01*
D02*
G37*
G36*
X-240230D02*
X-252770D01*
Y-380872D01*
X-256582Y-384684D01*
X-257283Y-385734D01*
X-257530Y-386973D01*
Y-398720D01*
X-259595D01*
Y-409900D01*
X-248990D01*
Y-398720D01*
X-251056D01*
Y-388314D01*
X-248192Y-385450D01*
X-240230D01*
Y-374910D01*
D02*
G37*
G36*
X-16355Y-399660D02*
X-19585D01*
X-22706Y-400496D01*
X-25504Y-402112D01*
X-27788Y-404396D01*
X-29404Y-407194D01*
X-30240Y-410315D01*
Y-413545D01*
X-29404Y-416666D01*
X-27788Y-419464D01*
X-25504Y-421749D01*
X-22706Y-423364D01*
X-19585Y-424200D01*
X-16355D01*
X-13234Y-423364D01*
X-10436Y-421749D01*
X-8152Y-419464D01*
X-6536Y-416666D01*
X-5700Y-413545D01*
Y-410315D01*
X-6536Y-407194D01*
X-8152Y-404396D01*
X-10436Y-402112D01*
X-13234Y-400496D01*
X-16355Y-399660D01*
D02*
G37*
G36*
X-225958Y-398720D02*
X-236562D01*
Y-409900D01*
X-233850D01*
Y-412690D01*
X-236562D01*
Y-423870D01*
X-233850D01*
Y-427029D01*
X-237600D01*
Y-437569D01*
X-225060D01*
Y-427029D01*
X-228670D01*
Y-423870D01*
X-225958D01*
Y-412690D01*
X-228670D01*
Y-409900D01*
X-225958D01*
Y-398720D01*
D02*
G37*
G36*
X-264058D02*
X-274662D01*
Y-409900D01*
X-271950D01*
Y-412690D01*
X-274662D01*
Y-423870D01*
X-271950D01*
Y-427029D01*
X-275630D01*
Y-437569D01*
X-263647D01*
X-263090Y-437569D01*
X-262377Y-438544D01*
Y-440739D01*
X-267668Y-446030D01*
X-275630D01*
Y-456570D01*
X-274835D01*
Y-461580D01*
X-275926D01*
Y-471120D01*
X-271661D01*
X-271638Y-471135D01*
X-269656Y-471530D01*
X-267673Y-471135D01*
X-267651Y-471120D01*
X-263386D01*
Y-461580D01*
X-264476D01*
Y-456570D01*
X-263090D01*
Y-450608D01*
X-256851Y-444369D01*
X-256149Y-443319D01*
X-255903Y-442080D01*
Y-435028D01*
X-252004Y-431128D01*
X-251302Y-430078D01*
X-251056Y-428839D01*
Y-423870D01*
X-248990D01*
Y-422029D01*
X-248408Y-421640D01*
X-246892D01*
X-245492Y-421060D01*
X-244420Y-419988D01*
X-243840Y-418588D01*
Y-417072D01*
X-244420Y-415672D01*
X-245492Y-414600D01*
X-246892Y-414020D01*
X-248408D01*
X-248990Y-413631D01*
Y-412690D01*
X-259595D01*
Y-423870D01*
X-257530D01*
Y-427498D01*
X-261429Y-431398D01*
X-261820Y-431982D01*
X-263090Y-431597D01*
Y-427029D01*
X-266770D01*
Y-423870D01*
X-264058D01*
Y-412690D01*
X-266770D01*
Y-409900D01*
X-264058D01*
Y-398720D01*
D02*
G37*
G36*
X-74567Y-481220D02*
X-76857Y-481521D01*
X-78990Y-482405D01*
X-80822Y-483810D01*
X-82228Y-485642D01*
X-83112Y-487776D01*
X-83345Y-489552D01*
X-83567Y-490380D01*
Y-492750D01*
X-83345Y-493578D01*
X-83112Y-495355D01*
X-82228Y-497488D01*
X-80822Y-499320D01*
X-78990Y-500726D01*
X-76857Y-501609D01*
X-74567Y-501911D01*
X-72278Y-501609D01*
X-70145Y-500726D01*
X-68313Y-499320D01*
X-66907Y-497488D01*
X-66023Y-495355D01*
X-65789Y-493578D01*
X-65567Y-492750D01*
Y-490380D01*
X-65789Y-489552D01*
X-66023Y-487776D01*
X-66907Y-485642D01*
X-68313Y-483810D01*
X-70145Y-482405D01*
X-72278Y-481521D01*
X-74567Y-481220D01*
D02*
G37*
G36*
X-150005D02*
X-152295Y-481521D01*
X-154428Y-482405D01*
X-156260Y-483810D01*
X-157666Y-485642D01*
X-158550Y-487776D01*
X-158784Y-489552D01*
X-159005Y-490380D01*
Y-492750D01*
X-158784Y-493578D01*
X-158550Y-495355D01*
X-157666Y-497488D01*
X-156260Y-499320D01*
X-154428Y-500726D01*
X-152295Y-501609D01*
X-150005Y-501911D01*
X-147716Y-501609D01*
X-145583Y-500726D01*
X-143751Y-499320D01*
X-142345Y-497488D01*
X-141461Y-495355D01*
X-141227Y-493578D01*
X-141005Y-492750D01*
Y-490380D01*
X-141227Y-489552D01*
X-141461Y-487776D01*
X-142345Y-485642D01*
X-143751Y-483810D01*
X-145583Y-482405D01*
X-147716Y-481521D01*
X-150005Y-481220D01*
D02*
G37*
G36*
X-143355Y-449660D02*
X-146585D01*
X-149706Y-450496D01*
X-152504Y-452112D01*
X-154788Y-454396D01*
X-156404Y-457194D01*
X-157240Y-460315D01*
Y-463545D01*
X-156404Y-466666D01*
X-154788Y-469464D01*
X-152504Y-471749D01*
X-149706Y-473364D01*
X-146585Y-474200D01*
X-143355D01*
X-140234Y-473364D01*
X-137436Y-471749D01*
X-135152Y-469464D01*
X-133792Y-467109D01*
X-118127D01*
X-104471Y-480766D01*
Y-483051D01*
X-105460Y-483810D01*
X-106866Y-485642D01*
X-107750Y-487776D01*
X-107984Y-489552D01*
X-108205Y-490380D01*
Y-492750D01*
X-107984Y-493578D01*
X-107750Y-495355D01*
X-106866Y-497488D01*
X-105460Y-499320D01*
X-103628Y-500726D01*
X-101495Y-501609D01*
X-99205Y-501911D01*
X-96916Y-501609D01*
X-94783Y-500726D01*
X-92951Y-499320D01*
X-91545Y-497488D01*
X-90661Y-495355D01*
X-90427Y-493578D01*
X-90205Y-492750D01*
Y-490380D01*
X-90427Y-489552D01*
X-90661Y-487776D01*
X-91545Y-485642D01*
X-92951Y-483810D01*
X-94112Y-482919D01*
Y-478620D01*
X-94506Y-476638D01*
X-95629Y-474958D01*
X-112319Y-458268D01*
X-114000Y-457145D01*
X-115982Y-456750D01*
X-133792D01*
X-135152Y-454396D01*
X-137436Y-452112D01*
X-140234Y-450496D01*
X-143355Y-449660D01*
D02*
G37*
G36*
X-124605Y-481220D02*
X-126895Y-481521D01*
X-129028Y-482405D01*
X-130860Y-483810D01*
X-132266Y-485642D01*
X-133150Y-487776D01*
X-133384Y-489552D01*
X-133605Y-490380D01*
Y-492750D01*
X-133384Y-493578D01*
X-133150Y-495355D01*
X-132266Y-497488D01*
X-130860Y-499320D01*
X-129028Y-500726D01*
X-126895Y-501609D01*
X-124605Y-501911D01*
X-122316Y-501609D01*
X-120183Y-500726D01*
X-118351Y-499320D01*
X-116945Y-497488D01*
X-116061Y-495355D01*
X-115827Y-493578D01*
X-115605Y-492750D01*
Y-490380D01*
X-115827Y-489552D01*
X-116061Y-487776D01*
X-116945Y-485642D01*
X-118351Y-483810D01*
X-120183Y-482405D01*
X-122316Y-481521D01*
X-124605Y-481220D01*
D02*
G37*
G36*
X-175405D02*
X-177695Y-481521D01*
X-179828Y-482405D01*
X-181660Y-483810D01*
X-183066Y-485642D01*
X-183950Y-487776D01*
X-184184Y-489552D01*
X-184405Y-490380D01*
Y-492750D01*
X-184184Y-493578D01*
X-183950Y-495355D01*
X-183066Y-497488D01*
X-181660Y-499320D01*
X-179828Y-500726D01*
X-177695Y-501609D01*
X-175405Y-501911D01*
X-173116Y-501609D01*
X-170983Y-500726D01*
X-169151Y-499320D01*
X-167745Y-497488D01*
X-166861Y-495355D01*
X-166627Y-493578D01*
X-166405Y-492750D01*
Y-490380D01*
X-166627Y-489552D01*
X-166861Y-487776D01*
X-167745Y-485642D01*
X-169151Y-483810D01*
X-170983Y-482405D01*
X-173116Y-481521D01*
X-175405Y-481220D01*
D02*
G37*
G36*
X-187858Y-398720D02*
X-198462D01*
Y-409900D01*
X-195889D01*
Y-412690D01*
X-198462D01*
Y-423870D01*
X-195889D01*
Y-427029D01*
X-199570D01*
Y-437569D01*
X-187387D01*
X-187030Y-437569D01*
X-186117Y-438432D01*
Y-440619D01*
X-187240Y-441742D01*
X-187481Y-441903D01*
X-191608Y-446030D01*
X-199570D01*
Y-456570D01*
X-198557D01*
Y-461580D01*
X-199726D01*
Y-471120D01*
X-195461D01*
X-195438Y-471135D01*
X-193456Y-471530D01*
X-191474Y-471135D01*
X-191451Y-471120D01*
X-187186D01*
Y-461580D01*
X-188198D01*
Y-456570D01*
X-187030D01*
Y-450608D01*
X-183063Y-446641D01*
X-182823Y-446481D01*
X-180591Y-444249D01*
X-179889Y-443199D01*
X-179643Y-441960D01*
Y-438221D01*
X-177761Y-436339D01*
X-177648Y-436396D01*
X-177648Y-436396D01*
X-176570Y-436944D01*
X-176570Y-437628D01*
Y-447070D01*
X-172206D01*
Y-461580D01*
X-176274D01*
Y-468007D01*
X-189890Y-481623D01*
X-190368Y-482337D01*
X-190535Y-483180D01*
Y-506400D01*
X-196312Y-512177D01*
X-196383Y-512123D01*
X-198516Y-511239D01*
X-200805Y-510938D01*
X-203095Y-511239D01*
X-205228Y-512123D01*
X-207060Y-513528D01*
X-208466Y-515360D01*
X-209350Y-517494D01*
X-209508Y-518697D01*
X-209755Y-518931D01*
X-211025Y-518386D01*
Y-494463D01*
X-209755Y-493917D01*
X-209508Y-494152D01*
X-209350Y-495355D01*
X-208466Y-497488D01*
X-207060Y-499320D01*
X-205228Y-500726D01*
X-203095Y-501609D01*
X-200805Y-501911D01*
X-198516Y-501609D01*
X-196383Y-500726D01*
X-194551Y-499320D01*
X-193145Y-497488D01*
X-192261Y-495355D01*
X-192027Y-493578D01*
X-191805Y-492750D01*
Y-490380D01*
X-192027Y-489552D01*
X-192261Y-487776D01*
X-193145Y-485642D01*
X-194551Y-483810D01*
X-196383Y-482405D01*
X-198516Y-481521D01*
X-200805Y-481220D01*
X-203095Y-481521D01*
X-205228Y-482405D01*
X-207060Y-483810D01*
X-208466Y-485642D01*
X-209350Y-487776D01*
X-209508Y-488979D01*
X-209755Y-489213D01*
X-211025Y-488668D01*
Y-478628D01*
X-206548Y-474151D01*
X-206071Y-473437D01*
X-205903Y-472594D01*
Y-471120D01*
X-201834D01*
Y-461580D01*
X-206129D01*
Y-447070D01*
X-202060D01*
Y-436530D01*
X-214256Y-436530D01*
X-214910Y-435388D01*
X-213904Y-434382D01*
X-213202Y-433331D01*
X-212955Y-432093D01*
Y-423870D01*
X-210890D01*
Y-422029D01*
X-210308Y-421640D01*
X-208792D01*
X-207392Y-421060D01*
X-206320Y-419988D01*
X-205740Y-418588D01*
Y-417072D01*
X-206320Y-415672D01*
X-207392Y-414600D01*
X-208792Y-414020D01*
X-210308D01*
X-210890Y-413631D01*
Y-412690D01*
X-221495D01*
Y-423870D01*
X-219430D01*
Y-430752D01*
X-220729Y-432051D01*
X-221431Y-433101D01*
X-221677Y-434340D01*
Y-436809D01*
X-224539Y-439671D01*
X-225241Y-440721D01*
X-225467Y-441859D01*
X-229638Y-446030D01*
X-237600D01*
Y-456570D01*
X-236735D01*
Y-461580D01*
X-237826D01*
Y-471120D01*
X-233561D01*
X-233538Y-471135D01*
X-231556Y-471530D01*
X-229573Y-471135D01*
X-229551Y-471120D01*
X-225286D01*
Y-461580D01*
X-226376D01*
Y-456570D01*
X-225060D01*
Y-450608D01*
X-219961Y-445509D01*
X-219259Y-444459D01*
X-219033Y-443321D01*
X-216151Y-440439D01*
X-215870Y-440019D01*
X-214600Y-440404D01*
Y-447070D01*
X-210531D01*
Y-461580D01*
X-214374D01*
Y-471120D01*
X-211539D01*
X-211013Y-472390D01*
X-214783Y-476160D01*
X-215260Y-476874D01*
X-215427Y-477716D01*
Y-529278D01*
X-215260Y-530120D01*
X-214783Y-530835D01*
X-208941Y-536676D01*
X-208226Y-537154D01*
X-207384Y-537321D01*
X-162342D01*
X-161500Y-537154D01*
X-160786Y-536676D01*
X-154499Y-530390D01*
X-154428Y-530444D01*
X-152295Y-531328D01*
X-150005Y-531629D01*
X-147716Y-531328D01*
X-145583Y-530444D01*
X-143751Y-529038D01*
X-142345Y-527206D01*
X-141461Y-525073D01*
X-141227Y-523296D01*
X-141005Y-522468D01*
Y-520098D01*
X-141227Y-519271D01*
X-141461Y-517494D01*
X-142345Y-515360D01*
X-143751Y-513528D01*
X-145583Y-512123D01*
X-147716Y-511239D01*
X-150005Y-510938D01*
X-152295Y-511239D01*
X-154428Y-512123D01*
X-156260Y-513528D01*
X-157666Y-515360D01*
X-158550Y-517494D01*
X-158784Y-519271D01*
X-159005Y-520098D01*
Y-522468D01*
X-158784Y-523296D01*
X-158550Y-525073D01*
X-157666Y-527206D01*
X-157612Y-527277D01*
X-163254Y-532919D01*
X-206472D01*
X-211025Y-528366D01*
Y-524181D01*
X-209755Y-523635D01*
X-209508Y-523870D01*
X-209350Y-525073D01*
X-208466Y-527206D01*
X-207060Y-529038D01*
X-205228Y-530444D01*
X-203095Y-531328D01*
X-200805Y-531629D01*
X-198516Y-531328D01*
X-196383Y-530444D01*
X-194551Y-529038D01*
X-193145Y-527206D01*
X-192261Y-525073D01*
X-192027Y-523296D01*
X-191805Y-522468D01*
Y-520098D01*
X-192027Y-519271D01*
X-192261Y-517494D01*
X-193145Y-515360D01*
X-193199Y-515290D01*
X-186777Y-508868D01*
X-186300Y-508154D01*
X-186133Y-507312D01*
Y-484091D01*
X-173161Y-471120D01*
X-163734D01*
Y-461580D01*
X-167803D01*
Y-447070D01*
X-164030D01*
Y-436530D01*
X-175380D01*
X-176156Y-436530D01*
X-176761Y-435339D01*
X-175804Y-434382D01*
X-175102Y-433331D01*
X-174855Y-432093D01*
Y-423870D01*
X-172790D01*
Y-422029D01*
X-172208Y-421640D01*
X-170692D01*
X-169292Y-421060D01*
X-168220Y-419988D01*
X-167640Y-418588D01*
Y-417072D01*
X-168220Y-415672D01*
X-169292Y-414600D01*
X-170692Y-414020D01*
X-172208D01*
X-172790Y-413631D01*
Y-412690D01*
X-183395D01*
Y-423870D01*
X-181330D01*
Y-430752D01*
X-185169Y-434591D01*
X-185760Y-435475D01*
X-186416Y-435464D01*
X-187030Y-435264D01*
Y-427029D01*
X-190710D01*
Y-423870D01*
X-187858D01*
Y-412690D01*
X-190710D01*
Y-409900D01*
X-187858D01*
Y-398720D01*
D02*
G37*
G36*
X-240090Y-436530D02*
X-252630D01*
Y-447070D01*
X-248562D01*
Y-461580D01*
X-252474D01*
Y-471120D01*
X-246996D01*
Y-471475D01*
X-246829Y-472318D01*
X-246352Y-473032D01*
X-233812Y-485572D01*
X-233866Y-485642D01*
X-234750Y-487776D01*
X-234984Y-489552D01*
X-235205Y-490380D01*
Y-492750D01*
X-234984Y-493578D01*
X-234750Y-495355D01*
X-233866Y-497488D01*
X-232460Y-499320D01*
X-230628Y-500726D01*
X-228495Y-501609D01*
X-226205Y-501911D01*
X-223916Y-501609D01*
X-221783Y-500726D01*
X-219951Y-499320D01*
X-218545Y-497488D01*
X-217661Y-495355D01*
X-217427Y-493578D01*
X-217205Y-492750D01*
Y-490380D01*
X-217427Y-489552D01*
X-217661Y-487776D01*
X-218545Y-485642D01*
X-219951Y-483810D01*
X-221783Y-482405D01*
X-223916Y-481521D01*
X-226205Y-481220D01*
X-228495Y-481521D01*
X-230628Y-482405D01*
X-230699Y-482459D01*
X-240864Y-472293D01*
X-240378Y-471120D01*
X-239934D01*
Y-461580D01*
X-244159D01*
Y-447070D01*
X-240090D01*
Y-436530D01*
D02*
G37*
G36*
X-255202Y-480295D02*
X-258169D01*
X-261035Y-481063D01*
X-263605Y-482547D01*
X-265704Y-484645D01*
X-267187Y-487215D01*
X-267955Y-490081D01*
Y-493049D01*
X-267187Y-495915D01*
X-265704Y-498485D01*
X-263605Y-500583D01*
X-261035Y-502067D01*
X-258169Y-502835D01*
X-255202D01*
X-252335Y-502067D01*
X-249765Y-500583D01*
X-247667Y-498485D01*
X-246183Y-495915D01*
X-245415Y-493049D01*
Y-490081D01*
X-246183Y-487215D01*
X-247667Y-484645D01*
X-249765Y-482547D01*
X-252335Y-481063D01*
X-255202Y-480295D01*
D02*
G37*
G36*
X-150372Y-413131D02*
X-151888D01*
X-153288Y-413711D01*
X-154360Y-414783D01*
X-154940Y-416183D01*
Y-417699D01*
X-154360Y-419099D01*
X-153343Y-420116D01*
X-154360Y-421133D01*
X-154940Y-422533D01*
Y-424049D01*
X-154360Y-425449D01*
X-153288Y-426521D01*
X-151888Y-427101D01*
X-150372D01*
X-148972Y-426521D01*
X-147900Y-425449D01*
X-147320Y-424049D01*
Y-423841D01*
X-116482D01*
X-61891Y-478432D01*
Y-498198D01*
X-67714Y-504021D01*
X-160344D01*
X-161187Y-504188D01*
X-161901Y-504665D01*
X-170063Y-512828D01*
X-170983Y-512123D01*
X-173116Y-511239D01*
X-175405Y-510938D01*
X-177695Y-511239D01*
X-179828Y-512123D01*
X-181660Y-513528D01*
X-183066Y-515360D01*
X-183950Y-517494D01*
X-184184Y-519271D01*
X-184405Y-520098D01*
Y-522468D01*
X-184184Y-523296D01*
X-183950Y-525073D01*
X-183066Y-527206D01*
X-181660Y-529038D01*
X-179828Y-530444D01*
X-177695Y-531328D01*
X-175405Y-531629D01*
X-173116Y-531328D01*
X-170983Y-530444D01*
X-169151Y-529038D01*
X-167745Y-527206D01*
X-166861Y-525073D01*
X-166627Y-523296D01*
X-166405Y-522468D01*
Y-520098D01*
X-166627Y-519271D01*
X-166861Y-517494D01*
X-167342Y-516333D01*
X-159432Y-508423D01*
X-116518D01*
X-116032Y-509597D01*
X-119263Y-512828D01*
X-120183Y-512123D01*
X-122316Y-511239D01*
X-124605Y-510938D01*
X-126895Y-511239D01*
X-129028Y-512123D01*
X-130860Y-513528D01*
X-132266Y-515360D01*
X-133150Y-517494D01*
X-133384Y-519271D01*
X-133605Y-520098D01*
Y-522468D01*
X-133384Y-523296D01*
X-133150Y-525073D01*
X-132266Y-527206D01*
X-130860Y-529038D01*
X-129028Y-530444D01*
X-126895Y-531328D01*
X-124605Y-531629D01*
X-122316Y-531328D01*
X-120183Y-530444D01*
X-118351Y-529038D01*
X-116945Y-527206D01*
X-116061Y-525073D01*
X-115827Y-523296D01*
X-115605Y-522468D01*
Y-520098D01*
X-115827Y-519271D01*
X-116061Y-517494D01*
X-116542Y-516333D01*
X-111680Y-511471D01*
X-104866D01*
X-104434Y-512741D01*
X-105460Y-513528D01*
X-106866Y-515360D01*
X-107750Y-517494D01*
X-107984Y-519271D01*
X-108205Y-520098D01*
Y-522468D01*
X-107984Y-523296D01*
X-107750Y-525073D01*
X-106866Y-527206D01*
X-105460Y-529038D01*
X-103628Y-530444D01*
X-101495Y-531328D01*
X-99205Y-531629D01*
X-96916Y-531328D01*
X-94783Y-530444D01*
X-92951Y-529038D01*
X-91545Y-527206D01*
X-90661Y-525073D01*
X-90427Y-523296D01*
X-90205Y-522468D01*
Y-520098D01*
X-90427Y-519271D01*
X-90661Y-517494D01*
X-91545Y-515360D01*
X-92951Y-513528D01*
X-93976Y-512741D01*
X-93545Y-511471D01*
X-80227D01*
X-79796Y-512741D01*
X-80822Y-513528D01*
X-82228Y-515360D01*
X-83112Y-517494D01*
X-83345Y-519271D01*
X-83567Y-520098D01*
Y-522468D01*
X-83345Y-523296D01*
X-83112Y-525073D01*
X-82228Y-527206D01*
X-80822Y-529038D01*
X-78990Y-530444D01*
X-76857Y-531328D01*
X-74567Y-531629D01*
X-72278Y-531328D01*
X-70145Y-530444D01*
X-68313Y-529038D01*
X-66907Y-527206D01*
X-66023Y-525073D01*
X-65789Y-523296D01*
X-65567Y-522468D01*
Y-520098D01*
X-65789Y-519271D01*
X-66023Y-517494D01*
X-66907Y-515360D01*
X-68313Y-513528D01*
X-69338Y-512741D01*
X-68907Y-511471D01*
X-65539D01*
X-64697Y-511304D01*
X-63983Y-510826D01*
X-55978Y-502822D01*
X-55978Y-502822D01*
X-55086Y-501929D01*
X-54608Y-501215D01*
X-54441Y-500373D01*
Y-476258D01*
X-54608Y-475415D01*
X-55086Y-474701D01*
X-55978Y-473808D01*
X-55978Y-473808D01*
X-112751Y-417035D01*
X-113465Y-416558D01*
X-114307Y-416391D01*
X-147320D01*
Y-416183D01*
X-147900Y-414783D01*
X-148972Y-413711D01*
X-150372Y-413131D01*
D02*
G37*
G36*
X-369089Y-397455D02*
X-378510D01*
X-379482Y-397858D01*
X-397712Y-416088D01*
X-398115Y-417060D01*
X-398115Y-417060D01*
Y-511986D01*
X-398010Y-512239D01*
Y-513256D01*
X-396993D01*
X-396740Y-513361D01*
X-380740D01*
X-380487Y-513256D01*
X-379470D01*
Y-512239D01*
X-379365Y-511986D01*
Y-490469D01*
X-365016Y-476120D01*
X-364420D01*
Y-475103D01*
X-364315Y-474850D01*
X-364315Y-474850D01*
Y-451179D01*
X-358718Y-445582D01*
X-358315Y-444610D01*
X-358315Y-444610D01*
Y-420980D01*
X-358420Y-420727D01*
Y-419710D01*
X-359437D01*
X-359690Y-419605D01*
X-379690D01*
X-379943Y-419710D01*
X-380960D01*
Y-420727D01*
X-381065Y-420980D01*
Y-444610D01*
X-381065Y-444610D01*
X-380662Y-445582D01*
X-380662Y-445582D01*
X-375065Y-451179D01*
Y-464475D01*
X-380307D01*
X-383435Y-461347D01*
X-383435Y-419669D01*
X-369851Y-406085D01*
X-369089Y-406085D01*
X-369035Y-406063D01*
X-363029D01*
X-361386Y-405736D01*
X-359994Y-404805D01*
X-359063Y-403413D01*
X-358736Y-401770D01*
X-359063Y-400127D01*
X-359994Y-398735D01*
X-361386Y-397804D01*
X-363029Y-397477D01*
X-369035D01*
X-369089Y-397455D01*
D02*
G37*
G36*
X-291737Y-506193D02*
X-291737Y-506193D01*
X-337457D01*
X-337710Y-506297D01*
X-338727D01*
Y-507315D01*
X-338832Y-507567D01*
Y-515797D01*
X-338838Y-515804D01*
X-339730Y-517957D01*
X-340034Y-520267D01*
X-339730Y-522578D01*
X-338838Y-524730D01*
X-338832Y-524738D01*
Y-532967D01*
X-338727Y-533220D01*
Y-534237D01*
X-337710D01*
X-337457Y-534342D01*
X-292307D01*
X-292107Y-534541D01*
X-291135Y-534944D01*
X-291135Y-534944D01*
X-246685D01*
X-246433Y-534839D01*
X-245415D01*
Y-533822D01*
X-245311Y-533569D01*
Y-513569D01*
X-245415Y-513317D01*
Y-512299D01*
X-246433D01*
X-246685Y-512195D01*
X-285166D01*
X-290467Y-506893D01*
Y-506297D01*
X-291485D01*
X-291737Y-506193D01*
D02*
G37*
%LPD*%
G36*
X-6350Y-172720D02*
X-6350Y-198800D01*
X-7130Y-199580D01*
X-31170D01*
X-32020Y-198730D01*
X-46990D01*
Y-192430D01*
X-32020D01*
X-31170Y-191580D01*
X-23545D01*
X-23545Y-172144D01*
X-19041Y-167640D01*
X-11430Y-167640D01*
X-6350Y-172720D01*
D02*
G37*
G36*
X-369089Y-404710D02*
X-370420Y-404710D01*
X-384810Y-419100D01*
X-384810Y-461916D01*
X-380740Y-465986D01*
X-380604Y-465850D01*
X-373690D01*
Y-450610D01*
X-379690Y-444610D01*
Y-420980D01*
X-359690D01*
Y-444610D01*
X-365690Y-450610D01*
Y-474850D01*
X-380740Y-489900D01*
Y-511986D01*
X-396740D01*
Y-417060D01*
X-378510Y-398830D01*
X-369089D01*
Y-404710D01*
D02*
G37*
G36*
X-285735Y-513569D02*
X-246685D01*
Y-533569D01*
X-291135D01*
X-291737Y-532967D01*
X-337457D01*
Y-507567D01*
X-291737D01*
X-285735Y-513569D01*
D02*
G37*
%LPC*%
G36*
X-358971Y-273451D02*
X-362629D01*
X-363600Y-273644D01*
X-364423Y-274195D01*
X-364974Y-275018D01*
X-365167Y-275989D01*
Y-288791D01*
X-364974Y-289762D01*
X-364423Y-290585D01*
X-363600Y-291136D01*
X-362629Y-291329D01*
X-358971D01*
X-358000Y-291136D01*
X-357177Y-290585D01*
X-356626Y-289762D01*
X-356433Y-288791D01*
Y-275989D01*
X-356626Y-275018D01*
X-357177Y-274195D01*
X-358000Y-273644D01*
X-358971Y-273451D01*
D02*
G37*
G36*
X-346271D02*
X-349929D01*
X-350900Y-273644D01*
X-351723Y-274195D01*
X-352274Y-275018D01*
X-352467Y-275989D01*
Y-288791D01*
X-352274Y-289762D01*
X-351723Y-290585D01*
X-350900Y-291136D01*
X-350690Y-291177D01*
Y-296310D01*
X-353690D01*
Y-306915D01*
X-342510D01*
Y-296310D01*
X-345510D01*
Y-291177D01*
X-345300Y-291136D01*
X-344477Y-290585D01*
X-343926Y-289762D01*
X-343733Y-288791D01*
Y-275989D01*
X-343926Y-275018D01*
X-344477Y-274195D01*
X-345300Y-273644D01*
X-346271Y-273451D01*
D02*
G37*
%LPD*%
D10*
X-332879Y-267831D02*
X-324670Y-276040D01*
X-378326Y-267831D02*
X-332879D01*
X-266700Y-308610D02*
Y-274320D01*
X-269240Y-311150D02*
X-266700Y-308610D01*
X-286296Y-311150D02*
X-269240D01*
X-278130Y-274320D02*
Y-267970D01*
X-288195Y-306410D02*
X-287784Y-306821D01*
Y-309662D02*
X-286296Y-311150D01*
X-294207Y-306410D02*
X-288195D01*
X-287784Y-309662D02*
Y-306821D01*
X-348120Y-242671D02*
X-328759D01*
X-224267Y-191196D02*
X-220220Y-195243D01*
Y-195530D02*
X-217458Y-198293D01*
X-220220Y-195530D02*
Y-195243D01*
X-232724Y-191196D02*
X-224267D01*
X-217458Y-198293D02*
X-207562D01*
X-233070Y-190850D02*
X-232724Y-191196D01*
X-202201Y-192932D02*
Y-139232D01*
X-207562Y-198293D02*
X-202201Y-192932D01*
Y-139232D02*
X-195950Y-132981D01*
X-419440Y-246040D02*
X-419100Y-246380D01*
X-425520Y-246040D02*
X-419440D01*
X-425474Y-169753D02*
Y-169066D01*
X-423694Y-171816D02*
Y-171533D01*
Y-171816D02*
X-414830Y-180680D01*
X-425474Y-169753D02*
X-423694Y-171533D01*
X-414830Y-180680D02*
X-414330D01*
X-411600Y-183910D02*
Y-183410D01*
X-414330Y-180680D02*
X-411600Y-183410D01*
X-397640Y-137742D02*
X-394588Y-134690D01*
X-405430Y-183180D02*
X-397640Y-175390D01*
Y-137742D01*
X-394588Y-134690D02*
X-387470D01*
X-385055Y-137105D01*
X-374025D01*
X-288941Y-100377D02*
X-260303D01*
X-276687Y-247650D02*
Y-247362D01*
Y-265967D02*
Y-247650D01*
X-426705Y-114799D02*
X-421056D01*
X-395816Y-252306D02*
X-378071D01*
X-406520Y-263010D02*
X-395816Y-252306D01*
X-425520Y-276040D02*
X-425450Y-275970D01*
X-406850Y-344170D02*
X-401770Y-349250D01*
X-399680D01*
X-406850Y-344170D02*
Y-327540D01*
X-425450Y-344170D02*
X-406850D01*
X-399680Y-349250D02*
X-360680D01*
X-283210Y-240840D02*
X-276687Y-247362D01*
X-283210Y-240840D02*
Y-179070D01*
X-327388Y-241300D02*
X-307340D01*
X-328759Y-242671D02*
X-327388Y-241300D01*
X-368436Y-242671D02*
X-348120D01*
X-271020Y-217392D02*
X-268258Y-214630D01*
X-267970D01*
X-276860Y-223520D02*
X-271020Y-217680D01*
Y-217392D01*
X-276860Y-234950D02*
Y-223520D01*
X-378071Y-252306D02*
X-368615Y-242850D01*
X-348120Y-242417D02*
Y-227546D01*
X-172720Y-54610D02*
Y-36830D01*
X-195950Y-77840D02*
X-172720Y-54610D01*
X-152400Y-193040D02*
Y-129116D01*
X-137584Y-114300D01*
X-123840D01*
X-162560Y-26670D02*
X-108768D01*
X-172720Y-36830D02*
X-162560Y-26670D01*
X-195950Y-129981D02*
Y-77840D01*
X-410870Y-183180D02*
X-405430D01*
X-411600Y-183910D02*
X-410870Y-183180D01*
X-108768Y-26670D02*
X-93470Y-11372D01*
X-195950Y-131481D02*
Y-129981D01*
X-171450Y-222520D02*
X-170220Y-221290D01*
X-169595D02*
X-167587Y-219282D01*
X-135048D01*
X-171450Y-225320D02*
Y-222520D01*
X-170220Y-221290D02*
X-169595D01*
X-135048Y-219282D02*
X-119400Y-234930D01*
X-198730Y-224190D02*
X-197600Y-225320D01*
X-171450D01*
X-119400Y-234930D02*
X-42970D01*
X-406850Y-327540D02*
Y-327485D01*
X-356829Y-370170D02*
Y-353101D01*
X-360680Y-349250D02*
X-356829Y-353101D01*
X-363029Y-376370D02*
X-356829Y-370170D01*
X-369089Y-376370D02*
X-363029D01*
X-397465Y-281985D02*
Y-278175D01*
X-383540Y-311150D02*
Y-295910D01*
X-397510Y-278130D02*
X-397465Y-278175D01*
Y-281985D02*
X-383540Y-295910D01*
Y-311150D02*
X-367030Y-327660D01*
Y-176530D02*
X-366880Y-176380D01*
Y-169510D02*
X-366750Y-169380D01*
X-366880Y-176380D02*
Y-169510D01*
X-367030Y-176530D02*
X-363220Y-180340D01*
Y-197295D02*
Y-180340D01*
X-373212Y-207287D02*
X-363220Y-197295D01*
X-361620Y-175550D02*
X-351170Y-186000D01*
X-361750Y-169380D02*
X-361620Y-169510D01*
X-351170Y-194310D02*
Y-186000D01*
X-361620Y-175550D02*
Y-169510D01*
X-416392Y-41090D02*
X-396360Y-61122D01*
X-418458Y-41090D02*
X-416392D01*
X-396360Y-61410D02*
Y-61122D01*
X-418458Y-66490D02*
X-408298Y-76650D01*
X-396274D01*
X-426754Y-114750D02*
X-426196Y-114193D01*
Y-108108D02*
X-423498Y-105410D01*
X-426196Y-114193D02*
Y-108108D01*
X-423498Y-105410D02*
X-407728D01*
X-426754Y-114750D02*
X-426705Y-114799D01*
X-396274Y-93956D02*
Y-93668D01*
X-407728Y-105410D02*
X-396274Y-93956D01*
Y-93380D02*
X-387983Y-85090D01*
X-396274Y-93668D02*
Y-93380D01*
X-387983Y-85090D02*
X-371160D01*
X-364980Y-91270D02*
X-354450D01*
X-371160Y-85090D02*
X-364980Y-91270D01*
X-260303Y-100377D02*
X-245110Y-115570D01*
X-210361D02*
X-195950Y-129981D01*
X-245110Y-115570D02*
X-210361D01*
X-195950Y-132981D02*
Y-131481D01*
X-93470Y-11372D02*
X-64828D01*
X-55880Y-20320D01*
Y-130310D02*
Y-20320D01*
X-78740Y-153670D02*
Y-153170D01*
X-55880Y-130310D01*
X-322700Y-282390D02*
Y-277818D01*
X-324670Y-276040D02*
X-324478D01*
X-322700Y-277818D01*
X-278130Y-267410D02*
X-276687Y-265967D01*
X-294207Y-267410D02*
X-278130D01*
X-237063Y-267580D02*
X-236892Y-267410D01*
X-251070Y-267580D02*
X-237063D01*
X-251460Y-267970D02*
X-251070Y-267580D01*
X-206809Y-310660D02*
X-199940Y-317529D01*
Y-318529D02*
Y-317529D01*
X-206809Y-310660D02*
Y-307400D01*
X-209039Y-305170D02*
X-206809Y-307400D01*
X-199938Y-318531D02*
X-189420D01*
X-199940Y-318529D02*
X-199938Y-318531D01*
X-206000Y-256550D02*
X-199390Y-263160D01*
X-208230Y-250190D02*
X-206000Y-252420D01*
X-199390Y-264160D02*
Y-263160D01*
X-206000Y-256550D02*
Y-252420D01*
X-199390Y-264160D02*
X-189230D01*
X-199539Y-280670D02*
X-179614Y-300595D01*
X-171599D01*
X-104305D01*
X-42970Y-361930D01*
X-199539Y-280670D02*
Y-279170D01*
X-171599Y-302770D02*
Y-300595D01*
X-351740Y-93980D02*
X-345440D01*
X-354450Y-91270D02*
X-351740Y-93980D01*
X-345440D02*
X-341750Y-97670D01*
Y-119830D02*
Y-97670D01*
X-320538Y-131975D02*
X-304800Y-116237D01*
X-324345Y-131975D02*
X-320538D01*
X-304800Y-116237D02*
Y-116237D01*
X-324475Y-132105D02*
X-324345Y-131975D01*
X-304800Y-116237D02*
X-288941Y-100377D01*
X-193300Y-432299D02*
Y-404450D01*
X-193160Y-404310D01*
X-269360Y-418280D02*
Y-404310D01*
Y-432299D02*
Y-418280D01*
X-231260D02*
Y-404310D01*
Y-432229D02*
Y-418280D01*
X-231330Y-432299D02*
X-231260Y-432229D01*
X-93470Y-35050D02*
Y-11372D01*
X-95250Y-36830D02*
X-93470Y-35050D01*
X-66040Y-182880D02*
X-46990D01*
X-78740Y-170180D02*
X-66040Y-182880D01*
X-78740Y-170180D02*
Y-153670D01*
X-367030Y-327660D02*
X-342900D01*
X-322700Y-227526D02*
X-307536D01*
X-307340Y-227330D01*
X-335400Y-301613D02*
Y-282390D01*
X-348100Y-301613D02*
Y-282390D01*
X-119380Y-82550D02*
X-99729D01*
X-123840Y-87010D02*
X-119380Y-82550D01*
X-123840Y-114300D02*
Y-87010D01*
D17*
X-234190Y-134850D02*
X-219940D01*
X-274440Y-118530D02*
X-273940D01*
X-268009Y-124460D01*
X-243580D01*
X-234190Y-134850D02*
Y-133850D01*
X-243580Y-124460D02*
X-234190Y-133850D01*
X-242670Y-166370D02*
X-219710D01*
X-251190Y-157850D02*
X-242670Y-166370D01*
X-251190Y-157850D02*
Y-156850D01*
X-254810Y-160470D02*
X-251190Y-156850D01*
X-274440Y-160470D02*
X-254810D01*
X-300995Y-137105D02*
X-296420Y-132530D01*
X-324475Y-137105D02*
X-300995D01*
X-324475Y-142105D02*
X-324340Y-142240D01*
X-302260D01*
X-298030Y-146469D01*
X-274440D01*
X-274021Y-146050D02*
X-243990D01*
X-274440Y-146469D02*
X-274021Y-146050D01*
X-234190Y-156850D02*
Y-155850D01*
X-243990Y-146050D02*
X-234190Y-155850D01*
D18*
X-344170Y-260350D02*
Y-252730D01*
X-237022Y-293539D02*
X-236892Y-293410D01*
X-249902Y-293668D02*
X-249773Y-293539D01*
X-237022D01*
X-282512Y-319794D02*
X-268123D01*
X-267731Y-319402D02*
X-266062D01*
X-301555Y-325514D02*
X-281939D01*
X-280669Y-324244D01*
X-313780Y-313289D02*
X-301555Y-325514D01*
X-268270Y-324244D02*
X-267878Y-324636D01*
X-266062Y-319402D02*
X-265430Y-318770D01*
X-266210Y-324636D02*
X-265578Y-325268D01*
X-267878Y-324636D02*
X-266210D01*
X-280669Y-324244D02*
X-268270D01*
X-268123Y-319794D02*
X-267731Y-319402D01*
X-283782Y-321064D02*
X-282512Y-319794D01*
X-299711Y-321064D02*
X-283782D01*
X-327165Y-308839D02*
X-311937D01*
X-299711Y-321064D01*
X-321430Y-316680D02*
X-318319Y-313569D01*
X-317058D02*
X-316777Y-313289D01*
X-318319Y-313569D02*
X-317058D01*
X-316777Y-313289D02*
X-313780D01*
X-276750Y-286910D02*
X-272218Y-282378D01*
Y-269678D01*
X-261620Y-259080D01*
X-294207Y-299910D02*
X-282324D01*
X-277293Y-304941D01*
X-313173Y-276159D02*
Y-251937D01*
X-308629Y-288023D02*
Y-280703D01*
X-313173Y-276159D02*
X-308629Y-280703D01*
X-309617Y-274391D02*
Y-255546D01*
Y-274391D02*
X-303695Y-280314D01*
X-294304D02*
X-294207Y-280410D01*
X-303695Y-280314D02*
X-294304D01*
X-308629Y-288023D02*
X-303516Y-293135D01*
X-294482D01*
X-294207Y-293410D01*
X-306061Y-271372D02*
X-303839Y-273594D01*
X-309617Y-255546D02*
X-295910Y-241839D01*
X-318730Y-246380D02*
X-313173Y-251937D01*
X-306061Y-271372D02*
Y-258477D01*
X-288670Y-241086D01*
X-295910Y-241839D02*
Y-214630D01*
X-311445Y-152105D02*
X-290830Y-172720D01*
X-324475Y-152105D02*
X-311445D01*
X-290830Y-172720D02*
X-235397D01*
X-230317Y-177800D02*
X-212090D01*
X-235397Y-172720D02*
X-230317Y-177800D01*
X-360800Y-227526D02*
Y-226104D01*
X-374856Y-223970D02*
X-362934D01*
X-360800Y-226104D01*
X-239575Y-99356D02*
X-238760Y-100171D01*
Y-105410D02*
Y-100171D01*
X-254073Y-187960D02*
X-253131Y-188902D01*
X-259080Y-187960D02*
X-254073D01*
X-175260Y-105410D02*
Y-74930D01*
X-165100Y-152400D02*
Y-115570D01*
X-175260Y-105410D02*
X-165100Y-115570D01*
X-170181Y-157481D02*
X-165100Y-152400D01*
X-186450Y-157481D02*
X-170181D01*
X-186918Y-146050D02*
X-177800D01*
X-187960Y-145008D02*
X-186918Y-146050D01*
X-187960Y-145008D02*
Y-95655D01*
X-186095Y-93790D01*
X-155585Y-95250D02*
X-151731D01*
X-157480Y-97145D02*
X-155585Y-95250D01*
X-160020Y-157480D02*
X-157480Y-154940D01*
Y-97145D01*
X-160020Y-203200D02*
Y-157480D01*
X-171450Y-214630D02*
X-160020Y-203200D01*
X-187960Y-214630D02*
X-171450D01*
X-217170Y-213360D02*
X-189230D01*
X-187960Y-214630D01*
X-382593Y-183127D02*
Y-179393D01*
X-378460Y-175260D01*
X-382593Y-171127D02*
X-378460Y-175260D01*
X-382593Y-171127D02*
Y-162120D01*
X-378089Y-157616D02*
X-374536D01*
X-382593Y-162120D02*
X-378089Y-157616D01*
X-383885Y-155663D02*
X-383637D01*
X-380079Y-152105D01*
X-383885Y-155857D02*
Y-155663D01*
X-382650Y-148021D02*
X-382193Y-147563D01*
X-380079Y-152105D02*
X-374025D01*
X-387470Y-192220D02*
Y-159442D01*
X-383885Y-155857D01*
X-382193Y-147563D02*
X-374483D01*
X-374025Y-147105D01*
X-374536Y-157616D02*
X-374025Y-157105D01*
X-413855Y-170133D02*
Y-160185D01*
X-411600Y-157930D01*
X-390044Y-140446D02*
X-389151D01*
X-387452Y-142145D02*
X-374065D01*
X-389151Y-140446D02*
X-387452Y-142145D01*
X-380960Y-132065D02*
X-374065D01*
X-381000Y-132025D02*
X-380960Y-132065D01*
X-374065D02*
X-374025Y-132105D01*
X-374065Y-142145D02*
X-374025Y-142105D01*
X-310053Y-209550D02*
X-307340Y-212263D01*
X-313690Y-209550D02*
X-310053D01*
X-368554Y-104140D02*
X-358964D01*
X-374269Y-103251D02*
X-369443D01*
X-374650Y-102870D02*
X-374269Y-103251D01*
X-369443D02*
X-368554Y-104140D01*
X-366076Y-99060D02*
X-353761D01*
X-346750Y-106072D01*
X-389924Y-236254D02*
Y-223970D01*
X-394970Y-241300D02*
X-389924Y-236254D01*
X-426667Y-157642D02*
X-416096Y-147071D01*
X-426667Y-157930D02*
Y-157642D01*
X-416096Y-147071D02*
X-414711D01*
X-411600Y-143960D01*
X-384810Y-109220D02*
X-383990Y-108400D01*
Y-108515D02*
Y-108400D01*
X-381000Y-124460D02*
X-380368Y-125092D01*
X-377889D01*
X-382593Y-183127D02*
X-376931Y-188789D01*
X-374025Y-162105D02*
X-372175D01*
X-371664Y-179892D02*
Y-162616D01*
X-370840Y-181610D02*
Y-180716D01*
X-371664Y-179892D02*
X-370840Y-180716D01*
X-372175Y-162105D02*
X-371664Y-162616D01*
X-375875Y-127105D02*
X-374025D01*
X-377889Y-125092D02*
X-375875Y-127105D01*
X-288670Y-241086D02*
Y-221562D01*
X-399825Y-119544D02*
X-367036D01*
X-366750Y-119830D01*
X-373830Y-114750D02*
X-372110Y-113030D01*
X-411686Y-114750D02*
X-373830D01*
X-362388Y-119192D02*
Y-115132D01*
X-372110Y-113030D02*
X-364490D01*
X-362388Y-119192D02*
X-361750Y-119830D01*
X-364490Y-113030D02*
X-362388Y-115132D01*
X-381206Y-93956D02*
Y-93668D01*
X-384810Y-108515D02*
Y-97559D01*
X-381206Y-93956D01*
X-372617Y-108400D02*
X-362770D01*
X-373437Y-109220D02*
X-372617Y-108400D01*
X-383285Y-109220D02*
X-373437D01*
X-383990Y-108515D02*
X-383285Y-109220D01*
X-362770Y-108400D02*
X-356750Y-114420D01*
X-250017Y-199563D02*
X-242570Y-207010D01*
X-79450Y-30480D02*
X-77950D01*
X-69060Y-21590D01*
X-66040D01*
X-313888Y-147184D02*
X-313810Y-147262D01*
X-324475Y-147105D02*
X-324397Y-147184D01*
X-313888D01*
X-324444Y-157137D02*
X-316889D01*
X-324475Y-157105D02*
X-324444Y-157137D01*
X-316889D02*
X-316858Y-157168D01*
X-324475Y-162105D02*
X-319541D01*
X-316858Y-164788D01*
X-381206Y-76650D02*
X-373500D01*
X-366642D02*
Y-76348D01*
X-381293Y-61698D02*
X-366642Y-76348D01*
X-381293Y-61698D02*
Y-61410D01*
X-358964Y-104140D02*
X-353434Y-109670D01*
X-371976Y-93160D02*
X-366076Y-99060D01*
X-346750Y-119830D02*
Y-106072D01*
X-353434Y-110563D02*
X-351750Y-112247D01*
Y-119830D02*
Y-112247D01*
X-353434Y-110563D02*
Y-109670D01*
X-356750Y-119830D02*
Y-114420D01*
X-376931Y-189077D02*
X-373788Y-192220D01*
X-376931Y-189077D02*
Y-188789D01*
X-373788Y-192220D02*
X-373500D01*
X-344170Y-252730D02*
X-340360Y-248920D01*
X-411686Y-114750D02*
X-411600Y-114836D01*
Y-128720D02*
Y-114836D01*
X-116840Y-186690D02*
Y-165100D01*
X-107950Y-195580D02*
X-100640D01*
X-116840Y-186690D02*
X-107950Y-195580D01*
X-116840Y-165100D02*
X-107751Y-156011D01*
X-104640Y-152400D02*
X-104140D01*
X-107751Y-155511D02*
X-104640Y-152400D01*
X-107751Y-156011D02*
Y-155511D01*
X-138430Y-205169D02*
X-135319Y-208280D01*
X-100640D01*
X-138430Y-205169D02*
Y-199450D01*
X-303839Y-273594D02*
X-294524D01*
X-294207Y-273910D01*
X-261620Y-247650D02*
Y-238760D01*
X-362070Y-316680D02*
X-347812D01*
X-341621Y-310489D02*
X-328815D01*
X-327165Y-308839D01*
X-347812Y-316680D02*
X-341621Y-310489D01*
X-294207Y-286910D02*
X-276750D01*
X-261620Y-259080D02*
Y-247650D01*
X-223139Y-273910D02*
X-214390Y-265161D01*
Y-264161D01*
X-236892Y-273910D02*
X-223139D01*
X-227124Y-287226D02*
X-223042Y-291308D01*
X-226060Y-313690D02*
X-223042Y-310672D01*
Y-291308D01*
X-236892Y-280410D02*
X-223780D01*
X-217170Y-287020D01*
Y-316300D02*
Y-287020D01*
X-236892Y-286910D02*
X-236576Y-287226D01*
X-227124D01*
X-217170Y-316300D02*
X-214940Y-318530D01*
X-226060Y-327660D02*
Y-313690D01*
Y-327660D02*
X-220980Y-332740D01*
X-182794Y-338649D02*
X-182506D01*
X-220980Y-332740D02*
X-188703D01*
X-179363Y-342080D02*
Y-341792D01*
X-182506Y-338649D02*
X-179363Y-341792D01*
X-188703Y-332740D02*
X-182794Y-338649D01*
X-220606D02*
X-217463Y-341792D01*
X-236709Y-322834D02*
X-220894Y-338649D01*
X-236709Y-322834D02*
Y-306594D01*
X-220894Y-338649D02*
X-220606D01*
X-217463Y-342080D02*
Y-341792D01*
X-236892Y-306410D02*
X-236709Y-306594D01*
X-254293Y-303823D02*
X-250380Y-299910D01*
X-236892D01*
X-254293Y-342080D02*
Y-303823D01*
X-335400Y-316680D02*
X-321430D01*
X-151130Y-417322D02*
Y-416941D01*
Y-417322D02*
X-149860Y-418592D01*
X-151130Y-423291D02*
Y-422910D01*
X-149860Y-421640D01*
X-115570D01*
X-149860Y-418592D02*
X-114307D01*
X-57535Y-475365D01*
Y-475365D02*
Y-475365D01*
Y-475365D02*
X-56642Y-476258D01*
Y-500373D02*
Y-476258D01*
X-57535Y-501265D02*
X-56642Y-500373D01*
X-57535Y-501265D02*
Y-501265D01*
X-115570Y-421640D02*
X-59690Y-477520D01*
Y-499110D02*
Y-477520D01*
X-65539Y-509270D02*
X-57535Y-501265D01*
X-112592Y-509270D02*
X-65539D01*
X-66802Y-506222D02*
X-59690Y-499110D01*
X-160344Y-506222D02*
X-66802D01*
X-175405Y-521283D02*
X-160344Y-506222D01*
X-124605Y-521283D02*
X-112592Y-509270D01*
X-274440Y-132530D02*
X-253510D01*
X-251190Y-134850D01*
X-288020Y-132530D02*
X-274440D01*
X-244109Y-195311D02*
X-226060Y-213360D01*
X-217170D01*
X-252070Y-193200D02*
Y-190850D01*
Y-193200D02*
X-249959Y-195311D01*
X-244109D01*
X-242570Y-215550D02*
Y-207010D01*
X-267970Y-199563D02*
X-250017D01*
X-177800Y-199458D02*
X-177733Y-199391D01*
X-177800Y-208280D02*
Y-199458D01*
X-170300Y-441800D02*
X-170004Y-442096D01*
Y-466350D02*
Y-442096D01*
X-188334Y-483180D02*
X-171504Y-466350D01*
X-170004D01*
X-188334Y-507312D02*
Y-483180D01*
X-208104Y-472594D02*
Y-466350D01*
X-213226Y-477716D02*
X-208104Y-472594D01*
X-208330Y-466124D02*
X-208104Y-466350D01*
X-208330Y-466124D02*
Y-441800D01*
X-246360Y-466194D02*
Y-441800D01*
Y-466194D02*
X-246204Y-466350D01*
X-244795Y-471475D02*
Y-467759D01*
X-246204Y-466350D02*
X-244795Y-467759D01*
Y-471475D02*
X-226205Y-490065D01*
Y-491565D02*
Y-490065D01*
X-225605Y-84289D02*
X-209095D01*
X-239575D02*
X-225605D01*
X-192800Y-185421D02*
Y-172721D01*
Y-199391D02*
Y-185421D01*
Y-171721D02*
X-186450Y-165371D01*
Y-157481D01*
X-192800Y-172721D02*
Y-171721D01*
X-85090Y-46990D02*
X-79450Y-41350D01*
Y-30480D01*
X-110317Y-37118D02*
X-107174Y-40261D01*
X-100157Y-46990D02*
X-85090D01*
X-110317Y-37118D02*
Y-36830D01*
X-107174Y-40261D02*
X-106886D01*
X-100157Y-46990D01*
X-124460Y-36830D02*
X-110317D01*
X-151731Y-95250D02*
X-138430D01*
X-135890Y-92710D01*
Y-73660D01*
X-139700Y-69850D02*
X-135890Y-73660D01*
X-151731Y-69850D02*
X-139700D01*
X-99574Y-102348D02*
Y-95404D01*
X-86708Y-115215D02*
X-77335D01*
X-99574Y-102348D02*
X-86708Y-115215D01*
X-99729Y-95250D02*
X-99574Y-95404D01*
X-77335Y-115215D02*
X-75050Y-117500D01*
X-94779Y-69850D02*
X-75050Y-89579D01*
Y-92500D02*
Y-89579D01*
X-99729Y-69850D02*
X-94779D01*
X-100640Y-170180D02*
X-98609D01*
X-96520Y-168091D01*
Y-165100D01*
X-46990Y-170180D02*
Y-153670D01*
X-162342Y-535120D02*
X-150005Y-522783D01*
X-213226Y-529278D02*
X-207384Y-535120D01*
X-162342D01*
X-200805Y-519783D02*
X-188334Y-507312D01*
X-200805Y-521283D02*
Y-519783D01*
X-150005Y-522783D02*
Y-521283D01*
X-213226Y-529278D02*
Y-477716D01*
D23*
X-420850Y-313570D02*
D03*
X-406850D02*
D03*
X-420850Y-327540D02*
D03*
X-406850D02*
D03*
X-123840Y-114300D02*
D03*
X-109840D02*
D03*
X-369690Y-470350D02*
D03*
X-355690D02*
D03*
X-46990Y-153670D02*
D03*
X-32989D02*
D03*
X-369690Y-455110D02*
D03*
X-355690D02*
D03*
X-78740Y-153670D02*
D03*
X-64739D02*
D03*
X-138461Y-36830D02*
D03*
X-124460D02*
D03*
X-406850Y-299600D02*
D03*
X-420850D02*
D03*
X-411600Y-225820D02*
D03*
X-425601D02*
D03*
X-411600Y-211850D02*
D03*
X-425601D02*
D03*
X-411600Y-197880D02*
D03*
X-425601D02*
D03*
X-411600Y-183910D02*
D03*
X-425601D02*
D03*
X-337170Y-194310D02*
D03*
X-351170D02*
D03*
X-411600Y-128720D02*
D03*
X-425601D02*
D03*
D24*
X-273127Y-100709D02*
D03*
Y-86708D02*
D03*
X-26670Y-195580D02*
D03*
Y-209580D02*
D03*
X-104140Y-152400D02*
D03*
Y-138399D02*
D03*
X-362070Y-316680D02*
D03*
Y-302680D02*
D03*
X-321430Y-316680D02*
D03*
Y-302680D02*
D03*
X-378071Y-252306D02*
D03*
Y-238306D02*
D03*
X-274440Y-146469D02*
D03*
Y-160470D02*
D03*
Y-132530D02*
D03*
Y-118530D02*
D03*
X-288290Y-100980D02*
D03*
Y-86980D02*
D03*
X-354450Y-91270D02*
D03*
Y-77270D02*
D03*
D25*
X-171599Y-279170D02*
D03*
Y-302770D02*
D03*
X-171450Y-248920D02*
D03*
Y-225320D02*
D03*
D26*
X-194570Y-389680D02*
D03*
X-171570Y-380180D02*
D03*
X-194570Y-370679D02*
D03*
X-269360Y-451300D02*
D03*
X-246360Y-441800D02*
D03*
X-269360Y-432299D02*
D03*
X-231330Y-451300D02*
D03*
X-208330Y-441800D02*
D03*
X-231330Y-432299D02*
D03*
X-193300Y-451300D02*
D03*
X-170300Y-441800D02*
D03*
X-193300Y-432299D02*
D03*
X-232670Y-389680D02*
D03*
X-209670Y-380180D02*
D03*
X-232670Y-370679D02*
D03*
X-269500Y-389680D02*
D03*
X-246500Y-380180D02*
D03*
X-269500Y-370679D02*
D03*
X-209095Y-84289D02*
D03*
X-186095Y-93790D02*
D03*
X-209095Y-103290D02*
D03*
D27*
X-246204Y-466350D02*
D03*
X-269656D02*
D03*
X-208104D02*
D03*
X-231556D02*
D03*
X-170004D02*
D03*
X-193456D02*
D03*
D28*
X-388740Y-563474D02*
D03*
Y-488986D02*
D03*
D29*
X-325689Y-430980D02*
D03*
X-369690D02*
D03*
D30*
X-318890Y-339232D02*
D03*
Y-399230D02*
D03*
D31*
X-369089Y-401770D02*
D03*
Y-389070D02*
D03*
Y-376370D02*
D03*
Y-363670D02*
D03*
X-421091Y-401770D02*
D03*
Y-389070D02*
D03*
Y-376370D02*
D03*
Y-363670D02*
D03*
X-151731Y-57150D02*
D03*
Y-69850D02*
D03*
Y-82550D02*
D03*
Y-95250D02*
D03*
X-99729Y-57150D02*
D03*
Y-69850D02*
D03*
Y-82550D02*
D03*
Y-95250D02*
D03*
D32*
X-186450Y-157481D02*
D03*
X-195950Y-131481D02*
D03*
X-176950D02*
D03*
X-198730Y-224190D02*
D03*
X-189230Y-250190D02*
D03*
X-208230D02*
D03*
X-199539Y-279170D02*
D03*
X-190039Y-305170D02*
D03*
X-209039D02*
D03*
D33*
X-192800Y-172721D02*
D03*
X-177800Y-172720D02*
D03*
Y-185420D02*
D03*
X-192800Y-185421D02*
D03*
X-189230Y-264160D02*
D03*
X-174230Y-264159D02*
D03*
X-214390Y-264161D02*
D03*
X-199390Y-264160D02*
D03*
X-189420Y-318531D02*
D03*
X-174420Y-318530D02*
D03*
X-199940Y-318529D02*
D03*
X-214940Y-318530D02*
D03*
D34*
X-46990Y-208280D02*
D03*
Y-195580D02*
D03*
Y-182880D02*
D03*
Y-170180D02*
D03*
X-100640Y-208280D02*
D03*
Y-195580D02*
D03*
Y-182880D02*
D03*
Y-170180D02*
D03*
D35*
X-11430Y-208381D02*
D03*
Y-195580D02*
D03*
D36*
X-236892Y-306410D02*
D03*
Y-299910D02*
D03*
Y-293410D02*
D03*
Y-286910D02*
D03*
Y-280410D02*
D03*
Y-273910D02*
D03*
Y-267410D02*
D03*
Y-260910D02*
D03*
X-294207Y-306410D02*
D03*
Y-299910D02*
D03*
Y-293410D02*
D03*
Y-286910D02*
D03*
Y-280410D02*
D03*
Y-273910D02*
D03*
Y-267410D02*
D03*
Y-260910D02*
D03*
D37*
X-416680Y-466091D02*
D03*
Y-422090D02*
D03*
D38*
X-233070Y-190850D02*
D03*
X-252070D02*
D03*
X-242570Y-215550D02*
D03*
D39*
X-138430Y-140910D02*
D03*
Y-196910D02*
D03*
D40*
X-425520Y-276040D02*
D03*
X-416020D02*
D03*
X-406520D02*
D03*
Y-246040D02*
D03*
X-425520D02*
D03*
D41*
X-360800Y-282390D02*
D03*
Y-227526D02*
D03*
X-348100Y-282390D02*
D03*
X-335400D02*
D03*
X-348100Y-227526D02*
D03*
X-335400D02*
D03*
X-322700Y-282390D02*
D03*
Y-227526D02*
D03*
D42*
X-251190Y-156850D02*
D03*
Y-134850D02*
D03*
X-234190D02*
D03*
Y-156850D02*
D03*
D43*
X-296420Y-132530D02*
D03*
X-288020D02*
D03*
D44*
X-411600Y-143960D02*
D03*
X-427589Y-144030D02*
D03*
D45*
X-9450Y-30480D02*
D03*
X-79450D02*
D03*
D46*
X-331750Y-56330D02*
D03*
D47*
X-352781D02*
D03*
D48*
X-331750Y-81340D02*
D03*
Y-89740D02*
D03*
D94*
X-194430Y-356050D02*
D03*
X-179363D02*
D03*
Y-342080D02*
D03*
X-194430D02*
D03*
X-269360Y-404310D02*
D03*
X-254293D02*
D03*
Y-418280D02*
D03*
X-269360D02*
D03*
X-216193D02*
D03*
X-231260D02*
D03*
Y-404310D02*
D03*
X-216193D02*
D03*
X-232530Y-356050D02*
D03*
X-217463D02*
D03*
Y-342080D02*
D03*
X-232530D02*
D03*
X-254293D02*
D03*
X-269360D02*
D03*
Y-356050D02*
D03*
X-254293D02*
D03*
X-178093Y-418280D02*
D03*
X-193160D02*
D03*
Y-404310D02*
D03*
X-178093D02*
D03*
X-177733Y-199391D02*
D03*
X-192800D02*
D03*
X-110317Y-36830D02*
D03*
X-95250D02*
D03*
X-389924Y-223970D02*
D03*
X-374856D02*
D03*
X-261620Y-247650D02*
D03*
X-276687D02*
D03*
X-426667Y-157930D02*
D03*
X-411600D02*
D03*
X-411686Y-114750D02*
D03*
X-426754D02*
D03*
X-396274Y-93668D02*
D03*
X-381206D02*
D03*
X-396274Y-76650D02*
D03*
X-381206D02*
D03*
X-396360Y-61410D02*
D03*
X-381293D02*
D03*
D95*
X-225605Y-84289D02*
D03*
Y-99356D02*
D03*
X-239575Y-84289D02*
D03*
Y-99356D02*
D03*
X-267970Y-199563D02*
D03*
Y-214630D02*
D03*
X-217170Y-213360D02*
D03*
Y-198293D02*
D03*
X-307340Y-212263D02*
D03*
Y-227330D02*
D03*
X-373500Y-207287D02*
D03*
Y-192220D02*
D03*
X-387470Y-207287D02*
D03*
Y-192220D02*
D03*
X-335400Y-301613D02*
D03*
Y-316680D02*
D03*
X-348100Y-301613D02*
D03*
Y-316680D02*
D03*
X-378326Y-282898D02*
D03*
Y-267831D02*
D03*
D96*
X-320848Y-100780D02*
D03*
X-331750D02*
D03*
Y-70300D02*
D03*
X-320848D02*
D03*
D97*
X-331750Y-119830D02*
D03*
X-336750D02*
D03*
X-341750D02*
D03*
X-346750D02*
D03*
X-351750D02*
D03*
X-356750D02*
D03*
X-361750D02*
D03*
X-366750D02*
D03*
Y-169380D02*
D03*
X-361750D02*
D03*
X-356750D02*
D03*
X-351750D02*
D03*
X-346750D02*
D03*
X-341750D02*
D03*
X-336750D02*
D03*
X-331750D02*
D03*
D98*
X-374025Y-127105D02*
D03*
Y-132105D02*
D03*
Y-137105D02*
D03*
Y-142105D02*
D03*
Y-147105D02*
D03*
Y-152105D02*
D03*
Y-157105D02*
D03*
Y-162105D02*
D03*
X-324475D02*
D03*
Y-157105D02*
D03*
Y-152105D02*
D03*
Y-147105D02*
D03*
Y-142105D02*
D03*
Y-137105D02*
D03*
Y-132105D02*
D03*
Y-127105D02*
D03*
D99*
X-349250Y-144605D02*
D03*
D100*
X-242500Y-179070D02*
X-233070Y-188500D01*
X-283210Y-179070D02*
X-242500D01*
X-233070Y-190850D02*
Y-188500D01*
X-297180Y-179070D02*
X-283210D01*
X-373212Y-207287D02*
X-325397D01*
X-373500D02*
X-373212D01*
X-325397D02*
X-297180Y-179070D01*
X-387470Y-207287D02*
X-373500D01*
X-392320Y-211850D02*
X-387758Y-207287D01*
X-411600Y-211850D02*
X-392320D01*
X-387758Y-207287D02*
X-387470D01*
X-171450Y-251720D02*
Y-246120D01*
X-171599Y-279170D02*
Y-277406D01*
X-166062Y-276811D02*
X-163830Y-274579D01*
X-170855Y-252315D02*
X-170000D01*
X-171004Y-276811D02*
X-166062D01*
X-171450Y-251720D02*
X-170855Y-252315D01*
X-163830Y-274579D02*
Y-258485D01*
X-171599Y-277406D02*
X-171004Y-276811D01*
X-170000Y-252315D02*
X-163830Y-258485D01*
X-171450Y-246120D02*
X-161685Y-236355D01*
X-146395D02*
X-144970Y-234930D01*
X-161685Y-236355D02*
X-146395D01*
X-269430Y-370609D02*
Y-342150D01*
X-269360Y-342080D01*
X-269500Y-370679D02*
X-269430Y-370609D01*
X-194500D02*
Y-342150D01*
X-194570Y-370679D02*
X-194500Y-370609D01*
Y-342150D02*
X-194430Y-342080D01*
X-232600Y-370609D02*
Y-342150D01*
X-232670Y-370679D02*
X-232600Y-370609D01*
Y-342150D02*
X-232530Y-342080D01*
X-247500Y-380180D02*
X-246500D01*
X-254293Y-404310D02*
Y-386973D01*
X-247500Y-380180D01*
X-216193Y-385703D02*
X-210670Y-380180D01*
X-216193Y-404310D02*
Y-385703D01*
X-210670Y-380180D02*
X-209670D01*
X-178093Y-385703D02*
X-172570Y-380180D01*
X-171570D01*
X-178093Y-404310D02*
Y-385703D01*
X-177868Y-418055D02*
X-171675D01*
X-178093Y-418280D02*
X-177868Y-418055D01*
X-171675D02*
X-171450Y-417830D01*
X-215968Y-418055D02*
X-209775D01*
X-216193Y-418280D02*
X-215968Y-418055D01*
X-209775D02*
X-209550Y-417830D01*
X-254293Y-418280D02*
X-253843Y-417830D01*
X-247650D01*
X-192300Y-451300D02*
X-185191Y-444192D01*
X-185112D02*
X-182880Y-441960D01*
X-193300Y-451300D02*
X-192300D01*
X-185191Y-444192D02*
X-185112D01*
X-182880Y-441960D02*
Y-436880D01*
X-178093Y-432093D02*
Y-418280D01*
X-182880Y-436880D02*
X-178093Y-432093D01*
X-231556Y-451490D02*
X-230520D01*
X-222250Y-443220D01*
Y-441960D01*
X-218440Y-438150D02*
Y-434340D01*
X-222250Y-441960D02*
X-218440Y-438150D01*
Y-434340D02*
X-216193Y-432093D01*
Y-418280D01*
X-259140Y-433687D02*
X-254293Y-428839D01*
Y-418280D01*
X-259140Y-442080D02*
Y-433687D01*
X-268360Y-451300D02*
X-259140Y-442080D01*
X-269360Y-451300D02*
X-268360D01*
D101*
X-406520Y-299270D02*
Y-276040D01*
D102*
X-422910Y-260350D02*
X-409180D01*
X-406520Y-263010D01*
Y-276040D02*
Y-263010D01*
X-425450Y-275970D02*
Y-262890D01*
X-422910Y-260350D01*
D103*
X-406795Y-327595D02*
X-401385D01*
X-389748Y-339232D02*
X-318890D01*
X-401385Y-327595D02*
X-389748Y-339232D01*
X-406850Y-327540D02*
X-406795Y-327595D01*
X-406850Y-313570D02*
Y-299600D01*
Y-327485D02*
Y-313570D01*
X-358140Y-498786D02*
X-325519Y-466165D01*
X-358140Y-537210D02*
Y-498786D01*
X-346260Y-549090D02*
X-235832D01*
X-325519Y-466165D02*
X-315359D01*
X-358140Y-537210D02*
X-346260Y-549090D01*
X-75112Y-430788D02*
X-43970Y-461930D01*
X-75112Y-430788D02*
X-16630Y-372306D01*
Y-339394D01*
X-143970Y-361930D02*
X-75112Y-430788D01*
X-44970Y-334930D02*
X-21094D01*
X-16630Y-339394D01*
X-144970Y-234930D02*
X-44970Y-334930D01*
X-144970Y-361930D02*
X-143970D01*
X-43970Y-461930D02*
X-42970D01*
X-231260Y-544518D02*
X-59556D01*
X-42970Y-527932D01*
X-235832Y-549090D02*
X-231260Y-544518D01*
X-42970Y-527932D02*
Y-461930D01*
D104*
X-269466Y-451300D02*
X-269360D01*
X-269656Y-466350D02*
Y-451490D01*
X-269466Y-451300D01*
X-193378Y-466272D02*
Y-451378D01*
X-193456Y-466350D02*
X-193378Y-466272D01*
Y-451378D02*
X-193300Y-451300D01*
X-231556Y-466350D02*
Y-451490D01*
X-144970Y-461930D02*
X-115982D01*
X-99292Y-491479D02*
X-99205Y-491565D01*
X-115982Y-461930D02*
X-99292Y-478620D01*
Y-491479D02*
Y-478620D01*
D105*
X-137051Y-568527D02*
D03*
X-213505Y-568781D02*
D03*
D106*
X-256685Y-523569D02*
D03*
D107*
X-315359Y-466165D02*
D03*
X-314597Y-520267D02*
D03*
D108*
X-256685Y-491565D02*
D03*
D109*
X-226205D02*
D03*
X-200805Y-521283D02*
D03*
Y-491565D02*
D03*
X-175405D02*
D03*
X-150005Y-521283D02*
D03*
X-124605Y-491565D02*
D03*
X-150005Y-491565D02*
D03*
X-99205Y-521283D02*
D03*
Y-491565D02*
D03*
X-74567Y-491565D02*
D03*
Y-521283D02*
D03*
X-175405D02*
D03*
X-124605D02*
D03*
X-226205D02*
D03*
D110*
X-75050Y-92500D02*
D03*
D111*
Y-117500D02*
D03*
D112*
X-17970Y-411930D02*
D03*
X-42970Y-461930D02*
D03*
Y-361930D02*
D03*
X-144970Y-461930D02*
D03*
Y-361930D02*
D03*
X-17970Y-284930D02*
D03*
X-42970Y-334930D02*
D03*
Y-234930D02*
D03*
X-144970Y-334930D02*
D03*
Y-234930D02*
D03*
D113*
X-153470Y-11372D02*
D03*
X-113470D02*
D03*
X-173470D02*
D03*
X-133470D02*
D03*
D114*
X-93470D02*
D03*
D115*
X-418458Y-15690D02*
D03*
Y-41090D02*
D03*
Y-66490D02*
D03*
D116*
Y-91890D02*
D03*
D117*
X-344170Y-260350D02*
D03*
X-249902Y-293668D02*
D03*
X-11550Y-14420D02*
D03*
Y-65220D02*
D03*
Y-90620D02*
D03*
Y-116020D02*
D03*
Y-141420D02*
D03*
Y-243020D02*
D03*
Y-268420D02*
D03*
Y-395420D02*
D03*
Y-497020D02*
D03*
Y-522420D02*
D03*
Y-547820D02*
D03*
Y-573220D02*
D03*
X-24250Y-14420D02*
D03*
X-17900Y-52520D02*
D03*
X-24250Y-65220D02*
D03*
X-17900Y-77920D02*
D03*
X-24250Y-90620D02*
D03*
X-17900Y-103320D02*
D03*
X-24250Y-116020D02*
D03*
X-17900Y-128720D02*
D03*
Y-154120D02*
D03*
Y-230320D02*
D03*
X-24250Y-243020D02*
D03*
X-17900Y-255720D02*
D03*
X-24250Y-268420D02*
D03*
Y-395420D02*
D03*
X-17900Y-509720D02*
D03*
X-24250Y-522420D02*
D03*
X-17900Y-535120D02*
D03*
X-24250Y-547820D02*
D03*
X-17900Y-560520D02*
D03*
X-24250Y-573220D02*
D03*
X-36950Y-14420D02*
D03*
X-30600Y-27120D02*
D03*
X-36950Y-39820D02*
D03*
X-30600Y-52520D02*
D03*
X-36950Y-65220D02*
D03*
X-30600Y-77920D02*
D03*
X-36950Y-90620D02*
D03*
X-30600Y-103320D02*
D03*
X-36950Y-116020D02*
D03*
X-30600Y-128720D02*
D03*
Y-179520D02*
D03*
Y-255720D02*
D03*
X-36950Y-268420D02*
D03*
Y-293820D02*
D03*
X-30600Y-306520D02*
D03*
X-36950Y-319220D02*
D03*
Y-420820D02*
D03*
X-30600Y-433520D02*
D03*
X-36950Y-446220D02*
D03*
X-30600Y-484320D02*
D03*
Y-535120D02*
D03*
X-36950Y-547820D02*
D03*
X-30600Y-560520D02*
D03*
X-36950Y-573220D02*
D03*
X-49650Y-14420D02*
D03*
X-43300Y-27120D02*
D03*
X-49650Y-39820D02*
D03*
X-43300Y-52520D02*
D03*
X-49650Y-65220D02*
D03*
X-43300Y-77920D02*
D03*
X-49650Y-90620D02*
D03*
X-43300Y-103320D02*
D03*
X-49650Y-116020D02*
D03*
X-43300Y-128720D02*
D03*
X-49650Y-141420D02*
D03*
X-43300Y-255720D02*
D03*
X-49650Y-268420D02*
D03*
X-43300Y-281120D02*
D03*
X-49650Y-293820D02*
D03*
X-43300Y-306520D02*
D03*
Y-382720D02*
D03*
X-49650Y-420820D02*
D03*
X-43300Y-433520D02*
D03*
X-49650Y-547820D02*
D03*
X-43300Y-560520D02*
D03*
X-49650Y-573220D02*
D03*
X-62350Y-39820D02*
D03*
Y-65220D02*
D03*
Y-90620D02*
D03*
Y-116020D02*
D03*
Y-192220D02*
D03*
Y-243020D02*
D03*
X-56000Y-255720D02*
D03*
X-62350Y-268420D02*
D03*
X-56000Y-281120D02*
D03*
X-62350Y-293820D02*
D03*
X-56000Y-306520D02*
D03*
X-62350Y-370020D02*
D03*
X-56000Y-382720D02*
D03*
X-62350Y-395420D02*
D03*
X-56000Y-433520D02*
D03*
Y-509720D02*
D03*
Y-560520D02*
D03*
X-62350Y-573220D02*
D03*
X-68700Y-52520D02*
D03*
X-75050Y-65220D02*
D03*
X-68700Y-77920D02*
D03*
Y-103320D02*
D03*
Y-204920D02*
D03*
Y-255720D02*
D03*
Y-281120D02*
D03*
Y-357320D02*
D03*
Y-382720D02*
D03*
Y-408120D02*
D03*
Y-535120D02*
D03*
Y-560520D02*
D03*
X-75050Y-573220D02*
D03*
X-87750Y-65220D02*
D03*
Y-90620D02*
D03*
X-81400Y-103320D02*
D03*
X-87750Y-166820D02*
D03*
X-81400Y-179520D02*
D03*
Y-204920D02*
D03*
X-87750Y-217620D02*
D03*
Y-243020D02*
D03*
X-81400Y-255720D02*
D03*
X-87750Y-268420D02*
D03*
X-81400Y-281120D02*
D03*
Y-331920D02*
D03*
X-87750Y-344620D02*
D03*
X-81400Y-357320D02*
D03*
X-87750Y-370020D02*
D03*
X-81400Y-382720D02*
D03*
X-87750Y-395420D02*
D03*
X-81400Y-408120D02*
D03*
X-87750Y-471620D02*
D03*
Y-497020D02*
D03*
X-81400Y-535120D02*
D03*
Y-560520D02*
D03*
X-87750Y-573220D02*
D03*
X-100450Y-217620D02*
D03*
Y-243020D02*
D03*
X-94100Y-255720D02*
D03*
X-100450Y-293820D02*
D03*
Y-319220D02*
D03*
Y-344620D02*
D03*
Y-370020D02*
D03*
Y-420820D02*
D03*
Y-446220D02*
D03*
X-94100Y-458920D02*
D03*
Y-535120D02*
D03*
Y-560520D02*
D03*
X-100450Y-573220D02*
D03*
X-113150Y-65220D02*
D03*
Y-90620D02*
D03*
Y-217620D02*
D03*
Y-243020D02*
D03*
X-106800Y-255720D02*
D03*
X-113150Y-319220D02*
D03*
X-106800Y-331920D02*
D03*
X-113150Y-344620D02*
D03*
X-106800Y-357320D02*
D03*
X-113150Y-370020D02*
D03*
X-106800Y-382720D02*
D03*
Y-458920D02*
D03*
Y-535120D02*
D03*
Y-560520D02*
D03*
X-113150Y-573220D02*
D03*
X-119500Y-52520D02*
D03*
X-125850Y-65220D02*
D03*
X-119500Y-128720D02*
D03*
Y-154120D02*
D03*
X-125850Y-192220D02*
D03*
Y-217620D02*
D03*
Y-268420D02*
D03*
X-119500Y-281120D02*
D03*
X-125850Y-293820D02*
D03*
X-119500Y-306520D02*
D03*
X-125850Y-319220D02*
D03*
X-119500Y-331920D02*
D03*
Y-535120D02*
D03*
X-132200Y-52520D02*
D03*
X-138550Y-65220D02*
D03*
X-132200Y-103320D02*
D03*
X-138550Y-293820D02*
D03*
X-132200Y-306520D02*
D03*
X-138550Y-319220D02*
D03*
Y-446220D02*
D03*
Y-497020D02*
D03*
X-132200Y-535120D02*
D03*
X-151250Y-116020D02*
D03*
X-144900Y-255720D02*
D03*
X-151250Y-268420D02*
D03*
X-144900Y-281120D02*
D03*
X-151250Y-293820D02*
D03*
X-144900Y-306520D02*
D03*
X-151250Y-319220D02*
D03*
Y-395420D02*
D03*
X-144900Y-408120D02*
D03*
Y-535120D02*
D03*
X-163950Y-39820D02*
D03*
X-157600Y-281120D02*
D03*
X-163950Y-293820D02*
D03*
X-157600Y-306520D02*
D03*
X-163950Y-344620D02*
D03*
X-157600Y-382720D02*
D03*
X-163950Y-395420D02*
D03*
Y-420820D02*
D03*
X-157600Y-433520D02*
D03*
Y-560520D02*
D03*
X-163950Y-573220D02*
D03*
X-170300Y-103320D02*
D03*
X-176650Y-116020D02*
D03*
X-170300Y-433520D02*
D03*
Y-560520D02*
D03*
X-176650Y-573220D02*
D03*
X-183000Y-281120D02*
D03*
Y-458920D02*
D03*
Y-560520D02*
D03*
X-189350Y-573220D02*
D03*
X-202050Y-293820D02*
D03*
X-214750Y-141420D02*
D03*
X-208400Y-154120D02*
D03*
Y-204920D02*
D03*
Y-230320D02*
D03*
Y-281120D02*
D03*
Y-433520D02*
D03*
X-221100Y-230320D02*
D03*
X-227450Y-243020D02*
D03*
X-233800Y-230320D02*
D03*
X-240150Y-243020D02*
D03*
Y-497020D02*
D03*
X-233800Y-560520D02*
D03*
X-240150Y-573220D02*
D03*
X-252850Y-116020D02*
D03*
Y-217620D02*
D03*
X-246500Y-230320D02*
D03*
X-252850Y-243020D02*
D03*
X-246500Y-331920D02*
D03*
Y-433520D02*
D03*
Y-560520D02*
D03*
X-252850Y-573220D02*
D03*
X-259200Y-77920D02*
D03*
Y-204920D02*
D03*
Y-230320D02*
D03*
Y-560520D02*
D03*
X-290950Y-116020D02*
D03*
X-284600Y-433520D02*
D03*
Y-458920D02*
D03*
X-303650Y-90620D02*
D03*
X-297300Y-154120D02*
D03*
X-303650Y-166820D02*
D03*
X-310000Y-128720D02*
D03*
X-329050Y-573220D02*
D03*
X-335400Y-560520D02*
D03*
X-341750Y-573220D02*
D03*
X-348100Y-509720D02*
D03*
Y-535120D02*
D03*
Y-560520D02*
D03*
X-354450Y-573220D02*
D03*
X-367150Y-522420D02*
D03*
Y-547820D02*
D03*
X-360800Y-560520D02*
D03*
X-367150Y-573220D02*
D03*
X-379850Y-522420D02*
D03*
X-392550Y-14420D02*
D03*
Y-39820D02*
D03*
Y-522420D02*
D03*
X-398900Y-27120D02*
D03*
X-405250Y-39820D02*
D03*
Y-65220D02*
D03*
Y-90620D02*
D03*
Y-522420D02*
D03*
X-417950Y-497020D02*
D03*
X-411600Y-509720D02*
D03*
X-417950Y-522420D02*
D03*
X-411600Y-535120D02*
D03*
X-417950Y-547820D02*
D03*
X-411600Y-560520D02*
D03*
X-417950Y-573220D02*
D03*
X-424300Y-52520D02*
D03*
Y-77920D02*
D03*
X-430650Y-446220D02*
D03*
Y-497020D02*
D03*
X-424300Y-509720D02*
D03*
X-430650Y-522420D02*
D03*
X-424300Y-535120D02*
D03*
X-430650Y-547820D02*
D03*
X-424300Y-560520D02*
D03*
X-430650Y-573220D02*
D03*
X-265430Y-318770D02*
D03*
X-265578Y-325268D02*
D03*
X-278130Y-274320D02*
D03*
X-277293Y-304941D02*
D03*
X-318730Y-246380D02*
D03*
X-212090Y-177800D02*
D03*
X-419100Y-246380D02*
D03*
X-238760Y-105410D02*
D03*
X-259080Y-187960D02*
D03*
X-194430Y-49980D02*
D03*
Y-56330D02*
D03*
X-175260Y-74930D02*
D03*
X-177800Y-146050D02*
D03*
X-378460Y-175260D02*
D03*
X-383885Y-155663D02*
D03*
X-382650Y-148021D02*
D03*
X-413855Y-170133D02*
D03*
X-425474Y-169066D02*
D03*
X-390044Y-140446D02*
D03*
X-381000Y-132025D02*
D03*
X-313690Y-209550D02*
D03*
X-374650Y-102870D02*
D03*
X-421056Y-114799D02*
D03*
X-394970Y-241300D02*
D03*
X-425450Y-344170D02*
D03*
X-384810Y-109220D02*
D03*
X-381000Y-124460D02*
D03*
X-370840Y-181610D02*
D03*
X-295910Y-214630D02*
D03*
X-288670Y-221562D02*
D03*
X-307340Y-241300D02*
D03*
X-399825Y-119544D02*
D03*
X-276860Y-234950D02*
D03*
X-242570Y-207010D02*
D03*
X-152400Y-193040D02*
D03*
X-198187Y-61463D02*
D03*
X-66040Y-21590D02*
D03*
X-316858Y-164788D02*
D03*
Y-157168D02*
D03*
X-366642Y-76650D02*
D03*
X-373500D02*
D03*
X-340360Y-248920D02*
D03*
X-261620Y-238760D02*
D03*
X-391160Y-265430D02*
D03*
X-397510D02*
D03*
X-266700Y-274320D02*
D03*
X-251460Y-267970D02*
D03*
X-397510Y-278130D02*
D03*
X-151130Y-416941D02*
D03*
Y-423291D02*
D03*
X-177800Y-208280D02*
D03*
X-171450Y-417830D02*
D03*
X-209550D02*
D03*
X-247650D02*
D03*
X-96520Y-165100D02*
D03*
X-342900Y-327660D02*
D03*
X-371976Y-93160D02*
D03*
X-353434Y-109670D02*
D03*
X-313810Y-147262D02*
D03*
X-360800Y-140150D02*
D03*
Y-148278D02*
D03*
Y-156660D02*
D03*
X-350640Y-131514D02*
D03*
X-340480D02*
D03*
Y-140150D02*
D03*
X-350640D02*
D03*
Y-156660D02*
D03*
X-340480Y-148278D02*
D03*
Y-156660D02*
D03*
X-360800Y-131514D02*
D03*
X-350640Y-148278D02*
D03*
X-324641Y-120429D02*
D03*
X-194430Y-29660D02*
D03*
Y-23310D02*
D03*
Y-16960D02*
D03*
Y-10610D02*
D03*
Y-43630D02*
D03*
Y-37280D02*
D03*
X-209670Y-62680D02*
D03*
X-203320D02*
D03*
X-377310Y-25850D02*
D03*
Y-19500D02*
D03*
Y-13150D02*
D03*
Y-6800D02*
D03*
Y-51250D02*
D03*
Y-44900D02*
D03*
Y-38550D02*
D03*
Y-32200D02*
D03*
X-222370Y-62680D02*
D03*
X-216020D02*
D03*
X-247770D02*
D03*
X-241420D02*
D03*
X-235070D02*
D03*
X-228720D02*
D03*
X-273170D02*
D03*
X-266820D02*
D03*
X-260470D02*
D03*
X-254120D02*
D03*
X-298570D02*
D03*
X-292220D02*
D03*
X-285870D02*
D03*
X-279520D02*
D03*
X-304920D02*
D03*
X-311270D02*
D03*
X-317620D02*
D03*
X-323970D02*
D03*
X-312540Y-71570D02*
D03*
X-317620Y-77920D02*
D03*
X-323970Y-79190D02*
D03*
Y-86810D02*
D03*
Y-94430D02*
D03*
X-316350D02*
D03*
X-312540Y-100780D02*
D03*
X-316350Y-107130D02*
D03*
X-323970D02*
D03*
Y-113480D02*
D03*
X-339210Y-86810D02*
D03*
Y-79190D02*
D03*
Y-71570D02*
D03*
Y-63950D02*
D03*
X-346830D02*
D03*
X-354450D02*
D03*
X-361408D02*
D03*
D118*
X-15240Y-175260D02*
D03*
D119*
X-394889Y-372029D02*
D03*
X-384889D02*
D03*
X-394889Y-362029D02*
D03*
X-384889D02*
D03*
M02*
