M48
;Layer_Color=9474304
;FILE_FORMAT=4:3
METRIC,LZ
;TYPE=PLATED
T01F00S00C0.254
T02F00S00C0.305
T03F00S00C0.800
T04F00S00C0.889
T05F00S00C0.900
T06F00S00C1.100
T08F00S00C1.300
T09F00S00C1.600
T10F00S00C3.200
%
T01
X-0011315Y-0057322
X-0010045
X-0008775
X-0007505
X-0006235
X-0004965
X-0003695
X-0002425
X-0001155
X-000179Y-0056052
X-000306
X-000433
X-00056
X-000687
X-000814
X-000941
X-001068
Y-0053512
X-000941
X-000814
X-000687
X-0004965Y-0054782
X-0003695
X-0002425
X-0001155
X-000179Y-0053512
X-000306
X-0002425Y-0052242
X-0001155
X-000179Y-0050972
X-0001155Y-0049702
X-000306Y-0048432
X-0003695Y-0044622
X-000306Y-0043352
X-000433
X-00056
X-0004965Y-0042082
X-0003695
X-0002425Y-0039542
X-0001155
X-000433Y-0038272
X-00056
X-000687
X-000814
X-0008775Y-0037002
X-0010045
X-0011315
X-001068Y-0035732
X-0010045Y-0034462
X-0008775
X-000814Y-0033192
Y-0035732
X-000687
X-0006235Y-0037002
Y-0039542
X-000687Y-0040812
X-000814
X-0008775Y-0039542
X-001068Y-0038272
X-0010045Y-0042082
Y-0044622
X-000941Y-0045892
X-001068
X-0008775Y-0047162
Y-0049702
X-00056Y-0050972
Y-0030652
X-000433
X-000306
X-0003695Y-0029382
X-0004965
X-0006235
X-00056Y-0028112
X-000433
X-0003695Y-0026842
X-0002425
X-0001155
X-000179Y-0025572
X-000306
X-000433
X-00056
X-000687
X-000814
X-000941
X-001068
X-0010045Y-0024302
X-0008775
X-0006235
Y-0026842
X-0004965
X-000687Y-0028112
X-000814
X-0008775Y-0026842
X-0010045Y-0029382
Y-0031922
X-0011315
X-001068Y-0033192
X-0011315Y-0034462
X-0003695Y-0031922
X-0002425Y-0024302
X-0001155
X-000179Y-0023032
X-0008775Y-0021762
X-0010045
X-0011315
Y-0024302
X-0012585Y-0021762
Y-0026842
X-001195Y-0028112
X-0012585Y-0029382
X-0013855
X-0015125
X-0016395
X-001576Y-0028112
X-001449
X-0015125Y-0026842
X-001449Y-0025572
Y-0030652
X-001322
X-001195
X-0012585Y-0031922
X-0013855
X-0015125
X-001576Y-0030652
X-0016395Y-0034462
X-001576Y-0038272
X-0015125Y-0039542
X-0016395
Y-0042082
X-0017145Y-0041783
X-001703Y-0043352
X-001576
X-0015113Y-0042329
Y-0041694
X-001449Y-0040812
X-0013855Y-0044622
Y-0049702
X-001322Y-0053512
X-001195
X-001449
X-001576Y-0056052
X-001703
X-00183
X-0017665Y-0057322
X-0016395
X-0018935
X-0024015
X-0025285
X-002465Y-0056052
X-002338
X-002592
X-003354
X-003481
X-003608
X-0035445Y-0057322
X-0034175
X-0032905
X-0036715
Y-0054782
Y-0052242
X-0037985
X-0039255
X-0040525
X-0041795
X-0043065
X-004243Y-0050972
X-004116
X-0041795Y-0049702
X-0043065
X-004243Y-0053512
X-004116
X-0041795Y-0054782
X-0043065
X-004243Y-0056052
X-004116
X-0041795Y-0057322
X-0043065
X-003481Y-0053512
Y-0050972
X-002846Y-0045892
Y-0043352
X-002465
X-0024765Y-0041783
X-0020955
X-002084Y-0043352
X-00183Y-0045892
X-0024015Y-0049702
X-002465Y-0033192
X-0026558Y-0032527
X-0026543Y-0031877
X-0027729Y-0030494
X-0027813Y-0027432
X-002667
X-0025146Y-0026797
X-0025285Y-0024302
X-0024015
X-0022745
X-002211Y-0023032
X-002084
X-002338
X-002465
X-002592
X-0026162Y-0023876
X-0027686Y-0023495
X-0028867Y-0022156
X-0029591Y-0021463
X-0030734Y-002413
X-0031873Y-0024638
X-0034036Y-0024892
X-0034417Y-0026035
X-0039116Y-0026543
X-0039751
Y-0027813
X-0039497Y-002413
X-004191Y-0024638
X-0042545Y-0034417
X-003429Y-0032766
X-002499Y-0029367
X-0020205Y-0029382
X-002084Y-0028112
X-00183
X-001195Y-0033192
X-0025285Y-0021762
X-0043065Y-0044622
X-0042547Y-0016907
X-0041385Y-0017013
X-0037846Y-0017526
X-0037084Y-0018161
X-003608Y-0015666
Y-0014828
Y-0014015
Y-0013151
X-0035064
Y-0014015
Y-0014828
Y-0015666
X-0034048
Y-0014828
Y-0014015
Y-0013151
X-0032464Y-0012043
X-0032397Y-0011348
Y-0010713
X-0031635
X-0031254Y-0010078
X-0031635Y-0009443
X-0032397
Y-0008681
Y-0007919
X-0031762Y-0007792
X-0031254Y-0007157
X-0031127Y-0006268
X-0030492
X-0029857
X-0029222
X-0028587
X-0027952
X-0027317
X-0026682
X-0026047
X-0025412
X-0024777
X-0024142
X-0023507
X-0022872
X-0022237
X-0021602
X-0020967
X-0020332
X-0019819Y-0006146
X-0019443Y-0005633
Y-0004998
Y-0004363
Y-0003728
Y-0002966
Y-0002331
Y-0001696
Y-0001061
X-0016395Y-0003982
X-001322Y-0005252
X-001195
X-0012585Y-0006522
X-0013855
X-001322Y-0010332
X-0015125Y-0011602
X-0017665
X-001703Y-0010332
X-0017526Y-0007493
X-001778Y-0014605
X-002084Y-0015412
X-0021475Y-0014142
X-0021209Y-001778
X-002084Y-0020492
X-001778Y-0020828
X-001524Y-0019304
X-0012585Y-0019222
X-001195Y-0015412
Y-0012872
X-0023876Y-0010541
X-0025285Y-0011602
X-0029095
X-0031Y-0012872
X-0031381Y-0014726
X-0031686Y-0015717
Y-0016479
X-0030365Y-0016682
X-002973Y-0015412
X-0030365Y-0009062
X-0033921Y-0008681
Y-0007919
Y-0007157
Y-0006395
X-0034683
X-0035445
X-0036141
X-0036664Y-0007665
X-003735
X-0037198Y-0009316
X-0037465Y-0010287
X-0038481Y-0010922
X-00381Y-0012446
Y-0013203
X-0039004Y-0014045
X-0038265Y-0014802
X-0038388Y-0015566
X-0039982Y-0011954
X-0042106Y-001148
X-0040525Y-0009062
Y-0006522
Y-0003982
X-0039255
X-0037731Y-0003855
Y-000449
Y-0005125
Y-000322
Y-0002585
Y-000195
Y-0001315
Y-000068
X-0039255Y-0001442
X-003989Y-0002712
X-004243Y-0005252
Y-0007792
X-0035343Y-0010967
X-0032397Y-0006268
X-0031762
X-002592Y-0007792
X-0025908Y-0018796
X-002592Y-0020492
X-0024257Y-0020701
X-0031369Y-0020955
X-000814Y-0020492
X-000687
X-0006235Y-0019222
X-000814Y-0017952
X-0008775Y-0016682
X-0009652Y-001651
X-0004965Y-0014142
X-000433Y-0012872
X-000306
X-000179
X-0001155Y-0011602
X-0002425
X-0003695
X-0004965
X-0006235
X-000687Y-0010332
X-000814
X-0008775Y-0009062
X-0006235
X-0004965
X-0003695
X-0002425
X-0001155
X-000179Y-0007792
X-000306
X-000433
X-0003695Y-0006522
X-0002425
X-0001155
X-000179Y-0005252
X-000306
X-000433
X-0003695Y-0003982
X-0004965
X-0006235
X-000687Y-0005252
X-0006235Y-0006522
X-0004965
X-0007505
X-0008775
X-0011315
Y-0009062
X-000687Y-0007792
X-000433Y-0010332
X-000306
X-000179
X-0001155Y-0014142
X-000179Y-0015412
X-000306Y-0017952
Y-0002712
X-000433
X-0003695Y-0001442
X-0002425
X-0001155
X-0004965
X-0006604Y-0002159
T02
X-0039489Y-0037203
X-0038489
Y-0036203
X-0039489
T03
X-0001524Y-0017526
T04
X-0017347Y-0001137
X-0015347
X-0013347
X-0011347
X-0009347
T05
X-0007505Y-001175
Y-000925
T06
X-0041846Y-0009189
Y-0006649
Y-0004109
Y-0001569
T08
X-0009921Y-0052128
X-0007457
Y-0049157
X-0009921Y-0049157
X-0004297Y-0046193
X-0001797Y-0041193
X-0004297Y-0036193
Y-0033493
X-0001797Y-0028493
X-0004297Y-0023493
X-0014497
Y-0033493
Y-0036193
Y-0046193
X-0015001Y-0049157
X-0017541Y-0049157
X-0020081
X-0022621
Y-0052128
X-0020081
X-0017541
X-0015001
X-0012461
Y-0049157
T09
X-0025669Y-0052357
Y-0049157
T10
X-0021351Y-0056878
X-0013705Y-0056853
M30
