G04*
G04 #@! TF.GenerationSoftware,Altium Limited,Altium Designer,24.1.2 (44)*
G04*
G04 Layer_Color=32768*
%FSLAX44Y44*%
%MOMM*%
G71*
G04*
G04 #@! TF.SameCoordinates,A828B434-B989-4348-A1B4-DAEA40B4C3D2*
G04*
G04*
G04 #@! TF.FilePolarity,Positive*
G04*
G01*
G75*
%ADD10C,0.2540*%
%ADD11C,0.2000*%
%ADD13C,0.3000*%
%ADD16C,0.0508*%
%ADD132C,0.0500*%
%ADD133C,0.0025*%
G36*
X-94183Y-32581D02*
Y-32829D01*
Y-33078D01*
X-94534Y-33429D01*
X-94784D01*
Y-40830D01*
X-97784D01*
Y-32830D01*
X-95382D01*
Y-32829D01*
Y-32581D01*
X-95031Y-32230D01*
X-94534D01*
X-94183Y-32581D01*
D02*
G37*
G36*
X-107784Y-40830D02*
X-110784D01*
Y-32830D01*
X-107784D01*
Y-40830D01*
D02*
G37*
G36*
X-123460D02*
X-126460D01*
Y-32830D01*
X-123460D01*
Y-40830D01*
D02*
G37*
G36*
X-136460D02*
X-138862D01*
Y-40830D01*
Y-41079D01*
X-139213Y-41430D01*
X-139710D01*
X-140061Y-41079D01*
Y-40830D01*
Y-40582D01*
X-139710Y-40231D01*
X-139460D01*
Y-32830D01*
X-136460D01*
Y-40830D01*
D02*
G37*
G36*
X-380226Y-57161D02*
Y-57410D01*
Y-57658D01*
X-380577Y-58009D01*
X-380826D01*
Y-65410D01*
X-383826D01*
Y-57410D01*
X-381425D01*
Y-57410D01*
Y-57161D01*
X-381074Y-56810D01*
X-380577D01*
X-380226Y-57161D01*
D02*
G37*
G36*
X-393826Y-65410D02*
X-396826D01*
Y-57410D01*
X-393826D01*
Y-65410D01*
D02*
G37*
G36*
X-321299Y-72800D02*
X-323799D01*
Y-67800D01*
X-321299D01*
Y-72800D01*
D02*
G37*
G36*
X-328799D02*
X-330699D01*
Y-73049D01*
X-331051Y-73400D01*
X-331548D01*
X-331899Y-73049D01*
Y-72800D01*
Y-72552D01*
X-331548Y-72200D01*
X-331299D01*
Y-67800D01*
X-328799D01*
Y-72800D01*
D02*
G37*
G36*
X-350450Y-79270D02*
X-358450D01*
Y-76270D01*
X-350450D01*
Y-79270D01*
D02*
G37*
G36*
X-380139Y-72401D02*
Y-72649D01*
Y-72898D01*
X-380491Y-73249D01*
X-380740D01*
Y-80650D01*
X-383740D01*
Y-72650D01*
X-381339D01*
Y-72649D01*
Y-72401D01*
X-380987Y-72050D01*
X-380491D01*
X-380139Y-72401D01*
D02*
G37*
G36*
X-393740Y-80650D02*
X-396740D01*
Y-72650D01*
X-393740D01*
Y-80650D01*
D02*
G37*
G36*
X-221605Y-86823D02*
X-229605D01*
Y-83822D01*
X-221605D01*
Y-86823D01*
D02*
G37*
G36*
X-235575D02*
X-243575D01*
Y-83822D01*
X-235575D01*
Y-86823D01*
D02*
G37*
G36*
X-269127Y-88709D02*
X-277127D01*
Y-85709D01*
X-269127D01*
Y-88709D01*
D02*
G37*
G36*
X-284290Y-88980D02*
X-292290D01*
Y-85980D01*
X-284290D01*
Y-88980D01*
D02*
G37*
G36*
X-350450Y-91671D02*
X-350201D01*
X-349850Y-92023D01*
Y-92519D01*
X-350201Y-92871D01*
X-350698D01*
X-351049Y-92519D01*
Y-92270D01*
X-358450D01*
Y-89270D01*
X-350450D01*
Y-91671D01*
D02*
G37*
G36*
X-380139Y-89419D02*
Y-89668D01*
Y-89916D01*
X-380491Y-90267D01*
X-380740D01*
Y-97668D01*
X-383740D01*
Y-89668D01*
X-381339D01*
Y-89668D01*
Y-89419D01*
X-380987Y-89068D01*
X-380491D01*
X-380139Y-89419D01*
D02*
G37*
G36*
X-393740Y-97668D02*
X-396740D01*
Y-89668D01*
X-393740D01*
Y-97668D01*
D02*
G37*
G36*
X-221605Y-99224D02*
X-221356D01*
X-221005Y-99575D01*
Y-100072D01*
X-221356Y-100423D01*
X-221853D01*
X-222204Y-100072D01*
Y-99823D01*
X-229605D01*
Y-96823D01*
X-221605D01*
Y-99224D01*
D02*
G37*
G36*
X-235575D02*
X-235326D01*
X-234975Y-99575D01*
Y-100072D01*
X-235326Y-100423D01*
X-235823D01*
X-236174Y-100072D01*
Y-99823D01*
X-243575D01*
Y-96823D01*
X-235575D01*
Y-99224D01*
D02*
G37*
G36*
X-269127Y-101110D02*
X-268878D01*
X-268527Y-101461D01*
Y-101958D01*
X-268878Y-102309D01*
X-269375D01*
X-269727Y-101958D01*
Y-101709D01*
X-277127D01*
Y-98709D01*
X-269127D01*
Y-101110D01*
D02*
G37*
G36*
X-284290Y-101381D02*
X-284041D01*
X-283690Y-101733D01*
Y-102229D01*
X-284041Y-102581D01*
X-284538D01*
X-284889Y-102229D01*
Y-101980D01*
X-292290D01*
Y-98980D01*
X-284290D01*
Y-101381D01*
D02*
G37*
G36*
X-321299Y-103280D02*
X-323799D01*
Y-98280D01*
X-321299D01*
Y-103280D01*
D02*
G37*
G36*
X-328799D02*
X-330699D01*
Y-103529D01*
X-331051Y-103880D01*
X-331548D01*
X-331899Y-103529D01*
Y-103280D01*
Y-103032D01*
X-331548Y-102680D01*
X-331299D01*
Y-98280D01*
X-328799D01*
Y-103280D01*
D02*
G37*
G36*
X-108840Y-118300D02*
X-111840D01*
Y-110300D01*
X-108840D01*
Y-118300D01*
D02*
G37*
G36*
X-411220Y-118750D02*
X-414220D01*
Y-110750D01*
X-411220D01*
Y-118750D01*
D02*
G37*
G36*
X-121840Y-118300D02*
X-124241D01*
Y-118301D01*
Y-118549D01*
X-124593Y-118900D01*
X-125089D01*
X-125441Y-118549D01*
Y-118301D01*
Y-118052D01*
X-125089Y-117701D01*
X-124840D01*
Y-110300D01*
X-121840D01*
Y-118300D01*
D02*
G37*
G36*
X-424220Y-118750D02*
X-426621D01*
Y-118750D01*
Y-118999D01*
X-426973Y-119350D01*
X-427469D01*
X-427821Y-118999D01*
Y-118750D01*
Y-118502D01*
X-427469Y-118151D01*
X-427220D01*
Y-110750D01*
X-424220D01*
Y-118750D01*
D02*
G37*
G36*
X-270440Y-120530D02*
X-278440D01*
Y-117530D01*
X-270440D01*
Y-120530D01*
D02*
G37*
G36*
X-410000Y-124471D02*
Y-124719D01*
Y-124968D01*
X-410351Y-125319D01*
X-410600D01*
Y-132720D01*
X-413600D01*
Y-124720D01*
X-411199D01*
Y-124719D01*
Y-124471D01*
X-410848Y-124120D01*
X-410351D01*
X-410000Y-124471D01*
D02*
G37*
G36*
X-423600Y-132720D02*
X-426600D01*
Y-124720D01*
X-423600D01*
Y-132720D01*
D02*
G37*
G36*
X-270440Y-132931D02*
X-270191D01*
X-269840Y-133282D01*
Y-133779D01*
X-270191Y-134130D01*
X-270688D01*
X-271039Y-133779D01*
Y-133530D01*
X-278440D01*
Y-130530D01*
X-270440D01*
Y-132931D01*
D02*
G37*
G36*
X-100140Y-140400D02*
X-108140D01*
Y-137400D01*
X-100140D01*
Y-140400D01*
D02*
G37*
G36*
X-1131Y-65823D02*
X-774Y-66180D01*
X-580Y-66647D01*
Y-66899D01*
Y-143030D01*
Y-143282D01*
X-774Y-143749D01*
X-1131Y-144106D01*
X-1598Y-144300D01*
X-75303D01*
X-75769Y-144106D01*
X-76127Y-143749D01*
X-76320Y-143282D01*
Y-143030D01*
Y-127431D01*
Y-126905D01*
X-75576Y-126161D01*
X-74524D01*
X-73780Y-126905D01*
Y-127431D01*
Y-141760D01*
X-3121D01*
Y-68169D01*
X-73780D01*
Y-82687D01*
Y-83213D01*
X-74524Y-83957D01*
X-75576D01*
X-76320Y-83213D01*
Y-82687D01*
Y-66899D01*
Y-66647D01*
X-76127Y-66180D01*
X-75769Y-65823D01*
X-75303Y-65629D01*
X-1598D01*
X-1131Y-65823D01*
D02*
G37*
G36*
X-424895Y-144680D02*
X-430295D01*
Y-143380D01*
X-424895D01*
Y-144680D01*
D02*
G37*
G36*
X-410950Y-143312D02*
X-408906D01*
Y-144612D01*
X-410950D01*
Y-146666D01*
X-412249D01*
Y-144612D01*
X-414306D01*
Y-143312D01*
X-412249D01*
Y-141266D01*
X-410950D01*
Y-143312D01*
D02*
G37*
G36*
X-277841Y-145220D02*
Y-145470D01*
X-270440D01*
Y-148470D01*
X-278440D01*
Y-146068D01*
X-278689D01*
X-279040Y-145717D01*
Y-145220D01*
X-278689Y-144869D01*
X-278192D01*
X-277841Y-145220D01*
D02*
G37*
G36*
X-100140Y-152801D02*
X-99891D01*
X-99540Y-153152D01*
Y-153649D01*
X-99891Y-154001D01*
X-100388D01*
X-100739Y-153649D01*
Y-153400D01*
X-108140D01*
Y-150400D01*
X-100140D01*
Y-152801D01*
D02*
G37*
G36*
X-31990Y-157670D02*
X-34990D01*
Y-149670D01*
X-31990D01*
Y-157670D01*
D02*
G37*
G36*
X-63740D02*
X-66740D01*
Y-149670D01*
X-63740D01*
Y-157670D01*
D02*
G37*
G36*
X-44990D02*
X-47391D01*
Y-157670D01*
Y-157919D01*
X-47742Y-158270D01*
X-48239D01*
X-48590Y-157919D01*
Y-157670D01*
Y-157422D01*
X-48239Y-157071D01*
X-47990D01*
Y-149670D01*
X-44990D01*
Y-157670D01*
D02*
G37*
G36*
X-76740D02*
X-79141D01*
Y-157670D01*
Y-157919D01*
X-79492Y-158270D01*
X-79989D01*
X-80340Y-157919D01*
Y-157670D01*
Y-157422D01*
X-79989Y-157071D01*
X-79740D01*
Y-149670D01*
X-76740D01*
Y-157670D01*
D02*
G37*
G36*
X-270440Y-161470D02*
X-278440D01*
Y-158470D01*
X-270440D01*
Y-161470D01*
D02*
G37*
G36*
X-410533Y-153681D02*
Y-153930D01*
Y-154178D01*
X-410884Y-154529D01*
X-411134D01*
Y-161930D01*
X-414134D01*
Y-153930D01*
X-411732D01*
Y-153930D01*
Y-153681D01*
X-411381Y-153330D01*
X-410884D01*
X-410533Y-153681D01*
D02*
G37*
G36*
X-424134Y-161930D02*
X-427134D01*
Y-153930D01*
X-424134D01*
Y-161930D01*
D02*
G37*
G36*
X-410000Y-179661D02*
Y-179909D01*
Y-180158D01*
X-410351Y-180509D01*
X-410600D01*
Y-187910D01*
X-413600D01*
Y-179910D01*
X-411199D01*
Y-179909D01*
Y-179661D01*
X-410848Y-179310D01*
X-410351D01*
X-410000Y-179661D01*
D02*
G37*
G36*
X-423600Y-187910D02*
X-426600D01*
Y-179910D01*
X-423600D01*
Y-187910D01*
D02*
G37*
G36*
X-376901Y-191504D02*
Y-191754D01*
X-369500D01*
Y-194754D01*
X-377500D01*
Y-192352D01*
X-377749D01*
X-378100Y-192001D01*
Y-191504D01*
X-377749Y-191153D01*
X-377252D01*
X-376901Y-191504D01*
D02*
G37*
G36*
X-390871D02*
Y-191754D01*
X-383470D01*
Y-194754D01*
X-391470D01*
Y-192352D01*
X-391719D01*
X-392070Y-192001D01*
Y-191504D01*
X-391719Y-191153D01*
X-391222D01*
X-390871Y-191504D01*
D02*
G37*
G36*
X-30071Y-194331D02*
Y-194580D01*
X-22670D01*
Y-197580D01*
X-30670D01*
Y-195179D01*
X-30919D01*
X-31270Y-194828D01*
Y-194331D01*
X-30919Y-193979D01*
X-30422D01*
X-30071Y-194331D01*
D02*
G37*
G36*
X-336170Y-198310D02*
X-339170D01*
Y-190310D01*
X-336170D01*
Y-198310D01*
D02*
G37*
G36*
X-349170D02*
X-351571D01*
Y-198311D01*
Y-198559D01*
X-351923Y-198910D01*
X-352419D01*
X-352771Y-198559D01*
Y-198311D01*
Y-198062D01*
X-352419Y-197711D01*
X-352170D01*
Y-190310D01*
X-349170D01*
Y-198310D01*
D02*
G37*
G36*
X-220571Y-197577D02*
Y-197826D01*
X-213170D01*
Y-200826D01*
X-221170D01*
Y-198425D01*
X-221419D01*
X-221770Y-198074D01*
Y-197577D01*
X-221419Y-197226D01*
X-220922D01*
X-220571Y-197577D01*
D02*
G37*
G36*
X-410000Y-193631D02*
Y-193880D01*
Y-194128D01*
X-410351Y-194479D01*
X-410600D01*
Y-201880D01*
X-413600D01*
Y-193880D01*
X-411199D01*
Y-193880D01*
Y-193631D01*
X-410848Y-193280D01*
X-410351D01*
X-410000Y-193631D01*
D02*
G37*
G36*
X-423600Y-201880D02*
X-426600D01*
Y-193880D01*
X-423600D01*
Y-201880D01*
D02*
G37*
G36*
X-263970Y-202096D02*
X-271970D01*
Y-199096D01*
X-263970D01*
Y-202096D01*
D02*
G37*
G36*
X-176666Y-195142D02*
Y-195391D01*
Y-195639D01*
X-177017Y-195990D01*
X-177266D01*
Y-203391D01*
X-180266D01*
Y-195391D01*
X-177865D01*
Y-195391D01*
Y-195142D01*
X-177514Y-194791D01*
X-177017D01*
X-176666Y-195142D01*
D02*
G37*
G36*
X-190266Y-203391D02*
X-193266D01*
Y-195391D01*
X-190266D01*
Y-203391D01*
D02*
G37*
G36*
X-369500Y-207754D02*
X-377500D01*
Y-204754D01*
X-369500D01*
Y-207754D01*
D02*
G37*
G36*
X-383470D02*
X-391470D01*
Y-204754D01*
X-383470D01*
Y-207754D01*
D02*
G37*
G36*
X-22670Y-210580D02*
X-30670D01*
Y-207580D01*
X-22670D01*
Y-210580D01*
D02*
G37*
G36*
X-213170Y-213826D02*
X-221170D01*
Y-210826D01*
X-213170D01*
Y-213826D01*
D02*
G37*
G36*
X-303340Y-214796D02*
X-311340D01*
Y-211796D01*
X-303340D01*
Y-214796D01*
D02*
G37*
G36*
X-263970Y-214498D02*
X-263721D01*
X-263370Y-214849D01*
Y-215346D01*
X-263721Y-215697D01*
X-264218D01*
X-264569Y-215346D01*
Y-215096D01*
X-271970D01*
Y-212096D01*
X-263970D01*
Y-214498D01*
D02*
G37*
G36*
X-410000Y-207601D02*
Y-207850D01*
Y-208098D01*
X-410351Y-208449D01*
X-410600D01*
Y-215850D01*
X-413600D01*
Y-207850D01*
X-411199D01*
Y-207850D01*
Y-207601D01*
X-410848Y-207250D01*
X-410351D01*
X-410000Y-207601D01*
D02*
G37*
G36*
X-423600Y-215850D02*
X-426600D01*
Y-207850D01*
X-423600D01*
Y-215850D01*
D02*
G37*
G36*
X-373789Y-219721D02*
Y-219970D01*
Y-220218D01*
X-374141Y-220569D01*
X-374390D01*
Y-227970D01*
X-377390D01*
Y-219970D01*
X-374989D01*
Y-219970D01*
Y-219721D01*
X-374637Y-219370D01*
X-374141D01*
X-373789Y-219721D01*
D02*
G37*
G36*
X-387390Y-227970D02*
X-390390D01*
Y-219970D01*
X-387390D01*
Y-227970D01*
D02*
G37*
G36*
X-303340Y-227198D02*
X-303091D01*
X-302740Y-227549D01*
Y-228046D01*
X-303091Y-228397D01*
X-303588D01*
X-303939Y-228046D01*
Y-227796D01*
X-311340D01*
Y-224796D01*
X-303340D01*
Y-227198D01*
D02*
G37*
G36*
X-410000Y-221571D02*
Y-221819D01*
Y-222068D01*
X-410351Y-222419D01*
X-410600D01*
Y-229820D01*
X-413600D01*
Y-221820D01*
X-411199D01*
Y-221819D01*
Y-221571D01*
X-410848Y-221220D01*
X-410351D01*
X-410000Y-221571D01*
D02*
G37*
G36*
X-423600Y-229820D02*
X-426600D01*
Y-221820D01*
X-423600D01*
Y-229820D01*
D02*
G37*
G36*
X-374071Y-240306D02*
X-382071D01*
Y-237306D01*
X-374071D01*
Y-240306D01*
D02*
G37*
G36*
X-260553Y-243401D02*
Y-243650D01*
Y-243898D01*
X-260904Y-244249D01*
X-261154D01*
Y-251650D01*
X-264154D01*
Y-243650D01*
X-261752D01*
Y-243650D01*
Y-243401D01*
X-261401Y-243050D01*
X-260904D01*
X-260553Y-243401D01*
D02*
G37*
G36*
X-274154Y-251650D02*
X-277154D01*
Y-243650D01*
X-274154D01*
Y-251650D01*
D02*
G37*
G36*
X-374071Y-252707D02*
X-373822D01*
X-373471Y-253059D01*
Y-253555D01*
X-373822Y-253907D01*
X-374319D01*
X-374670Y-253555D01*
Y-253306D01*
X-382071D01*
Y-250306D01*
X-374071D01*
Y-252707D01*
D02*
G37*
G36*
X-374326Y-270364D02*
X-382326D01*
Y-267364D01*
X-374326D01*
Y-270364D01*
D02*
G37*
G36*
Y-282766D02*
X-374077D01*
X-373726Y-283117D01*
Y-283614D01*
X-374077Y-283965D01*
X-374574D01*
X-374925Y-283614D01*
Y-283364D01*
X-382326D01*
Y-280364D01*
X-374326D01*
Y-282766D01*
D02*
G37*
G36*
X-393217Y-286866D02*
X-401217D01*
Y-283866D01*
X-393217D01*
Y-286866D01*
D02*
G37*
G36*
X-409727D02*
X-417727D01*
Y-283866D01*
X-409727D01*
Y-286866D01*
D02*
G37*
G36*
X-360490Y-287720D02*
X-368490D01*
Y-284720D01*
X-360490D01*
Y-287720D01*
D02*
G37*
G36*
X-393217Y-299866D02*
X-400618D01*
Y-300116D01*
X-400970Y-300467D01*
X-401466D01*
X-401818Y-300116D01*
Y-299619D01*
X-401466Y-299268D01*
X-401217D01*
Y-296866D01*
X-393217D01*
Y-299866D01*
D02*
G37*
G36*
X-409727D02*
X-417128D01*
Y-300116D01*
X-417480Y-300467D01*
X-417976D01*
X-418327Y-300116D01*
Y-299619D01*
X-417976Y-299268D01*
X-417727D01*
Y-296866D01*
X-409727D01*
Y-299866D01*
D02*
G37*
G36*
X-360490Y-300720D02*
X-367891D01*
Y-300969D01*
X-368242Y-301320D01*
X-368739D01*
X-369090Y-300969D01*
Y-300472D01*
X-368739Y-300121D01*
X-368490D01*
Y-297720D01*
X-360490D01*
Y-300720D01*
D02*
G37*
G36*
X-405250Y-295351D02*
Y-295599D01*
Y-295848D01*
X-405601Y-296199D01*
X-405850D01*
Y-303600D01*
X-408850D01*
Y-295600D01*
X-406449D01*
Y-295599D01*
Y-295351D01*
X-406098Y-295000D01*
X-405601D01*
X-405250Y-295351D01*
D02*
G37*
G36*
X-418850Y-303600D02*
X-421850D01*
Y-295600D01*
X-418850D01*
Y-303600D01*
D02*
G37*
G36*
X-338801Y-300897D02*
Y-301146D01*
X-331400D01*
Y-304146D01*
X-339400D01*
Y-301745D01*
X-339649D01*
X-340000Y-301394D01*
Y-300897D01*
X-339649Y-300546D01*
X-339152D01*
X-338801Y-300897D01*
D02*
G37*
G36*
X-351501D02*
Y-301146D01*
X-344100D01*
Y-304146D01*
X-352100D01*
Y-301745D01*
X-352349D01*
X-352700Y-301394D01*
Y-300897D01*
X-352349Y-300546D01*
X-351852D01*
X-351501Y-300897D01*
D02*
G37*
G36*
X-317430Y-304680D02*
X-325430D01*
Y-301680D01*
X-317430D01*
Y-304680D01*
D02*
G37*
G36*
X-358070D02*
X-366070D01*
Y-301680D01*
X-358070D01*
Y-304680D01*
D02*
G37*
G36*
X-331400Y-317146D02*
X-339400D01*
Y-314146D01*
X-331400D01*
Y-317146D01*
D02*
G37*
G36*
X-344100D02*
X-352100D01*
Y-314146D01*
X-344100D01*
Y-317146D01*
D02*
G37*
G36*
X-405250Y-309321D02*
Y-309569D01*
Y-309818D01*
X-405601Y-310169D01*
X-405850D01*
Y-317570D01*
X-408850D01*
Y-309570D01*
X-406449D01*
Y-309569D01*
Y-309321D01*
X-406098Y-308970D01*
X-405601D01*
X-405250Y-309321D01*
D02*
G37*
G36*
X-418850Y-317570D02*
X-421850D01*
Y-309570D01*
X-418850D01*
Y-317570D01*
D02*
G37*
G36*
X-317430Y-317081D02*
X-317181D01*
X-316830Y-317432D01*
Y-317929D01*
X-317181Y-318281D01*
X-317678D01*
X-318029Y-317929D01*
Y-317680D01*
X-325430D01*
Y-314680D01*
X-317430D01*
Y-317081D01*
D02*
G37*
G36*
X-358070D02*
X-357821D01*
X-357470Y-317432D01*
Y-317929D01*
X-357821Y-318281D01*
X-358318D01*
X-358669Y-317929D01*
Y-317680D01*
X-366070D01*
Y-314680D01*
X-358070D01*
Y-317081D01*
D02*
G37*
G36*
X-405250Y-323291D02*
Y-323540D01*
Y-323788D01*
X-405601Y-324139D01*
X-405850D01*
Y-331540D01*
X-408850D01*
Y-323540D01*
X-406449D01*
Y-323540D01*
Y-323291D01*
X-406098Y-322940D01*
X-405601D01*
X-405250Y-323291D01*
D02*
G37*
G36*
X-418850Y-331540D02*
X-421850D01*
Y-323540D01*
X-418850D01*
Y-331540D01*
D02*
G37*
G36*
X-178296Y-337831D02*
Y-338079D01*
Y-338328D01*
X-178647Y-338679D01*
X-178896D01*
Y-346080D01*
X-181896D01*
Y-338080D01*
X-179495D01*
Y-338079D01*
Y-337831D01*
X-179144Y-337480D01*
X-178647D01*
X-178296Y-337831D01*
D02*
G37*
G36*
X-191896Y-346080D02*
X-194896D01*
Y-338080D01*
X-191896D01*
Y-346080D01*
D02*
G37*
G36*
X-216396Y-337831D02*
Y-338079D01*
Y-338328D01*
X-216747Y-338679D01*
X-216996D01*
Y-346080D01*
X-219996D01*
Y-338080D01*
X-217595D01*
Y-338079D01*
Y-337831D01*
X-217244Y-337480D01*
X-216747D01*
X-216396Y-337831D01*
D02*
G37*
G36*
X-229996Y-346080D02*
X-232996D01*
Y-338080D01*
X-229996D01*
Y-346080D01*
D02*
G37*
G36*
X-253226Y-337831D02*
Y-338079D01*
Y-338328D01*
X-253577Y-338679D01*
X-253826D01*
Y-346080D01*
X-256826D01*
Y-338080D01*
X-254425D01*
Y-338079D01*
Y-337831D01*
X-254074Y-337480D01*
X-253577D01*
X-253226Y-337831D01*
D02*
G37*
G36*
X-266826Y-346080D02*
X-269826D01*
Y-338080D01*
X-266826D01*
Y-346080D01*
D02*
G37*
G36*
X-178896Y-360050D02*
X-181896D01*
Y-352050D01*
X-178896D01*
Y-360050D01*
D02*
G37*
G36*
X-216996D02*
X-219996D01*
Y-352050D01*
X-216996D01*
Y-360050D01*
D02*
G37*
G36*
X-253826D02*
X-256826D01*
Y-352050D01*
X-253826D01*
Y-360050D01*
D02*
G37*
G36*
X-191896D02*
X-194298D01*
Y-360051D01*
Y-360299D01*
X-194649Y-360650D01*
X-195146D01*
X-195497Y-360299D01*
Y-360051D01*
Y-359802D01*
X-195146Y-359451D01*
X-194896D01*
Y-352050D01*
X-191896D01*
Y-360050D01*
D02*
G37*
G36*
X-229996D02*
X-232398D01*
Y-360051D01*
Y-360299D01*
X-232749Y-360650D01*
X-233246D01*
X-233597Y-360299D01*
Y-360051D01*
Y-359802D01*
X-233246Y-359451D01*
X-232996D01*
Y-352050D01*
X-229996D01*
Y-360050D01*
D02*
G37*
G36*
X-266826D02*
X-269228D01*
Y-360051D01*
Y-360299D01*
X-269579Y-360650D01*
X-270076D01*
X-270427Y-360299D01*
Y-360051D01*
Y-359802D01*
X-270076Y-359451D01*
X-269826D01*
Y-352050D01*
X-266826D01*
Y-360050D01*
D02*
G37*
G36*
X-177626Y-408310D02*
X-180626D01*
Y-400310D01*
X-177626D01*
Y-408310D01*
D02*
G37*
G36*
X-215726D02*
X-218726D01*
Y-400310D01*
X-215726D01*
Y-408310D01*
D02*
G37*
G36*
X-253826D02*
X-256826D01*
Y-400310D01*
X-253826D01*
Y-408310D01*
D02*
G37*
G36*
X-190626D02*
X-193028D01*
Y-408311D01*
Y-408559D01*
X-193379Y-408910D01*
X-193876D01*
X-194227Y-408559D01*
Y-408311D01*
Y-408062D01*
X-193876Y-407711D01*
X-193626D01*
Y-400310D01*
X-190626D01*
Y-408310D01*
D02*
G37*
G36*
X-228726D02*
X-231128D01*
Y-408311D01*
Y-408559D01*
X-231479Y-408910D01*
X-231976D01*
X-232327Y-408559D01*
Y-408311D01*
Y-408062D01*
X-231976Y-407711D01*
X-231726D01*
Y-400310D01*
X-228726D01*
Y-408310D01*
D02*
G37*
G36*
X-266826D02*
X-269228D01*
Y-408311D01*
Y-408559D01*
X-269579Y-408910D01*
X-270076D01*
X-270427Y-408559D01*
Y-408311D01*
Y-408062D01*
X-270076Y-407711D01*
X-269826D01*
Y-400310D01*
X-266826D01*
Y-408310D01*
D02*
G37*
G36*
X-177026Y-414031D02*
Y-414280D01*
Y-414528D01*
X-177377Y-414879D01*
X-177626D01*
Y-422280D01*
X-180626D01*
Y-414280D01*
X-178225D01*
Y-414280D01*
Y-414031D01*
X-177874Y-413680D01*
X-177377D01*
X-177026Y-414031D01*
D02*
G37*
G36*
X-190626Y-422280D02*
X-193626D01*
Y-414280D01*
X-190626D01*
Y-422280D01*
D02*
G37*
G36*
X-215126Y-414031D02*
Y-414280D01*
Y-414528D01*
X-215477Y-414879D01*
X-215726D01*
Y-422280D01*
X-218726D01*
Y-414280D01*
X-216325D01*
Y-414280D01*
Y-414031D01*
X-215974Y-413680D01*
X-215477D01*
X-215126Y-414031D01*
D02*
G37*
G36*
X-228726Y-422280D02*
X-231726D01*
Y-414280D01*
X-228726D01*
Y-422280D01*
D02*
G37*
G36*
X-253226Y-414031D02*
Y-414280D01*
Y-414528D01*
X-253577Y-414879D01*
X-253826D01*
Y-422280D01*
X-256826D01*
Y-414280D01*
X-254425D01*
Y-414280D01*
Y-414031D01*
X-254074Y-413680D01*
X-253577D01*
X-253226Y-414031D01*
D02*
G37*
G36*
X-266826Y-422280D02*
X-269826D01*
Y-414280D01*
X-266826D01*
Y-422280D01*
D02*
G37*
G36*
X-415667Y-429016D02*
X-417692D01*
Y-420916D01*
X-415667D01*
Y-429016D01*
D02*
G37*
G36*
X-362764Y-431992D02*
X-370864D01*
Y-429968D01*
X-362764D01*
Y-431992D01*
D02*
G37*
G36*
X-327552Y-429855D02*
X-324789D01*
Y-431880D01*
X-327552D01*
Y-437730D01*
X-329577D01*
Y-431880D01*
X-332890D01*
Y-429855D01*
X-329577D01*
Y-424230D01*
X-327552D01*
Y-429855D01*
D02*
G37*
G36*
X-300071Y-442537D02*
X-303071D01*
Y-434537D01*
X-300071D01*
Y-442537D01*
D02*
G37*
G36*
X-315472Y-434288D02*
Y-434536D01*
Y-434537D01*
X-313071D01*
Y-442537D01*
X-316071D01*
Y-435136D01*
X-316320D01*
X-316671Y-434784D01*
Y-434536D01*
Y-434288D01*
X-316320Y-433936D01*
X-315823D01*
X-315472Y-434288D01*
D02*
G37*
G36*
X-354690Y-459110D02*
X-357690D01*
Y-451110D01*
X-354690D01*
Y-459110D01*
D02*
G37*
G36*
X-367690D02*
X-370091D01*
Y-459110D01*
Y-459359D01*
X-370442Y-459710D01*
X-370939D01*
X-371290Y-459359D01*
Y-459110D01*
Y-458862D01*
X-370939Y-458511D01*
X-370690D01*
Y-451110D01*
X-367690D01*
Y-459110D01*
D02*
G37*
G36*
X-415555Y-462203D02*
X-409930D01*
Y-464228D01*
X-415555D01*
Y-466991D01*
X-417580D01*
Y-464228D01*
X-423430D01*
Y-462203D01*
X-417580D01*
Y-458890D01*
X-415555D01*
Y-462203D01*
D02*
G37*
G36*
X-187739Y-467211D02*
X-193980D01*
Y-465651D01*
X-187739D01*
Y-467211D01*
D02*
G37*
G36*
X-225839D02*
X-232080D01*
Y-465651D01*
X-225839D01*
Y-467211D01*
D02*
G37*
G36*
X-263939D02*
X-270180D01*
Y-465651D01*
X-263939D01*
Y-467211D01*
D02*
G37*
G36*
X-170900Y-465451D02*
X-168580D01*
Y-467011D01*
X-170900D01*
Y-471451D01*
X-172460D01*
Y-467011D01*
X-174820D01*
Y-465451D01*
X-172460D01*
Y-461050D01*
X-170900D01*
Y-465451D01*
D02*
G37*
G36*
X-209000D02*
X-206680D01*
Y-467011D01*
X-209000D01*
Y-471451D01*
X-210560D01*
Y-467011D01*
X-212920D01*
Y-465451D01*
X-210560D01*
Y-461050D01*
X-209000D01*
Y-465451D01*
D02*
G37*
G36*
X-247100D02*
X-244780D01*
Y-467011D01*
X-247100D01*
Y-471451D01*
X-248660D01*
Y-467011D01*
X-251020D01*
Y-465451D01*
X-248660D01*
Y-461050D01*
X-247100D01*
Y-465451D01*
D02*
G37*
G36*
X-354690Y-474350D02*
X-357690D01*
Y-466350D01*
X-354690D01*
Y-474350D01*
D02*
G37*
G36*
X-367690D02*
X-370091D01*
Y-474351D01*
Y-474599D01*
X-370442Y-474950D01*
X-370939D01*
X-371290Y-474599D01*
Y-474351D01*
Y-474102D01*
X-370939Y-473751D01*
X-370690D01*
Y-466350D01*
X-367690D01*
Y-474350D01*
D02*
G37*
G36*
X-387495Y-490951D02*
X-380440D01*
Y-493441D01*
X-387495D01*
Y-497176D01*
X-389985D01*
Y-493441D01*
X-397040D01*
Y-490951D01*
X-389985D01*
Y-487216D01*
X-387495D01*
Y-490951D01*
D02*
G37*
G36*
Y-564736D02*
X-389985D01*
Y-554776D01*
X-387495D01*
Y-564736D01*
D02*
G37*
D10*
X-232527Y-158550D02*
G03*
X-232527Y-158550I-1270J0D01*
G01*
X-366151Y-32699D02*
G03*
X-366151Y-32699I-17500J0D01*
G01*
X-11731Y-505584D02*
G03*
X-11731Y-505584I-17500J0D01*
G01*
X-48481D02*
X-9981D01*
X-29231Y-524834D02*
Y-486334D01*
D11*
X-232070Y-186688D02*
G03*
X-232070Y-186688I-1001J0D01*
G01*
X-331249Y-121606D02*
G03*
X-331249Y-121606I-1001J0D01*
G01*
D13*
X-407439Y-333030D02*
G03*
X-407439Y-333030I-1501J0D01*
G01*
X-199095Y-370783D02*
G03*
X-199095Y-370783I-1501J0D01*
G01*
X-273886Y-432402D02*
G03*
X-273886Y-432402I-1501J0D01*
G01*
X-235856D02*
G03*
X-235856Y-432402I-1501J0D01*
G01*
X-197826D02*
G03*
X-197826Y-432402I-1501J0D01*
G01*
X-237195Y-370783D02*
G03*
X-237195Y-370783I-1501J0D01*
G01*
X-274025D02*
G03*
X-274025Y-370783I-1501J0D01*
G01*
X-359588Y-401770D02*
G03*
X-359588Y-401770I-1501J0D01*
G01*
X-158229Y-57150D02*
G03*
X-158229Y-57150I-1501J0D01*
G01*
X-38312Y-208280D02*
G03*
X-38312Y-208280I-1501J0D01*
G01*
X-228049Y-306411D02*
G03*
X-228049Y-306411I-1501J0D01*
G01*
X-213621Y-84392D02*
G03*
X-213621Y-84392I-1501J0D01*
G01*
D16*
X-405850Y-317570D02*
Y-309570D01*
X-421850Y-317570D02*
X-405850D01*
X-421850D02*
Y-309570D01*
X-405850D01*
Y-331540D02*
Y-323540D01*
X-421850Y-331540D02*
X-405850D01*
X-421850D02*
Y-323540D01*
X-405850D01*
X-269127Y-101709D02*
Y-85709D01*
X-277127D02*
X-269127D01*
X-277127Y-101709D02*
Y-85709D01*
Y-101709D02*
X-269127D01*
X-368490Y-300720D02*
Y-284720D01*
X-360490D01*
Y-300720D02*
Y-284720D01*
X-368490Y-300720D02*
X-360490D01*
X-316071Y-442537D02*
Y-434537D01*
Y-442537D02*
X-300071D01*
Y-434537D01*
X-316071D02*
X-300071D01*
X-401217Y-299866D02*
Y-283866D01*
X-393217D01*
Y-299866D02*
Y-283866D01*
X-401217Y-299866D02*
X-393217D01*
X-417727D02*
Y-283866D01*
X-409727D01*
Y-299866D02*
Y-283866D01*
X-417727Y-299866D02*
X-409727D01*
X-124840Y-118300D02*
X-108840D01*
Y-110300D01*
X-124840D02*
X-108840D01*
X-124840Y-118300D02*
Y-110300D01*
X-194896Y-360050D02*
X-178896D01*
Y-352050D01*
X-194896D02*
X-178896D01*
X-194896Y-360050D02*
Y-352050D01*
Y-338080D02*
X-178896D01*
X-194896Y-346080D02*
Y-338080D01*
Y-346080D02*
X-178896D01*
Y-338080D01*
X-269826Y-408310D02*
X-253826D01*
Y-400310D01*
X-269826D02*
X-253826D01*
X-269826Y-408310D02*
Y-400310D01*
Y-414280D02*
X-253826D01*
X-269826Y-422280D02*
Y-414280D01*
Y-422280D02*
X-253826D01*
Y-414280D01*
X-231726D02*
X-215726D01*
X-231726Y-422280D02*
Y-414280D01*
Y-422280D02*
X-215726D01*
Y-414280D01*
X-231726Y-408310D02*
X-215726D01*
Y-400310D01*
X-231726D02*
X-215726D01*
X-231726Y-408310D02*
Y-400310D01*
X-232996Y-360050D02*
X-216996D01*
Y-352050D01*
X-232996D02*
X-216996D01*
X-232996Y-360050D02*
Y-352050D01*
Y-338080D02*
X-216996D01*
X-232996Y-346080D02*
Y-338080D01*
Y-346080D02*
X-216996D01*
Y-338080D01*
X-269826D02*
X-253826D01*
X-269826Y-346080D02*
Y-338080D01*
Y-346080D02*
X-253826D01*
Y-338080D01*
X-269826Y-360050D02*
X-253826D01*
Y-352050D01*
X-269826D02*
X-253826D01*
X-269826Y-360050D02*
Y-352050D01*
X-193626Y-414280D02*
X-177626D01*
X-193626Y-422280D02*
Y-414280D01*
Y-422280D02*
X-177626D01*
Y-414280D01*
X-193626Y-408310D02*
X-177626D01*
Y-400310D01*
X-193626D02*
X-177626D01*
X-193626Y-408310D02*
Y-400310D01*
X-370690Y-474350D02*
X-354690D01*
Y-466350D01*
X-370690D02*
X-354690D01*
X-370690Y-474350D02*
Y-466350D01*
X-193266Y-195391D02*
X-177266D01*
X-193266Y-203391D02*
Y-195391D01*
Y-203391D02*
X-177266D01*
Y-195391D01*
X-47990Y-157670D02*
X-31990D01*
Y-149670D01*
X-47990D02*
X-31990D01*
X-47990Y-157670D02*
Y-149670D01*
X-30670Y-210580D02*
Y-194580D01*
Y-210580D02*
X-22670D01*
Y-194580D01*
X-30670D02*
X-22670D01*
X-229605Y-99823D02*
X-221605D01*
X-229605D02*
Y-83822D01*
X-221605D01*
Y-99823D02*
Y-83822D01*
X-243575Y-99823D02*
X-235575D01*
X-243575D02*
Y-83822D01*
X-235575D01*
Y-99823D02*
Y-83822D01*
X-370690Y-459110D02*
X-354690D01*
Y-451110D01*
X-370690D02*
X-354690D01*
X-370690Y-459110D02*
Y-451110D01*
X-79740Y-157670D02*
X-63740D01*
Y-149670D01*
X-79740D02*
X-63740D01*
X-79740Y-157670D02*
Y-149670D01*
X-100140Y-153400D02*
Y-137400D01*
X-108140D02*
X-100140D01*
X-108140Y-153400D02*
Y-137400D01*
Y-153400D02*
X-100140D01*
X-271970Y-215096D02*
X-263970D01*
X-271970D02*
Y-199096D01*
X-263970D01*
Y-215096D02*
Y-199096D01*
X-221170Y-197826D02*
X-213170D01*
Y-213826D02*
Y-197826D01*
X-221170Y-213826D02*
X-213170D01*
X-221170D02*
Y-197826D01*
X-139460Y-40830D02*
X-123460D01*
Y-32830D01*
X-139460D02*
X-123460D01*
X-139460Y-40830D02*
Y-32830D01*
X-94784Y-40830D02*
Y-32830D01*
X-110784Y-40830D02*
X-94784D01*
X-110784D02*
Y-32830D01*
X-94784D01*
X-358070Y-317680D02*
Y-301680D01*
X-366070D02*
X-358070D01*
X-366070Y-317680D02*
Y-301680D01*
Y-317680D02*
X-358070D01*
X-421850Y-295600D02*
X-405850D01*
X-421850Y-303600D02*
Y-295600D01*
Y-303600D02*
X-405850D01*
Y-295600D01*
X-317430Y-317680D02*
Y-301680D01*
X-325430D02*
X-317430D01*
X-325430Y-317680D02*
Y-301680D01*
Y-317680D02*
X-317430D01*
X-311340Y-227796D02*
X-303340D01*
X-311340D02*
Y-211796D01*
X-303340D01*
Y-227796D02*
Y-211796D01*
X-374071Y-253306D02*
Y-237306D01*
X-382071D02*
X-374071D01*
X-382071Y-253306D02*
Y-237306D01*
Y-253306D02*
X-374071D01*
X-374390Y-227970D02*
Y-219970D01*
X-390390Y-227970D02*
X-374390D01*
X-390390D02*
Y-219970D01*
X-374390D01*
X-377500Y-191754D02*
X-369500D01*
Y-207754D02*
Y-191754D01*
X-377500Y-207754D02*
X-369500D01*
X-377500D02*
Y-191754D01*
X-391470D02*
X-383470D01*
Y-207754D02*
Y-191754D01*
X-391470Y-207754D02*
X-383470D01*
X-391470D02*
Y-191754D01*
X-426600Y-221820D02*
X-410600D01*
X-426600Y-229820D02*
Y-221820D01*
Y-229820D02*
X-410600D01*
Y-221820D01*
X-426600Y-207850D02*
X-410600D01*
X-426600Y-215850D02*
Y-207850D01*
Y-215850D02*
X-410600D01*
Y-207850D01*
X-426600Y-193880D02*
X-410600D01*
X-426600Y-201880D02*
Y-193880D01*
Y-201880D02*
X-410600D01*
Y-193880D01*
X-426600Y-179910D02*
X-410600D01*
X-426600Y-187910D02*
Y-179910D01*
Y-187910D02*
X-410600D01*
Y-179910D01*
X-352170Y-198310D02*
Y-190310D01*
X-336170D01*
Y-198310D02*
Y-190310D01*
X-352170Y-198310D02*
X-336170D01*
X-277154Y-243650D02*
X-261154D01*
X-277154Y-251650D02*
Y-243650D01*
Y-251650D02*
X-261154D01*
Y-243650D01*
X-278440Y-161470D02*
Y-145470D01*
Y-161470D02*
X-270440D01*
Y-145470D01*
X-278440D02*
X-270440D01*
Y-133530D02*
Y-117530D01*
X-278440D02*
X-270440D01*
X-278440Y-133530D02*
Y-117530D01*
Y-133530D02*
X-270440D01*
X-284290Y-101980D02*
Y-85980D01*
X-292290D02*
X-284290D01*
X-292290Y-101980D02*
Y-85980D01*
Y-101980D02*
X-284290D01*
X-331299Y-103280D02*
Y-98280D01*
X-321299D01*
Y-103280D02*
Y-98280D01*
X-331299Y-103280D02*
X-321299D01*
X-331299Y-72800D02*
X-321299D01*
Y-67800D01*
X-331299D02*
X-321299D01*
X-331299Y-72800D02*
Y-67800D01*
X-350450Y-92270D02*
Y-76270D01*
X-358450D02*
X-350450D01*
X-358450Y-92270D02*
Y-76270D01*
Y-92270D02*
X-350450D01*
X-411134Y-161930D02*
Y-153930D01*
X-427134Y-161930D02*
X-411134D01*
X-427134D02*
Y-153930D01*
X-411134D01*
X-426600Y-124720D02*
X-410600D01*
X-426600Y-132720D02*
Y-124720D01*
Y-132720D02*
X-410600D01*
Y-124720D01*
X-427220Y-118750D02*
Y-110750D01*
X-411220D01*
Y-118750D02*
Y-110750D01*
X-427220Y-118750D02*
X-411220D01*
X-380740Y-97668D02*
Y-89668D01*
X-396740Y-97668D02*
X-380740D01*
X-396740D02*
Y-89668D01*
X-380740D01*
Y-80650D02*
Y-72650D01*
X-396740Y-80650D02*
X-380740D01*
X-396740D02*
Y-72650D01*
X-380740D01*
X-380826Y-65410D02*
Y-57410D01*
X-396826Y-65410D02*
X-380826D01*
X-396826D02*
Y-57410D01*
X-380826D01*
X-339400Y-317146D02*
Y-301146D01*
Y-317146D02*
X-331400D01*
Y-301146D01*
X-339400D02*
X-331400D01*
X-352100Y-317146D02*
Y-301146D01*
Y-317146D02*
X-344100D01*
Y-301146D01*
X-352100D02*
X-344100D01*
X-374326Y-283364D02*
Y-267364D01*
X-382326D02*
X-374326D01*
X-382326Y-283364D02*
Y-267364D01*
Y-283364D02*
X-374326D01*
D132*
X-180599Y-271370D02*
X-162599D01*
X-180599Y-310570D02*
Y-271370D01*
Y-310570D02*
X-162599D01*
Y-271370D01*
X-180450Y-256720D02*
X-162450D01*
Y-217520D01*
X-180450D02*
X-162450D01*
X-180450Y-256720D02*
Y-217520D01*
D133*
X-389600Y-466590D02*
X-389595Y-466585D01*
M02*
